<svg id="Layer_1" data-name="Layer 1" xmlns="http://www.w3.org/2000/svg" viewBox="0 0 16 16"><defs><style>.cls-1{fill:none;stroke:#000;stroke-miterlimit:10;}</style></defs><path d="M7.61,0A5.42,5.42,0,0,1,9.07.2,5.38,5.38,0,0,1,11.5,1.61a5.16,5.16,0,0,1,.86,1.11,5.36,5.36,0,0,1,.75,2.78,5.06,5.06,0,0,1-.43,2.1,5.63,5.63,0,0,1-1.22,1.76,4.47,4.47,0,0,0-1,1.43,4.25,4.25,0,0,0-.35,1.71v2a1.48,1.48,0,0,1-.12.59,1.27,1.27,0,0,1-.32.47,1.4,1.4,0,0,1-.47.32,1.45,1.45,0,0,1-.59.12h-2A1.4,1.4,0,0,1,6,15.88a1.35,1.35,0,0,1-.48-.32,1.4,1.4,0,0,1-.32-.47,1.48,1.48,0,0,1-.12-.59v-2a4.09,4.09,0,0,0-.35-1.71,4.6,4.6,0,0,0-1-1.43A5.84,5.84,0,0,1,2.54,7.6a5.22,5.22,0,0,1-.43-2.1A5.46,5.46,0,0,1,3.72,1.61,5.79,5.79,0,0,1,4.83.75,5.63,5.63,0,0,1,7.61,0ZM9.14,12a5,5,0,0,1,.51-1.83,6,6,0,0,1,1.12-1.53,4.84,4.84,0,0,0,1-1.43,4,4,0,0,0,.35-1.71,4.48,4.48,0,0,0-.35-1.75,4.58,4.58,0,0,0-1-1.43,4.29,4.29,0,0,0-1.43-1,4.43,4.43,0,0,0-3.5,0,4.5,4.5,0,0,0-1.43,1,4.55,4.55,0,0,0-1,1.43A4.32,4.32,0,0,0,3.11,5.5a4.18,4.18,0,0,0,.35,1.71,4.7,4.7,0,0,0,1,1.43,6,6,0,0,1,1.11,1.53A5.18,5.18,0,0,1,6.09,12Zm-.53,3a.51.51,0,0,0,.5-.5V13h-3v1.5a.47.47,0,0,0,.15.35.49.49,0,0,0,.35.15Z"/><path d="M8.45,3.65a1.59,1.59,0,0,1,.66.59,1.57,1.57,0,0,1,.22.86,1.75,1.75,0,0,1-.57,1.35A2.18,2.18,0,0,1,7.24,7a2,2,0,0,1-1.45-.52,1.72,1.72,0,0,1-.57-1.33A1.84,1.84,0,0,1,5.81,3.7a2.25,2.25,0,0,1,1.56-.53l.72,0c.36,0,.64,0,.86,0a1.52,1.52,0,0,0,.48-.05c.11,0,.16-.08.17-.15h.18a.81.81,0,0,1-.16.54.72.72,0,0,1-.52.14H8.89Zm.09,1.71a2.48,2.48,0,0,0-.38-1.44,1.13,1.13,0,0,0-1-.54,1,1,0,0,0-.84.38A1.7,1.7,0,0,0,6,4.83a2.35,2.35,0,0,0,.38,1.38,1.14,1.14,0,0,0,1,.53,1.07,1.07,0,0,0,.87-.35A1.56,1.56,0,0,0,8.54,5.36Z"/><line class="cls-1" x1="7.5" y1="8" x2="7.5" y2="12"/></svg>