<svg id="Layer_1" data-name="Layer 1" xmlns="http://www.w3.org/2000/svg" viewBox="0 0 16 16"><defs><style>.cls-1,.cls-2{fill:none;stroke-miterlimit:10;}.cls-1{stroke:#000;}.cls-2{stroke:#231f20;}</style></defs><line class="cls-1" x1="1" y1="1.5" x2="3" y2="1.5"/><line class="cls-1" x1="4" y1="1.5" x2="13" y2="1.5"/><line class="cls-1" x1="1" y1="3.5" x2="3" y2="3.5"/><line class="cls-1" x1="4" y1="3.5" x2="9" y2="3.5"/><line class="cls-1" x1="1" y1="5.5" x2="3" y2="5.5"/><line class="cls-1" x1="4" y1="5.5" x2="7" y2="5.5"/><line class="cls-2" x1="1" y1="7.5" x2="3" y2="7.5"/><line class="cls-1" x1="1" y1="9.5" x2="3" y2="9.5"/><line class="cls-1" x1="1" y1="11.5" x2="3" y2="11.5"/><line class="cls-1" x1="4" y1="7.5" x2="8" y2="7.5"/><line class="cls-1" x1="4" y1="9.5" x2="7" y2="9.5"/><line class="cls-1" x1="4" y1="11.5" x2="6" y2="11.5"/><path d="M16,10.53V16H8.69V10.53H9.91V8.75a2.61,2.61,0,0,1,.18-1A2.64,2.64,0,0,1,10.61,7a2.46,2.46,0,0,1,.77-.53,2.38,2.38,0,0,1,1-.19,2.32,2.32,0,0,1,1,.19,2.5,2.5,0,0,1,.78.53,2.49,2.49,0,0,1,.69,1.76v1.78Zm-.87.84H9.56v3.89h5.56Zm-4.35-.88h3.15V8.83a2,2,0,0,0-.12-.68,1.79,1.79,0,0,0-.33-.55,1.55,1.55,0,0,0-.5-.38,1.49,1.49,0,0,0-.63-.14,1.49,1.49,0,0,0-1.12.52,1.79,1.79,0,0,0-.33.55,2,2,0,0,0-.12.68Z"/></svg>