<svg id="Layer_1" data-name="Layer 1" xmlns="http://www.w3.org/2000/svg" viewBox="0 0 16 16"><path d="M10,.75a7.55,7.55,0,0,1,1.8.76,7.43,7.43,0,0,1,1.52,1.17A7.59,7.59,0,0,1,14.48,4.2,7.69,7.69,0,0,1,15.23,6a7.51,7.51,0,0,1,0,4,8,8,0,0,1-.75,1.8,7.64,7.64,0,0,1-2.69,2.69,8,8,0,0,1-1.8.75,7.51,7.51,0,0,1-4,0,7.87,7.87,0,0,1-1.79-.75,7.56,7.56,0,0,1-1.52-1.18,7.11,7.11,0,0,1-1.17-1.51A7.55,7.55,0,0,1,.76,10a7.78,7.78,0,0,1,0-4A7.31,7.31,0,0,1,1.52,4.2,6.92,6.92,0,0,1,2.69,2.68,7.17,7.17,0,0,1,4.21,1.51,7.48,7.48,0,0,1,6,.75a7.78,7.78,0,0,1,4,0Zm-.27,13.5a6.44,6.44,0,0,0,2.87-1.67,6.44,6.44,0,0,0,1.67-2.87A6.11,6.11,0,0,0,14.5,8a6.18,6.18,0,0,0-.24-1.73,6.44,6.44,0,0,0-1.67-2.87,6.24,6.24,0,0,0-1.32-1,6.7,6.7,0,0,0-1.55-.66A6.11,6.11,0,0,0,8,1.49a6.18,6.18,0,0,0-1.73.23,6.89,6.89,0,0,0-1.55.66,6.8,6.8,0,0,0-1.32,1,6.8,6.8,0,0,0-1,1.32,6.89,6.89,0,0,0-.66,1.55A6.57,6.57,0,0,0,1.5,8a6.49,6.49,0,0,0,.23,1.72,6.7,6.7,0,0,0,.66,1.55,6.51,6.51,0,0,0,1,1.32,6.85,6.85,0,0,0,1.32,1,6.44,6.44,0,0,0,1.55.65A6.18,6.18,0,0,0,8,14.49,6.11,6.11,0,0,0,9.72,14.25ZM7.65,5.35l.7-.72L11.74,8,8.35,11.35l-.7-.72L9.82,8.49H4.5v-1H9.82Z"/></svg>