<svg id="Layer_1" data-name="Layer 1" xmlns="http://www.w3.org/2000/svg" viewBox="0 0 16 16"><path d="M5.91,8H3l-.67,2h-1L3.91,2H5L7.05,8.27,6.42,9.53ZM5.57,7,4.43,3.58,3.29,7Zm7.86,5.3c.09.22.18.41.26.58a1.78,1.78,0,0,0,.27.42,1,1,0,0,0,.41.27,1.83,1.83,0,0,0,.63.09V14H11v-.34h.27a1.36,1.36,0,0,0,.29,0,.5.5,0,0,0,.22-.13.46.46,0,0,0,.08-.29,1.37,1.37,0,0,0,0-.3c0-.13-.07-.27-.12-.43L11.55,12c-.06-.16-.11-.31-.17-.45s-.09-.26-.13-.36-.07-.17-.08-.21H7.89a1.26,1.26,0,0,1-.09.21q-.06.16-.15.36L7.48,12c-.06.15-.12.3-.17.45s-.09.29-.13.42a1.38,1.38,0,0,0,0,.31.38.38,0,0,0,.09.28.54.54,0,0,0,.22.13,1.27,1.27,0,0,0,.28,0l.27,0V14H5v-.34a3.15,3.15,0,0,0,.61-.17A1,1,0,0,0,6,13.24a1.7,1.7,0,0,0,.24-.4l.27-.62L9.65,5h.67ZM11,10,9.59,7,8.27,10Z"/></svg>