<svg id="Layer_1" data-name="Layer 1" xmlns="http://www.w3.org/2000/svg" viewBox="0 0 16 16"><defs><style>.cls-1{fill:none;stroke:#000;stroke-miterlimit:10;}</style></defs><rect x="4" y="1" width="2" height="2"/><rect x="2" y="6" width="2" height="2"/><rect x="13" y="8" width="2" height="2"/><rect x="9" y="13" width="2" height="2"/><path class="cls-1" d="M1,11.12A6,6,0,0,0,6.92,9.24"/><path class="cls-1" d="M1,14.08s5.89,1,8.6-3.24"/><path class="cls-1" d="M12.19,3.07C13.46,1.45,14.73,2,14.73,2"/><path class="cls-1" d="M13.19,6.81C14.46,4.37,15.73,5,15.73,5"/><polygon points="8.99 3.91 8.28 4.15 7.79 2.73 8.51 2.49 8.99 3.91"/><rect x="9.65" y="3.08" width="1.5" height="0.75" transform="translate(2.7 11.25) rotate(-63.74)"/><rect x="6.51" y="3.89" width="0.75" height="1.5" transform="translate(-0.33 8.76) rotate(-63.74)"/><polygon points="10.89 4.85 12.31 4.37 12.55 5.08 11.13 5.56 10.89 4.85"/><path d="M8.9,5.64a.36.36,0,0,1,.21-.19.36.36,0,0,1,.29,0,.41.41,0,0,1,.19.22.39.39,0,0,1,0,.28.38.38,0,0,1-.22.19.34.34,0,0,1-.28,0,.36.36,0,0,1-.19-.21A.36.36,0,0,1,8.9,5.64Z"/><polygon points="7.58 6.76 6.16 7.25 5.92 6.53 7.34 6.05 7.58 6.76"/><rect x="11.21" y="6.22" width="0.75" height="1.5" transform="translate(0.2 14.26) rotate(-63.67)"/><path d="M12.84,15.67a.32.32,0,0,1-.18-.18L9.39,7.35a.29.29,0,0,1,0-.24A.31.31,0,0,1,9.62,7,.39.39,0,0,1,9.9,7a.35.35,0,0,1,.19.19l3.26,8.13a.26.26,0,0,1,0,.24.32.32,0,0,1-.21.16A.39.39,0,0,1,12.84,15.67Z"/><rect x="7.32" y="7.78" width="1.5" height="0.75" transform="translate(-2.82 11.78) rotate(-63.71)"/></svg>