<svg id="Layer_1" data-name="Layer 1" xmlns="http://www.w3.org/2000/svg" viewBox="0 0 16 16"><path d="M2,15V10H4v5Zm3,0V11H7v4Zm3,0V9h2v6Zm3-9h2v9H11Z"/><path d="M2.51,6.39l.28.69L1.4,7.65,1.12,7ZM1.13,5.07l.29-.7L2.8,5l-.29.69ZM3.42,9.28,2.73,9l.58-1.38L4,7.9ZM3.33,4.43,2.76,3l.7-.28L4,4.15Zm.91,1.94a.36.36,0,0,1-.2-.2.37.37,0,0,1,0-.29.39.39,0,0,1,.2-.2.37.37,0,0,1,.29,0,.38.38,0,0,1,.2.21.34.34,0,0,1,0,.28.35.35,0,0,1-.21.2A.34.34,0,0,1,4.24,6.37Zm1.2,1.25L6,9l-.7.28L4.75,7.9Zm0-3.18-.7-.29.58-1.38.7.29ZM15.53,1.76a.39.39,0,0,1-.2.2L6,5.77a.37.37,0,0,1-.29,0,.39.39,0,0,1-.2-.2.37.37,0,0,1,0-.29.38.38,0,0,1,.21-.2L15,1.27a.37.37,0,0,1,.29,0,.39.39,0,0,1,.2.2A.37.37,0,0,1,15.53,1.76ZM6.26,6.41,7.64,7l-.29.69L6,7.1Z"/></svg>