<svg id="Layer_1" data-name="Layer 1" xmlns="http://www.w3.org/2000/svg" viewBox="0 0 16 16"><path d="M15,2V15H0V2H2V1H5a4.15,4.15,0,0,1,1.32.21,3.84,3.84,0,0,1,1.18.63,3.84,3.84,0,0,1,1.18-.63A4.15,4.15,0,0,1,10,1h3V2ZM1,14H7.3a6.47,6.47,0,0,0-.51-.43,3.6,3.6,0,0,0-.54-.31,2.81,2.81,0,0,0-.58-.19A2.87,2.87,0,0,0,5,13H2V3H1Zm2-2H5a4,4,0,0,1,1,.13,3.52,3.52,0,0,1,1,.39V2.72a3,3,0,0,0-.94-.54A3.19,3.19,0,0,0,5,2H3ZM14,3H13V13H10a2.87,2.87,0,0,0-.67.07,2.81,2.81,0,0,0-.58.19,3.6,3.6,0,0,0-.54.31A6.47,6.47,0,0,0,7.7,14H14ZM10,2a3.19,3.19,0,0,0-1.06.18A3,3,0,0,0,8,2.72v9.8a3.52,3.52,0,0,1,1-.39A4,4,0,0,1,10,12h2V2Z"/></svg>