<svg id="Layer_1" data-name="Layer 1" xmlns="http://www.w3.org/2000/svg" viewBox="0 0 16 16"><polygon points="3.23 6.76 1.42 8.57 8.46 8.57 8.46 9.32 1.44 9.32 3.23 11.11 2.7 11.64 0 8.94 2.7 6.24 3.23 6.76"/><path d="M14.92,3.58a1.74,1.74,0,0,0-.36-.46,3.18,3.18,0,0,0-1-.58,6.51,6.51,0,0,0-1.18-.38A10.79,10.79,0,0,0,11.18,2q-.63-.06-1.14-.06c-.33,0-.71,0-1.13,0a11,11,0,0,0-1.26.19,7.6,7.6,0,0,0-1.2.36,3,3,0,0,0-.94.57,1.92,1.92,0,0,0-.37.44A1.12,1.12,0,0,0,5,4.06V7H6V5.37a4.41,4.41,0,0,0,.9.43,8.18,8.18,0,0,0,1,.28A9.83,9.83,0,0,0,9,6.23c.36,0,.69,0,1,0s.63,0,1,0a7.84,7.84,0,0,0,1.07-.14,6.88,6.88,0,0,0,1-.26,4.7,4.7,0,0,0,.9-.42L14,12a.41.41,0,0,1-.12.27,1.37,1.37,0,0,1-.29.24l-.34.19-.27.13a4.91,4.91,0,0,1-.71.22l-.75.14c-.26,0-.52.06-.77.08l-.74,0-.74,0c-.25,0-.51-.05-.76-.09S8,13.07,7.71,13a4.78,4.78,0,0,1-.7-.23l-.28-.13a2.9,2.9,0,0,1-.33-.2,1.11,1.11,0,0,1-.28-.24A.41.41,0,0,1,6,11.94V11H5v.94a1.15,1.15,0,0,0,.14.55,1.7,1.7,0,0,0,.35.45,3.2,3.2,0,0,0,.95.59,6.25,6.25,0,0,0,1.18.37,10.33,10.33,0,0,0,1.24.2c.41,0,.79.06,1.13.06s.71,0,1.13-.05a9.18,9.18,0,0,0,1.25-.18,7.6,7.6,0,0,0,1.2-.36A3.1,3.1,0,0,0,14.5,13a2.54,2.54,0,0,0,.36-.45A1.1,1.1,0,0,0,15,12l.05-7.87A1.13,1.13,0,0,0,14.92,3.58Zm-1.16.61a.41.41,0,0,1,0,.09,1.3,1.3,0,0,1-.42.38,3.14,3.14,0,0,1-.61.29,6.21,6.21,0,0,1-.72.2,7.11,7.11,0,0,1-.76.13c-.26,0-.5.06-.74.07s-.44,0-.62,0l-.63,0a6.77,6.77,0,0,1-.73-.08,7.19,7.19,0,0,1-.76-.14Q7.35,5,7,4.91a3,3,0,0,1-.6-.29A1.32,1.32,0,0,1,6,4.23a.41.41,0,0,1-.05-.09.36.36,0,0,1,0-.11A.37.37,0,0,1,6,3.77a1.72,1.72,0,0,1,.28-.25l.34-.19a2.57,2.57,0,0,1,.27-.12A4.78,4.78,0,0,1,7.62,3q.36-.09.75-.15c.25,0,.51-.06.76-.07s.49,0,.73,0l.72,0a6.7,6.7,0,0,1,.77.08c.25,0,.5.1.74.16a6.39,6.39,0,0,1,.7.22l.27.13.33.2a1.31,1.31,0,0,1,.28.24.35.35,0,0,1,.11.27A.2.2,0,0,1,13.76,4.19Z"/></svg>