<svg id="Layer_1" data-name="Layer 1" xmlns="http://www.w3.org/2000/svg" viewBox="0 0 16 16"><path d="M14.93,5.87a8,8,0,0,0-.75-1.8A8.2,8.2,0,0,0,13,2.55a8.2,8.2,0,0,0-1.52-1.17A7.52,7.52,0,0,0,9.69.63a7.51,7.51,0,0,0-4,0,7.45,7.45,0,0,0-1.79.75A7.59,7.59,0,0,0,2.39,2.55,7.43,7.43,0,0,0,1.22,4.07a7.55,7.55,0,0,0-.76,1.8,7.65,7.65,0,0,0-.26,2,7.78,7.78,0,0,0,.26,2,7.48,7.48,0,0,0,.76,1.79,7.17,7.17,0,0,0,1.17,1.52,6.92,6.92,0,0,0,1.52,1.17,7.48,7.48,0,0,0,1.79.76,7.78,7.78,0,0,0,4,0,7.55,7.55,0,0,0,1.8-.76A7.43,7.43,0,0,0,13,13.17a7.89,7.89,0,0,0,1.17-1.52,7.87,7.87,0,0,0,.75-1.79,7.37,7.37,0,0,0,.27-2A7.24,7.24,0,0,0,14.93,5.87ZM14,9.59a6.44,6.44,0,0,1-1.67,2.87,6.24,6.24,0,0,1-1.32,1,6.89,6.89,0,0,1-1.55.66,6.58,6.58,0,0,1-3.45,0,6.89,6.89,0,0,1-1.55-.66,6.8,6.8,0,0,1-1.32-1A6.65,6.65,0,0,1,1.43,9.58a6.55,6.55,0,0,1,0-3.44,7,7,0,0,1,.66-1.56A6.46,6.46,0,0,1,6,1.6a6.32,6.32,0,0,1,3.45,0A6.44,6.44,0,0,1,11,2.25a6,6,0,0,1,1.32,1,6.15,6.15,0,0,1,1,1.31A6.51,6.51,0,0,1,14,6.14a6.32,6.32,0,0,1,0,3.45Z"/><path d="M8.42,4.52A.72.72,0,0,1,7,4.52.7.7,0,0,1,7.7,3.8.69.69,0,0,1,8.42,4.52Z"/><rect x="7.2" y="6.14" width="1" height="5"/></svg>