<svg id="Layer_1" data-name="Layer 1" xmlns="http://www.w3.org/2000/svg" viewBox="0 0 16 16"><defs><style>.cls-1{fill:none;stroke:#000;stroke-miterlimit:10;}</style></defs><rect x="13" y="7" width="2" height="2"/><rect x="3" y="5" width="2" height="2"/><rect x="9" width="2" height="2"/><rect x="1" y="12" width="2" height="2"/><path class="cls-1" d="M1,11.12A5.54,5.54,0,0,0,6.92,8.7"/><path class="cls-1" d="M12.19,3.07C13.46,1.45,14.73,2,14.73,2"/><polygon points="9.35 3.72 8.65 3.96 8.16 2.54 8.87 2.3 9.35 3.72"/><rect x="10.01" y="2.89" width="1.5" height="0.75" transform="translate(3.07 11.47) rotate(-63.74)"/><rect x="6.87" y="3.7" width="0.75" height="1.5" transform="translate(0.05 8.98) rotate(-63.74)"/><polygon points="11.26 4.66 12.68 4.18 12.92 4.89 11.49 5.37 11.26 4.66"/><path d="M9.26,5.45a.41.41,0,0,1,.22-.19.37.37,0,0,1,.29,0A.36.36,0,0,1,10,5.5a.34.34,0,0,1,0,.28A.38.38,0,0,1,9.72,6a.37.37,0,0,1-.29,0,.32.32,0,0,1-.18-.21A.36.36,0,0,1,9.26,5.45Z"/><polygon points="7.95 6.57 6.52 7.06 6.28 6.34 7.71 5.86 7.95 6.57"/><rect x="11.58" y="6.03" width="0.75" height="1.5" transform="translate(0.58 14.49) rotate(-63.67)"/><path d="M13,15.79a.32.32,0,0,1-.18-.2l-3-8.41A.3.3,0,0,1,10,6.77a.35.35,0,0,1,.44.2l3,8.42a.31.31,0,0,1,0,.25.32.32,0,0,1-.2.16A.33.33,0,0,1,13,15.79Z"/><rect x="7.69" y="7.6" width="1.5" height="0.75" transform="translate(-2.45 12) rotate(-63.71)"/></svg>