<svg id="Layer_1" data-name="Layer 1" xmlns="http://www.w3.org/2000/svg" viewBox="0 0 16 16"><defs><style>.cls-1{fill:none;stroke:#231f20;stroke-miterlimit:10;}</style></defs><path d="M3,0H14V16H3a1.85,1.85,0,0,1-.78-.16,1.81,1.81,0,0,1-.63-.43,1.81,1.81,0,0,1-.43-.63A1.85,1.85,0,0,1,1,14V2a1.85,1.85,0,0,1,.16-.78A1.81,1.81,0,0,1,1.59.59,1.81,1.81,0,0,1,2.22.16,1.85,1.85,0,0,1,3,0ZM13,12V1H3a1,1,0,0,0-.39.08.94.94,0,0,0-.53.53A1,1,0,0,0,2,2V12.27A2,2,0,0,1,3,12Zm0,3V13H3a1,1,0,0,0-.39.08.94.94,0,0,0-.53.53,1,1,0,0,0,0,.78.94.94,0,0,0,.53.53A1,1,0,0,0,3,15Z"/><rect class="cls-1" x="4.5" y="4.5" width="6" height="2" rx="0.45"/></svg>