<svg id="Layer_1" data-name="Layer 1" xmlns="http://www.w3.org/2000/svg" viewBox="0 0 16 16"><defs><style>.cls-1{fill:none;stroke:#000;stroke-miterlimit:10;}</style></defs><path d="M14.5,11.77a2.61,2.61,0,0,0-.05-.48l1-.4L15,10l-1,.41a2.51,2.51,0,0,0-.67-.67l.4-1-.92-.38-.4,1a2.9,2.9,0,0,0-1,0l-.4-1-.92.38.4,1a2.51,2.51,0,0,0-.67.67L9,10l-.38.93,1,.4a2.61,2.61,0,0,0-.05.48,2.42,2.42,0,0,0,.05.47l-1,.4.38.93,1-.4a2.67,2.67,0,0,0,.67.67l-.4,1,.92.38.4-1a2.33,2.33,0,0,0,1,0l.4,1,.92-.38-.4-1a2.67,2.67,0,0,0,.67-.67l1,.4.38-.93-1-.4A2.42,2.42,0,0,0,14.5,11.77Zm-1.12.58a1.44,1.44,0,0,1-.32.48,1.4,1.4,0,0,1-.47.32,1.51,1.51,0,0,1-1.18,0,1.4,1.4,0,0,1-.47-.32,1.44,1.44,0,0,1-.32-.48,1.4,1.4,0,0,1-.12-.58,1.45,1.45,0,0,1,.12-.59,1.4,1.4,0,0,1,.32-.47,1.43,1.43,0,0,1,.47-.33,1.64,1.64,0,0,1,1.18,0,1.43,1.43,0,0,1,.47.33,1.4,1.4,0,0,1,.32.47,1.45,1.45,0,0,1,.12.59A1.4,1.4,0,0,1,13.38,12.35Z"/><polyline class="cls-1" points="7 12.5 2.5 12.5 2.5 2.5 12.5 2.5 12.5 7"/><line class="cls-1" x1="13" y1="1.5" x2="14" y2="1.5"/><line class="cls-1" x1="13" y1="2.5" x2="14" y2="2.5"/><line class="cls-1" x1="12" y1="1.5" x2="13" y2="1.5"/><line class="cls-1" x1="1.5" y1="2" x2="1.5" y2="1"/><line class="cls-1" x1="2.5" y1="2" x2="2.5" y2="1"/><line class="cls-1" x1="1.5" y1="3" x2="1.5" y2="2"/><line class="cls-1" x1="2" y1="13.5" x2="1" y2="13.5"/><line class="cls-1" x1="2" y1="12.5" x2="1" y2="12.5"/><line class="cls-1" x1="3" y1="13.5" x2="2" y2="13.5"/></svg>