<?xml version="1.0" encoding="utf-8"?>
<!-- Generator: Adobe Illustrator 25.2.0, SVG Export Plug-In . SVG Version: 6.00 Build 0)  -->
<svg version="1.1" id="Layer_1" xmlns="http://www.w3.org/2000/svg" xmlns:xlink="http://www.w3.org/1999/xlink" x="0px" y="0px"
	 viewBox="0 0 16 16" style="enable-background:new 0 0 16 16;" xml:space="preserve">
<style type="text/css">
	.st0{enable-background:new    ;}
</style>
<g class="st0">
	<path d="M13.9,7.7c0,0,0,0.1,0,0.1s0,0.1,0,0.1s0,0.1,0,0.1s0,0.1,0,0.1l2,1.3l-1.2,3L12.4,12c-0.1,0.1-0.3,0.3-0.4,0.4l0.5,2.3
		l-3,1.2l-1.3-2c0,0-0.1,0-0.1,0s-0.1,0-0.1,0s-0.1,0-0.1,0s-0.1,0-0.1,0l-1.3,2l-3-1.2L4,12.4c-0.1-0.1-0.3-0.3-0.4-0.4l-2.3,0.5
		L0,9.5l2-1.3c0,0,0-0.1,0-0.1c0,0,0-0.1,0-0.1s0-0.1,0-0.1c0,0,0-0.1,0-0.1L0,6.5l1.2-3L3.6,4C3.7,3.9,3.9,3.7,4,3.6L3.5,1.3l3-1.2
		l1.3,2c0,0,0.1,0,0.1,0c0,0,0.1,0,0.1,0s0.1,0,0.1,0c0,0,0.1,0,0.1,0l1.3-2l3,1.2L12,3.6c0.1,0.1,0.3,0.3,0.4,0.4l2.3-0.5l1.2,3
		L13.9,7.7z M13,8.7c0-0.1,0-0.2,0-0.4s0-0.2,0-0.4c0-0.1,0-0.2,0-0.4s0-0.2,0-0.4l1.8-1.1l-0.7-1.6L12.1,5
		c-0.2-0.2-0.3-0.4-0.5-0.5c-0.2-0.2-0.4-0.3-0.6-0.5l0.5-2.1L9.9,1.1L8.7,3C8.6,3,8.5,3,8.4,3c-0.1,0-0.2,0-0.4,0
		c-0.1,0-0.2,0-0.4,0C7.5,3,7.4,3,7.3,3L6.1,1.1L4.5,1.8L5,3.9C4.8,4.1,4.6,4.3,4.4,4.4C4.3,4.6,4.1,4.8,3.9,5L1.8,4.5L1.1,6.1
		L3,7.3c0,0.1,0,0.2,0,0.4c0,0.1,0,0.2,0,0.4c0,0.1,0,0.2,0,0.4c0,0.1,0,0.2,0,0.4L1.1,9.9l0.7,1.6L3.9,11c0.2,0.2,0.3,0.4,0.5,0.5
		c0.2,0.2,0.4,0.3,0.6,0.5l-0.5,2.1l1.6,0.7L7.3,13c0.1,0,0.2,0,0.4,0s0.2,0,0.4,0c0.1,0,0.2,0,0.4,0s0.2,0,0.4,0l1.1,1.8l1.6-0.7
		L11,12.1c0.2-0.2,0.4-0.3,0.5-0.5s0.3-0.4,0.5-0.6l2.1,0.5l0.7-1.6L13,8.7z M8,5.1c0.4,0,0.8,0.1,1.1,0.2c0.4,0.2,0.7,0.4,0.9,0.6
		s0.5,0.6,0.6,0.9c0.2,0.4,0.2,0.7,0.2,1.1s-0.1,0.8-0.2,1.1s-0.4,0.7-0.6,0.9s-0.6,0.5-0.9,0.6S8.4,10.9,8,10.9s-0.8-0.1-1.1-0.2
		c-0.4-0.2-0.7-0.4-0.9-0.6S5.4,9.5,5.3,9.1C5.1,8.8,5.1,8.4,5.1,8s0.1-0.8,0.2-1.1c0.2-0.4,0.4-0.7,0.6-0.9s0.6-0.5,0.9-0.6
		C7.2,5.1,7.6,5.1,8,5.1z M8,10.1c0.3,0,0.6-0.1,0.8-0.2s0.5-0.3,0.7-0.4s0.3-0.4,0.4-0.7s0.2-0.5,0.2-0.8S10,7.4,9.9,7.2
		S9.6,6.7,9.5,6.5S9.1,6.2,8.8,6.1C8.6,6,8.3,5.9,8,5.9C7.7,5.9,7.4,6,7.2,6.1C6.9,6.2,6.7,6.4,6.5,6.5S6.2,6.9,6.1,7.2
		C6,7.4,5.9,7.7,5.9,8S6,8.6,6.1,8.8c0.1,0.2,0.3,0.5,0.4,0.7s0.4,0.3,0.7,0.4S7.7,10.1,8,10.1z"/>
</g>
</svg>
