<svg id="Layer_1" data-name="Layer 1" xmlns="http://www.w3.org/2000/svg" viewBox="0 0 16 16"><defs><style>.cls-1{stroke:#000;stroke-miterlimit:10;stroke-width:0.5px;}</style></defs><line class="cls-1" x1="12.09" y1="13.4" x2="14.92" y2="10.58"/><line class="cls-1" x1="14.92" y1="13.4" x2="12.09" y2="10.58"/><line class="cls-1" x1="11.51" y1="11.99" x2="15.51" y2="11.99"/><line class="cls-1" x1="13.51" y1="13.99" x2="13.51" y2="9.99"/><path d="M7,15V7h6V9h1V6H12V2H8a1.83,1.83,0,0,0-.16-.77A2,2,0,0,0,6.77.16a2,2,0,0,0-1.55,0,2.13,2.13,0,0,0-.63.43,2.06,2.06,0,0,0-.43.64A1.83,1.83,0,0,0,4,2H0V15H6v1h8V15M3,3H5V2.74a2.62,2.62,0,0,1,0-.28,4.71,4.71,0,0,1,0-.53,1.42,1.42,0,0,1,.13-.47.82.82,0,0,1,.31-.33A.94.94,0,0,1,6,1a.94.94,0,0,1,.54.13.82.82,0,0,1,.31.33A1.42,1.42,0,0,1,7,1.93a4.71,4.71,0,0,1,0,.53,2.62,2.62,0,0,1,0,.28V3H9V4H3ZM6,14H1V3H2V5h8V3h1V6H6Z"/></svg>