<svg id="Layer_1" data-name="Layer 1" xmlns="http://www.w3.org/2000/svg" viewBox="0 0 16 16"><path d="M15,13H14v3H1V13H0V5H1V0h9.71L14,3.29V5h1ZM14,6H1v6H14ZM2,5H13V4H10V1H2ZM3.5,7a1.48,1.48,0,0,1,.59.12,1.52,1.52,0,0,1,.79.79,1.51,1.51,0,0,1,0,1.18,1.52,1.52,0,0,1-.79.79A1.48,1.48,0,0,1,3.5,10H3v1H2V7ZM13,13H2v2H13ZM3.5,9a.5.5,0,0,0,0-1H3V9ZM7,7a1.85,1.85,0,0,1,.78.16A2.06,2.06,0,0,1,8.84,8.22a2,2,0,0,1,0,1.56,2.06,2.06,0,0,1-1.06,1.06A1.85,1.85,0,0,1,7,11H6V7Zm0,3a1,1,0,0,0,.39-.08.94.94,0,0,0,.53-.53,1,1,0,0,0,0-.78.94.94,0,0,0-.53-.53A1,1,0,0,0,7,8Zm3-3h2.5V8H11V9h1.5v1H11v1H10Zm1-4h1.29L11,1.71Z"/></svg>