<svg id="Layer_1" data-name="Layer 1" xmlns="http://www.w3.org/2000/svg" viewBox="0 0 16 16"><defs><style>.cls-1{fill:none;stroke:#000;stroke-miterlimit:10;stroke-width:0.5px;}</style></defs><path d="M10,2H3V5h7ZM9,4H4V3H9Z"/><rect x="6" y="7" width="1" height="1"/><rect x="6" y="13" width="1" height="1"/><rect x="6" y="10" width="1" height="1"/><rect x="9" y="7" width="1" height="1"/><rect x="3" y="13" width="1" height="1"/><rect x="3" y="7" width="1" height="1"/><rect x="3" y="10" width="1" height="1"/><path d="M11,15.5A3.51,3.51,0,0,1,9.22,15H2V1h9V8.5a3.91,3.91,0,0,1,.48.05A3,3,0,0,1,12,8.5V0H1V16H12v-.5a3.29,3.29,0,0,1-.54-.05A3.41,3.41,0,0,1,11,15.5Z"/><circle class="cls-1" cx="11" cy="12" r="3.5"/><path d="M11.32,10.11a2,2,0,0,1,1.06.25,1,1,0,0,1,.44.89,1.25,1.25,0,0,1-1.36,1.23h-.17l-.37-.09v.85c0,.51,0,.53.57.58V14H9.67v-.2c.48-.05.52-.08.52-.58V10.91c0-.52-.06-.56-.52-.59v-.21Zm-.4,2a.78.78,0,0,0,.36.07c.32,0,.78-.18.78-1s-.39-.9-.82-.9a.42.42,0,0,0-.26.06c-.05,0-.06.1-.06.22Z"/></svg>