<svg id="Layer_1" data-name="Layer 1" xmlns="http://www.w3.org/2000/svg" viewBox="0 0 16 16"><path d="M12.64,2.75A4.46,4.46,0,0,0,10.25.36a4.43,4.43,0,0,0-3.5,0A4.46,4.46,0,0,0,4.36,2.75,4.32,4.32,0,0,0,4,4.5,4.4,4.4,0,0,0,4.25,6,4.49,4.49,0,0,0,5,7.31L.15,12.15a.48.48,0,0,0,0,.7A.47.47,0,0,0,.5,13a.47.47,0,0,0,.35-.15L5.69,8A4.49,4.49,0,0,0,7,8.75,4.4,4.4,0,0,0,8.5,9a4.32,4.32,0,0,0,1.75-.36,4.46,4.46,0,0,0,2.39-2.39A4.32,4.32,0,0,0,13,4.5,4.32,4.32,0,0,0,12.64,2.75Zm-.92,3.11A3.3,3.3,0,0,1,11,7a3.3,3.3,0,0,1-1.11.75,3.44,3.44,0,0,1-2.72,0A3.3,3.3,0,0,1,6,7a3.3,3.3,0,0,1-.75-1.11A3.28,3.28,0,0,1,5,4.5a3.28,3.28,0,0,1,.28-1.36A3.3,3.3,0,0,1,6,2a3.3,3.3,0,0,1,1.11-.75,3.44,3.44,0,0,1,2.72,0A3.3,3.3,0,0,1,11,2a3.3,3.3,0,0,1,.75,1.11A3.28,3.28,0,0,1,12,4.5,3.28,3.28,0,0,1,11.72,5.86Z"/><path d="M13.5,9.5a1.85,1.85,0,0,1,.78.16,2.06,2.06,0,0,1,1.06,1.06,1.85,1.85,0,0,1,.16.78,1.82,1.82,0,0,1-.13.7,2,2,0,0,1-.39.59h0l-.75.75a.62.62,0,0,0-.15.22A.88.88,0,0,0,14,14a1,1,0,0,0,0,.25v.26H13v-.38a1.77,1.77,0,0,1,.11-.63,1.83,1.83,0,0,1,.28-.49,2.25,2.25,0,0,1,.36-.39l.36-.35a1.72,1.72,0,0,0,.28-.35.81.81,0,0,0,.11-.41,1,1,0,0,0-.08-.39.94.94,0,0,0-.53-.53,1,1,0,0,0-.78,0,.94.94,0,0,0-.53.53,1,1,0,0,0-.08.39h-1a1.85,1.85,0,0,1,.16-.78,2.06,2.06,0,0,1,1.06-1.06A1.85,1.85,0,0,1,13.5,9.5Z"/><rect x="13" y="15" width="1" height="1"/></svg>