<svg id="Layer_1" data-name="Layer 1" xmlns="http://www.w3.org/2000/svg" viewBox="0 0 16 16"><defs><style>.cls-1{fill:none;stroke:#000;stroke-miterlimit:10;}</style></defs><path d="M2.76,9.75A5.84,5.84,0,0,1,4,8.81,6.29,6.29,0,0,1,5.41,8.2,6,6,0,0,1,7,8h5.05L10.78,6.71l.7-.7L14,8.49,11.48,11l-.7-.7L12.05,9H7a4.83,4.83,0,0,0-1.32.18,5.33,5.33,0,0,0-1.2.5,5.14,5.14,0,0,0-1,.78"/><rect class="cls-1" x="9.5" y="0.5" width="5" height="3"/><polyline class="cls-1" points="14.5 7.5 14.5 3.5 9.5 3.5"/><polyline class="cls-1" points="9.5 12.5 14.5 12.5 14.5 7.5"/><rect class="cls-1" x="9.5" y="12.5" width="5" height="3"/><rect class="cls-1" x="1.5" y="0.5" width="5" height="3"/><polyline class="cls-1" points="1.5 7.5 1.5 3.5 6.5 3.5"/><line class="cls-1" x1="1.5" y1="11.5" x2="1.5" y2="7.5"/><polyline class="cls-1" points="6.5 12.5 1.5 12.5 1.5 9.5"/><rect class="cls-1" x="1.5" y="12.5" width="5" height="3"/><line class="cls-1" x1="9.5" y1="4" x2="9.5" y2="7"/><line class="cls-1" x1="6.5" y1="4" x2="6.5" y2="7"/><line class="cls-1" x1="9.5" y1="10" x2="9.5" y2="12"/><line class="cls-1" x1="6.5" y1="10" x2="6.5" y2="12"/><line class="cls-1" x1="2" y1="6.5" x2="6" y2="6.5"/></svg>