<svg id="Layer_1" data-name="Layer 1" xmlns="http://www.w3.org/2000/svg" viewBox="0 0 16 16"><defs><style>.cls-1{fill:none;stroke:#000;stroke-miterlimit:10;}</style></defs><path d="M13,2V1H10a4.15,4.15,0,0,0-1.32.21,3.84,3.84,0,0,0-1.18.63,3.84,3.84,0,0,0-1.18-.63A4.15,4.15,0,0,0,5,1H2V2H0V15H15V2ZM3,2H5a3.19,3.19,0,0,1,1.06.18A3,3,0,0,1,7,2.72V3.5H8V2.72a3,3,0,0,1,.94-.54A3.19,3.19,0,0,1,10,2h2V12H10a4,4,0,0,0-1,.13,3.52,3.52,0,0,0-1,.39v-1H7v1a3.52,3.52,0,0,0-1-.39A4,4,0,0,0,5,12H3ZM1,14V3H2V13H5a2.87,2.87,0,0,1,.67.07,2.81,2.81,0,0,1,.58.19,3.6,3.6,0,0,1,.54.31A6.47,6.47,0,0,1,7.3,14Zm13,0H7.7a6.47,6.47,0,0,1,.51-.43,3.6,3.6,0,0,1,.54-.31,2.81,2.81,0,0,1,.58-.19A2.87,2.87,0,0,1,10,13h3V3h1Z"/><path d="M7.47,3.93A2.82,2.82,0,0,1,8.18,4a3.52,3.52,0,0,1,.63.27,2.76,2.76,0,0,1,1,1,2.7,2.7,0,0,1,.26.63,2.44,2.44,0,0,1,.1.71,2.48,2.48,0,0,1-.21,1,2.83,2.83,0,0,1-.59.85,2,2,0,0,0-.48.69,1.9,1.9,0,0,0-.17.83v1a.72.72,0,0,1-.06.29.91.91,0,0,1-.15.23.83.83,0,0,1-.23.15.72.72,0,0,1-.29.06H7a.67.67,0,0,1-.28-.06.67.67,0,0,1-.38-.38.72.72,0,0,1-.06-.29V10a2.09,2.09,0,0,0-.65-1.52A2.66,2.66,0,0,1,5,7.61a2.48,2.48,0,0,1-.21-1,2.82,2.82,0,0,1,.09-.71,2.72,2.72,0,0,1,.27-.63,2.79,2.79,0,0,1,.42-.54,3.06,3.06,0,0,1,.53-.42A3.61,3.61,0,0,1,6.76,4,2.76,2.76,0,0,1,7.47,3.93Zm.74,5.8a2.36,2.36,0,0,1,.25-.88A2.86,2.86,0,0,1,9,8.11a2.45,2.45,0,0,0,.48-.69,2.1,2.1,0,0,0,0-1.68A2.11,2.11,0,0,0,8.32,4.59a2.1,2.1,0,0,0-1.7,0,2.31,2.31,0,0,0-.69.46,2.34,2.34,0,0,0-.47.69,2.22,2.22,0,0,0-.17.85,2.05,2.05,0,0,0,.17.83,2.26,2.26,0,0,0,.48.69,2.86,2.86,0,0,1,.54.74,2.36,2.36,0,0,1,.25.88ZM8,11.19a.23.23,0,0,0,.17-.08.21.21,0,0,0,.07-.17v-.72H6.74v.72a.24.24,0,0,0,.07.17.25.25,0,0,0,.17.08Z"/><path d="M7.87,5.7A.68.68,0,0,1,8.19,6a.7.7,0,0,1,.11.41A.84.84,0,0,1,8,7.05a1,1,0,0,1-.73.25,1,1,0,0,1-.7-.25.85.85,0,0,1-.28-.64.88.88,0,0,1,.29-.69,1.09,1.09,0,0,1,.75-.26l.35,0h.42a.67.67,0,0,0,.23,0c.05,0,.08,0,.08-.07h.09a.4.4,0,0,1-.08.26.34.34,0,0,1-.25.07h-.1Zm0,.82a1.18,1.18,0,0,0-.18-.69.54.54,0,0,0-.48-.26.5.5,0,0,0-.41.18.79.79,0,0,0-.15.52,1.12,1.12,0,0,0,.19.66.55.55,0,0,0,.47.26A.53.53,0,0,0,7.78,7,.76.76,0,0,0,7.92,6.52Z"/><line class="cls-1" x1="7.41" y1="7.8" x2="7.41" y2="9.73"/></svg>