<svg id="Layer_1" data-name="Layer 1" xmlns="http://www.w3.org/2000/svg" viewBox="0 0 16 16"><path d="M16,0V8a2.54,2.54,0,0,0-.07-.65,2.41,2.41,0,0,0-.2-.53,3.37,3.37,0,0,0-.31-.46c-.12-.16-.26-.32-.42-.5V1H1v9H3v2.09L5.09,10h3a3.16,3.16,0,0,0,.17.52q.1.24.24.48h-3L2,14.5V11H0V0ZM13.77,11.42a4,4,0,0,1,.92.63,4,4,0,0,1,.7.84A4,4,0,0,1,16,15H15a2.83,2.83,0,0,0-.24-1.16,2.94,2.94,0,0,0-1.6-1.6,2.92,2.92,0,0,0-2.32,0,2.94,2.94,0,0,0-1.6,1.6A2.83,2.83,0,0,0,9,15H8a4,4,0,0,1,.61-2.11,4,4,0,0,1,.7-.84,4,4,0,0,1,.92-.63,2.91,2.91,0,0,1-.91-1.06,3,3,0,0,1-.09-2.52,3.07,3.07,0,0,1,.65-1,3.15,3.15,0,0,1,.95-.65,3.07,3.07,0,0,1,2.33,0,3.07,3.07,0,0,1,1.61,1.61,3,3,0,0,1-.09,2.52A2.91,2.91,0,0,1,13.77,11.42ZM12,11a2,2,0,0,0,.78-.15,2.13,2.13,0,0,0,.63-.43A2,2,0,0,0,14,9a1.83,1.83,0,0,0-.16-.77,1.76,1.76,0,0,0-.43-.64,2.13,2.13,0,0,0-.63-.43,2,2,0,0,0-1.56,0,2.13,2.13,0,0,0-.63.43,1.76,1.76,0,0,0-.43.64,2,2,0,0,0,0,1.55,1.85,1.85,0,0,0,.43.64,2.13,2.13,0,0,0,.63.43A2,2,0,0,0,12,11Z"/></svg>