<svg id="Layer_1" data-name="Layer 1" xmlns="http://www.w3.org/2000/svg" viewBox="0 0 16 16"><path d="M14.6,1.58a1.15,1.15,0,0,0-.28-.42,1.39,1.39,0,0,0-.43-.28,1.3,1.3,0,0,0-.52-.1,1.44,1.44,0,0,0-.51.09,1.25,1.25,0,0,0-.44.29L7.63,6,7,8.47l2.52-.63,4.8-4.79a1.27,1.27,0,0,0,.28-.44,1.25,1.25,0,0,0,.1-.51A1.3,1.3,0,0,0,14.6,1.58Zm-.89.86L9.08,7.06l-.9.23.22-.9L13,1.76a.54.54,0,0,1,.16-.1.48.48,0,0,1,.18,0,.49.49,0,0,1,.34.13.48.48,0,0,1,0,.68Z"/><path d="M2.82,9V8.87c.22,0,.24-.06.2-.18s-.11-.3-.18-.5H2.13L2,8.6c-.07.21,0,.24.24.27V9H1.46V8.87c.21,0,.26,0,.38-.34L2.52,6.8l.11,0c.2.56.43,1.18.64,1.75.1.29.13.32.37.34V9ZM2.49,7.21c-.1.28-.21.58-.31.84h.61Z"/><path d="M4.4,7.51l.14,0a.67.67,0,0,1,.65.7A.83.83,0,0,1,4.38,9a1.27,1.27,0,0,1-.51-.11V7c0-.2,0-.22-.22-.24V6.71a3.09,3.09,0,0,0,.48-.11v1ZM4.13,8.58a.23.23,0,0,0,0,.12.37.37,0,0,0,.32.18c.29,0,.43-.25.43-.62a.53.53,0,0,0-.5-.6.54.54,0,0,0-.27.07Z"/><path d="M6.68,8.67A.76.76,0,0,1,6.12,9a.67.67,0,0,1-.67-.69.77.77,0,0,1,.34-.64.83.83,0,0,1,.5-.19.41.41,0,0,1,.3.09.1.1,0,0,1,.06.09.18.18,0,0,1-.12.15l-.06,0a.53.53,0,0,0-.34-.14c-.21,0-.41.18-.41.53a.52.52,0,0,0,.91.43Z"/><polygon points="10 7.36 9.52 7.84 9 7.97 9 10 1 10 1 6 7.62 6 7.63 5.95 8.58 5 0 5 0 11 16 11 16 10 10 10 10 7.36"/><polygon points="12.36 5 11.36 6 16 6 16 5 12.36 5"/><path d="M16,16H0V10H16ZM9,11H1v4H9Zm7,0H10v4h6Z"/></svg>