<svg id="Layer_1" data-name="Layer 1" xmlns="http://www.w3.org/2000/svg" viewBox="0 0 16 16"><polygon points="4.12 6.68 0.99 9.66 0.99 3.17 4.12 6.68"/><path d="M9.09,10.64h.5V9H9.2a2.07,2.07,0,0,1-.33,1.13,1.36,1.36,0,0,1-1,.29H3l4.26-4.1V6.07l-4-4.37H6.39a2.92,2.92,0,0,1,2,.6,2.51,2.51,0,0,1,.8,1.78h.4v-3H1v.38L5.77,6.73,1,11.33V12h8.1Z"/><path d="M10.37,10.86V9.4a2.06,2.06,0,0,1,.15-.79A1.92,1.92,0,0,1,10.94,8a2,2,0,0,1,.64-.44,2,2,0,0,1,1.58,0A2,2,0,0,1,13.8,8a1.92,1.92,0,0,1,.42.65,2.06,2.06,0,0,1,.15.79v.68h-.5V9.4a1.73,1.73,0,0,0-.11-.6,1.6,1.6,0,0,0-.32-.49A1.43,1.43,0,0,0,13,8a1.56,1.56,0,0,0-1.2,0,1.43,1.43,0,0,0-.47.33A1.6,1.6,0,0,0,11,8.8a1.73,1.73,0,0,0-.11.6v1.46h4.5v4.5h-6v-4.5Zm-.5,4h5v-3.5h-5Z"/></svg>