<svg id="Layer_1" data-name="Layer 1" xmlns="http://www.w3.org/2000/svg" viewBox="0 0 16 16"><polygon points="4.74 7.03 1.04 10.56 1.04 2.9 4.74 7.03"/><path d="M9.1,12.18a3.12,3.12,0,0,1,.3-.73,2.81,2.81,0,0,1,.48-.61,2.26,2.26,0,0,1,.29-.23V9.44H9.75a2.06,2.06,0,0,1-.35,1.21,1.5,1.5,0,0,1-1.09.3H3.15L7.68,6.59V6.34L3.47,1.7h3.3a3.14,3.14,0,0,1,2.1.63,2.75,2.75,0,0,1,.85,1.9h.42V1.05H1v.4L6.12,7,1,11.93v.71H9A2.22,2.22,0,0,1,9.1,12.18Z"/><path d="M14.47,12.3a2.58,2.58,0,0,0-.66-1.14,2.54,2.54,0,0,0-.52-.41A2.57,2.57,0,0,0,12,10.4a2.54,2.54,0,0,0-.68.09,2.62,2.62,0,0,0-.62.26,2.82,2.82,0,0,0-.93.93,2.62,2.62,0,0,0-.26.62A2.54,2.54,0,0,0,9.4,13a2.57,2.57,0,0,0,.35,1.31,2.54,2.54,0,0,0,.41.52,2.58,2.58,0,0,0,1.14.66,2.54,2.54,0,0,0,.68.09,2.61,2.61,0,0,0,.69-.09,2.26,2.26,0,0,0,.62-.26,2.54,2.54,0,0,0,.92-.92,2.26,2.26,0,0,0,.26-.62,2.61,2.61,0,0,0,.1-.69A2.54,2.54,0,0,0,14.47,12.3Zm-.65,1.19a2,2,0,0,1-.19.46,2.07,2.07,0,0,1-.68.68,2,2,0,0,1-.46.19,1.7,1.7,0,0,1-.51.07,1.68,1.68,0,0,1-.5-.07,1.71,1.71,0,0,1-.46-.19,1.85,1.85,0,0,1-.39-.3,1.82,1.82,0,0,1-.29-.38,2.07,2.07,0,0,1-.2-.46,1.86,1.86,0,0,1,0-1,1.73,1.73,0,0,1,.2-.46,2.19,2.19,0,0,1,.29-.39,2.88,2.88,0,0,1,.39-.3,2.11,2.11,0,0,1,.46-.19,1.86,1.86,0,0,1,1,0,2.62,2.62,0,0,1,.46.19,2.28,2.28,0,0,1,.38.3,1.85,1.85,0,0,1,.3.39,1.71,1.71,0,0,1,.19.46,1.68,1.68,0,0,1,.07.5A1.7,1.7,0,0,1,13.82,13.49Z"/><path d="M12.31,12a.33.33,0,0,1-.65,0,.33.33,0,1,1,.65,0Z"/><rect x="11.72" y="12.61" width="0.53" height="1.94"/></svg>