<svg id="Layer_1" data-name="Layer 1" xmlns="http://www.w3.org/2000/svg" viewBox="0 0 16 16"><defs><style>.cls-1{fill:none;stroke:#000;stroke-miterlimit:10;}</style></defs><rect class="cls-1" x="0.54" y="0.48" width="6" height="6"/><rect class="cls-1" x="8.54" y="0.48" width="6" height="6"/><rect class="cls-1" x="0.54" y="8.48" width="6" height="6"/><line class="cls-1" x1="2.04" y1="3.48" x2="3.04" y2="3.48"/><line class="cls-1" x1="3.04" y1="1.48" x2="4.04" y2="1.48"/><line class="cls-1" x1="4.04" y1="4.48" x2="5.04" y2="4.48"/><polyline class="cls-1" points="8.98 5.97 10.54 3.34 11.54 4.48 13.55 1.69"/><line class="cls-1" x1="2.54" y1="10.98" x2="2.54" y2="13.98"/><line class="cls-1" x1="4.54" y1="9.98" x2="4.54" y2="13.98"/><polyline class="cls-1" points="13.97 11.07 11.59 11.91 12.15 14.44"/><path class="cls-1" d="M11.59,11.91s4.14,1.42,3,3.93"/><polyline class="cls-1" points="14.54 9.5 14.54 8.48 8.54 8.48 8.54 14.48 9.5 14.48"/></svg>