<svg id="Layer_1" data-name="Layer 1" xmlns="http://www.w3.org/2000/svg" viewBox="0 0 16 16"><defs><style>.cls-1{fill:none;stroke:#000;stroke-miterlimit:10;}</style></defs><path d="M9.62,1.37A1.15,1.15,0,0,0,9.34,1,1.52,1.52,0,0,0,8.91.67a1.3,1.3,0,0,0-.52-.1,1.44,1.44,0,0,0-.51.09A1.25,1.25,0,0,0,7.44,1L2.65,5.74,2,8.26l2.52-.63,4.8-4.79a1.27,1.27,0,0,0,.28-.44,1.25,1.25,0,0,0,.1-.51A1.3,1.3,0,0,0,9.62,1.37Zm-.89.86L4.1,6.85l-.9.23.22-.9L8.05,1.55a.65.65,0,0,1,.15-.1.58.58,0,0,1,.19,0,.51.51,0,0,1,.34.13.46.46,0,0,1,.14.34A.46.46,0,0,1,8.73,2.23Z"/><path d="M7.39,6l-1,1H8V9H5V8L4,8.26V9H1V7H2V6H0v9H1V13H4v2H5V13H8v2H9V13h3v2h1V13h3v2h0V6ZM4,12H1V10H4Zm4,0H5V10H8Zm4,0H9V10h3Zm0-3H9V7h3Zm4,3H13V10h3Zm0-3H13V7h3Z"/><line class="cls-1" y1="15.5" x2="16" y2="15.5"/></svg>