<svg id="Layer_1" data-name="Layer 1" xmlns="http://www.w3.org/2000/svg" viewBox="0 0 16 16"><path d="M11.06,12a2,2,0,0,1,.76.18,1.88,1.88,0,0,1,.61.43A2,2,0,0,1,13,14a1.85,1.85,0,0,1-.16.78,2.13,2.13,0,0,1-.43.63,2.06,2.06,0,0,1-.64.43,2,2,0,0,1-1.55,0,2.06,2.06,0,0,1-1.06-1.06A1.85,1.85,0,0,1,9,14a1.89,1.89,0,0,1,.29-1,2,2,0,0,1,.77-.74L8,8.09,5.91,12.22a1.83,1.83,0,0,1,.45.32A1.53,1.53,0,0,1,6.7,13a1.86,1.86,0,0,1,.22.5A1.91,1.91,0,0,1,7,14a1.85,1.85,0,0,1-.16.78,2.13,2.13,0,0,1-.43.63,2.06,2.06,0,0,1-.64.43,2,2,0,0,1-1.55,0,2.06,2.06,0,0,1-1.06-1.06,2,2,0,0,1,0-1.53,2.05,2.05,0,0,1,.4-.63,2.17,2.17,0,0,1,.61-.43A2.07,2.07,0,0,1,4.91,12L7.42,7,4.77,1.66,5.23.29,8,5.82,10.74.29l.46,1.37L8.55,7ZM5,15a1,1,0,0,0,.39-.08.94.94,0,0,0,.53-.53,1,1,0,0,0,0-.78.94.94,0,0,0-.53-.53,1,1,0,0,0-.78,0,.94.94,0,0,0-.53.53,1,1,0,0,0,0,.78.94.94,0,0,0,.53.53A1,1,0,0,0,5,15Zm6,0a1,1,0,0,0,.39-.08.94.94,0,0,0,.53-.53,1,1,0,0,0,0-.78.94.94,0,0,0-.53-.53,1,1,0,0,0-.78,0,.94.94,0,0,0-.53.53,1,1,0,0,0,0,.78.94.94,0,0,0,.53.53A1,1,0,0,0,11,15Z"/></svg>