<svg id="Layer_1" data-name="Layer 1" xmlns="http://www.w3.org/2000/svg" viewBox="0 0 16 16"><defs><style>.cls-1{fill:none;stroke:#000;stroke-miterlimit:10;}</style></defs><path d="M15,15.45a.52.52,0,0,1-.69-.19L9.46,6.81V8.49H9.08V6.19l-1.15,2L7.6,8,8.75,6l-2,1.15-.18-.32,2-1.15H6.27V5.3h2.3l-2-1.15.19-.33L8.75,5,7.6,3l.33-.18,1.15,2V2.49h.38v2.3l1.14-2,.33.19L9.78,5l2-1.14.19.32L10,5.3h2.3v.38H10l2,1.14-.19.33-1.45-.84,4.88,8.45A.51.51,0,0,1,15,15.45ZM9.49,5A.5.5,0,1,0,9,5.9.5.5,0,0,0,9.49,5Z"/><rect x="13" y="7" width="2" height="2"/><rect x="3" y="5" width="2" height="2"/><rect x="9" width="2" height="2"/><rect x="1" y="12" width="2" height="2"/><line class="cls-1" x1="1.16" y1="10.88" x2="6.16" y2="7.54"/><line class="cls-1" x1="12.32" y1="3.44" x2="14.86" y2="1.75"/></svg>