<svg id="Layer_1" data-name="Layer 1" xmlns="http://www.w3.org/2000/svg" viewBox="0 0 16 16"><path d="M15.88,7.44A1.51,1.51,0,0,0,15.55,7a1.56,1.56,0,0,0-.5-.33,1.74,1.74,0,0,0-.61-.11,1.52,1.52,0,0,0-.6.11,1.45,1.45,0,0,0-.5.33l-5.61,5.6L7,15.49,10,14.76l5.6-5.6a1.72,1.72,0,0,0,.33-.51,1.53,1.53,0,0,0,.12-.6A1.58,1.58,0,0,0,15.88,7.44Zm-1,1-5.41,5.4-1,.27.26-1.06,5.41-5.4a.44.44,0,0,1,.18-.12.66.66,0,0,1,.21,0,.57.57,0,0,1,.4.15.5.5,0,0,1,.16.39A.54.54,0,0,1,14.84,8.45Z"/><path d="M6.62,12H5V9H8v1.27l1-1V9h.28l1-1H9V5h3V6.29L12.34,6a1.45,1.45,0,0,1,.5-.33.9.9,0,0,1,.16,0V0H0V13H6.37ZM9,1h3V4H9ZM5,1H8V4H5ZM5,5H8V8H5ZM4,12H1V9H4ZM4,8H1V5H4ZM4,4H1V1H4Z"/></svg>