<svg id="Layer_1" data-name="Layer 1" xmlns="http://www.w3.org/2000/svg" viewBox="0 0 16 16"><defs><style>.cls-1{fill:none;stroke:#000;stroke-miterlimit:10;}</style></defs><rect x="4" y="1" width="2" height="2"/><rect x="2" y="6" width="2" height="2"/><rect x="13" y="8" width="2" height="2"/><rect x="9" y="13" width="2" height="2"/><path d="M14.88,15.69a.49.49,0,0,1-.68-.18L9.32,7.06V8.73H8.94V6.43l-1.15,2-.33-.19,1.15-2-2,1.15-.19-.32,2-1.15H6.13V5.54h2.3l-2-1.15.19-.32,2,1.15-1.15-2L7.8,3,9,5V2.73h.38V5l1.15-2,.33.19-1.15,2,2-1.15.19.32-2,1.15h2.3v.38H9.84l2,1.15-.19.32-1.45-.83L15.07,15A.51.51,0,0,1,14.88,15.69ZM9.35,5.28a.5.5,0,1,0-.5.86.5.5,0,1,0,.5-.86Z"/><path class="cls-1" d="M1,11.12A6,6,0,0,0,6.92,9.24"/><path class="cls-1" d="M1,14.08s5.89,1,8.6-3.24"/><path class="cls-1" d="M12.19,3.07C13.46,1.45,14.73,2,14.73,2"/><path class="cls-1" d="M13.19,6.81C14.46,4.37,15.73,5,15.73,5"/></svg>