<svg id="Layer_1" data-name="Layer 1" xmlns="http://www.w3.org/2000/svg" viewBox="0 0 16 16"><path d="M12.5,2.33a1.48,1.48,0,0,1,.59.12,1.4,1.4,0,0,1,.47.32,1.35,1.35,0,0,1,.32.48,1.4,1.4,0,0,1,.12.58v7a4.32,4.32,0,0,1-.36,1.75,4.39,4.39,0,0,1-1,1.43,4.58,4.58,0,0,1-1.43,1,4.48,4.48,0,0,1-1.75.35,5.09,5.09,0,0,1-2.1-.43,5.63,5.63,0,0,1-1.76-1.22L2,10a1.72,1.72,0,0,1-.33-.51,1.57,1.57,0,0,1-.12-.6,1.54,1.54,0,0,1,.12-.61A1.77,1.77,0,0,1,2,7.78a1.56,1.56,0,0,1,.5-.33,1.56,1.56,0,0,1,1.2,0,1.85,1.85,0,0,1,.5.34L5,8.62V2.83a1.4,1.4,0,0,1,.12-.58,1.35,1.35,0,0,1,.32-.48,1.4,1.4,0,0,1,.47-.32,1.48,1.48,0,0,1,.59-.12,1.46,1.46,0,0,1,.55.11A1.38,1.38,0,0,1,7.26,1,1.42,1.42,0,0,1,7.59.64,1.61,1.61,0,0,1,8,.41a1.48,1.48,0,0,1,1,0,1.61,1.61,0,0,1,.43.23A1.42,1.42,0,0,1,9.74,1a1.38,1.38,0,0,1,.21.44,1.46,1.46,0,0,1,.55-.11,1.51,1.51,0,0,1,.48.08,1.61,1.61,0,0,1,.43.23,1.42,1.42,0,0,1,.33.36,1.38,1.38,0,0,1,.21.44A1.46,1.46,0,0,1,12.5,2.33Zm.5,1.5a.49.49,0,0,0-.15-.35.48.48,0,0,0-.7,0,.49.49,0,0,0-.15.35v3.5a.5.5,0,0,1-1,0V2.83a.49.49,0,0,0-.15-.35.48.48,0,0,0-.7,0,.49.49,0,0,0-.15.35v4a.5.5,0,0,1-1,0v-5a.49.49,0,0,0-.15-.35.48.48,0,0,0-.7,0A.49.49,0,0,0,8,1.83v5a.5.5,0,0,1-1,0v-4a.49.49,0,0,0-.15-.35.48.48,0,0,0-.7,0A.49.49,0,0,0,6,2.83V9a.72.72,0,0,1-.07.33.8.8,0,0,1-.18.27.64.64,0,0,1-.27.18.71.71,0,0,1-.32.07,1,1,0,0,1-.34-.06.87.87,0,0,1-.28-.19L3.45,8.5a.53.53,0,0,0-.78,0,.52.52,0,0,0-.17.39.53.53,0,0,0,.16.39L6.35,13a4.74,4.74,0,0,0,1.44,1,4.18,4.18,0,0,0,1.71.35,3.51,3.51,0,0,0,2.47-1,3.3,3.3,0,0,0,.75-1.11A3.25,3.25,0,0,0,13,10.83Z"/></svg>