<svg id="Layer_1" data-name="Layer 1" xmlns="http://www.w3.org/2000/svg" viewBox="0 0 16 16"><defs><style>.cls-1{fill:none;stroke:#000;stroke-miterlimit:10;}</style></defs><path d="M14.06,12.11a1.33,1.33,0,0,1-.23.38,1.1,1.1,0,0,1-.34.26,1.13,1.13,0,0,1-.45.09,1,1,0,0,1-.43-.09,1,1,0,0,1-.36-.25,1.13,1.13,0,0,1-.24-.36,1,1,0,0,1-.09-.44,1.15,1.15,0,0,1,.15-.56l1-1.7L14,11.06a1.28,1.28,0,0,1,.16.6A1.33,1.33,0,0,1,14.06,12.11Z"/><rect class="cls-1" x="3.37" y="2.55" width="7" height="9" transform="translate(4.2 16.52) rotate(-120)"/><polygon points="4.72 11.85 12.52 7.35 2.25 7.57 4.72 11.85"/><line class="cls-1" x1="8.37" y1="6.05" x2="8.37" y2="0.05"/><polyline class="cls-1" points="2.5 12 2.5 15.5 15.5 15.5 15.5 0.5 11 0.5"/></svg>