<svg id="Layer_1" data-name="Layer 1" xmlns="http://www.w3.org/2000/svg" viewBox="0 0 16 16"><path d="M16,8a7.86,7.86,0,0,1-.29,2.12,8.39,8.39,0,0,1-.82,2,8.28,8.28,0,0,1-1.3,1.66A7.8,7.8,0,0,1,11.86,15H14v1H10V12h1v2.32a6.85,6.85,0,0,0,1.65-1.09,7.43,7.43,0,0,0,1.26-1.49A7,7,0,0,0,14.72,10a7,7,0,0,0,0-3.82A7.06,7.06,0,0,0,14,4.47,6.87,6.87,0,0,0,11.53,2a7.06,7.06,0,0,0-1.67-.71,7,7,0,0,0-3.72,0A7.06,7.06,0,0,0,4.47,2,6.87,6.87,0,0,0,2,4.47a7.06,7.06,0,0,0-.71,1.67A6.79,6.79,0,0,0,1,8H0A7.49,7.49,0,0,1,.29,5.88,7.78,7.78,0,0,1,1.09,4,8,8,0,0,1,4,1.09a8,8,0,0,1,6.16-.8,7.78,7.78,0,0,1,1.92.8A8,8,0,0,1,14.91,4a7.78,7.78,0,0,1,.8,1.92A7.86,7.86,0,0,1,16,8ZM8,6a1.85,1.85,0,0,1,.78.16A2.06,2.06,0,0,1,9.84,7.22a2,2,0,0,1,0,1.56A2.06,2.06,0,0,1,8.78,9.84a2,2,0,0,1-1.56,0A2.06,2.06,0,0,1,6.16,8.78a2,2,0,0,1,0-1.56A2.06,2.06,0,0,1,7.22,6.16,1.85,1.85,0,0,1,8,6ZM8,9a1,1,0,0,0,.39-.08.94.94,0,0,0,.53-.53,1,1,0,0,0,0-.78.94.94,0,0,0-.53-.53,1,1,0,0,0-.78,0,.94.94,0,0,0-.53.53,1,1,0,0,0,0,.78.94.94,0,0,0,.53.53A1,1,0,0,0,8,9Z"/></svg>