<svg id="Layer_1" data-name="Layer 1" xmlns="http://www.w3.org/2000/svg" viewBox="0 0 16 16"><path d="M5.83,12h1l-1,1H2.12L.83,11.71V2A1,1,0,0,1,.9,1.61a1.21,1.21,0,0,1,.22-.32,1,1,0,0,1,.32-.21A1,1,0,0,1,1.83,1h10a1,1,0,0,1,.39.08,1,1,0,0,1,.31.21,1,1,0,0,1,.3.71V6l-1,1V2h-1V7h-8V2h-1v9.29l.71.71h.29V8h7V9l-1,1V9h-5v3h1V10h1Zm-2-6h6V2h-6ZM14.26,7a1.59,1.59,0,0,1,.62.12,1.49,1.49,0,0,1,.49.32,1.72,1.72,0,0,1,.34.49,1.59,1.59,0,0,1,.12.62,1.52,1.52,0,0,1-.12.59,1.57,1.57,0,0,1-.34.51l-5.6,5.6L6.83,16,7.56,13l5.6-5.59a1.31,1.31,0,0,1,.51-.34A1.71,1.71,0,0,1,14.26,7ZM14.66,9a.57.57,0,0,0,0-.8A.58.58,0,0,0,14.26,8a.52.52,0,0,0-.21,0,.58.58,0,0,0-.18.11l-5.4,5.4L8.2,14.61l1.06-.27Z"/></svg>