<svg id="Layer_1" data-name="Layer 1" xmlns="http://www.w3.org/2000/svg" viewBox="0 0 16 16"><rect x="11.75" y="11.04" width="0.5" height="2.5"/><path d="M15.62,10.79a3.73,3.73,0,0,0-.38-.89,3.37,3.37,0,0,0-.59-.76A3.57,3.57,0,0,0,14,8.63V1H1V14H9a3.64,3.64,0,0,0,.35.45,3.64,3.64,0,0,0,.76.58,3.73,3.73,0,0,0,.89.38,3.91,3.91,0,0,0,2,0,3.73,3.73,0,0,0,.89-.38,3.64,3.64,0,0,0,.76-.58,3.88,3.88,0,0,0,.59-.76,4,4,0,0,0,.38-.9,3.91,3.91,0,0,0,0-2ZM10,2h3V5H10Zm3,4V8.17h0a3.91,3.91,0,0,0-2,0,3.73,3.73,0,0,0-.89.38L10,8.63V6ZM6,2H9V5H6ZM6,6H9V9H6ZM5,13H2V10H5ZM5,9H2V6H5ZM5,5H2V2H5Zm1,5H8.7l0,0a3.86,3.86,0,0,0-.34.81,3.91,3.91,0,0,0,0,2c0,.07.07.14.09.21H6Zm2.61,3.32v0Zm6.52-.67a3,3,0,0,1-.33.78,3.58,3.58,0,0,1-.5.66,3.24,3.24,0,0,1-.66.51,3,3,0,0,1-.78.32A3.08,3.08,0,0,1,12,15a3,3,0,0,1-.86-.12,3,3,0,0,1-.78-.32,3.24,3.24,0,0,1-.66-.51,3.58,3.58,0,0,1-.5-.66,3.29,3.29,0,0,1-.45-1.64,3.08,3.08,0,0,1,.12-.86,3,3,0,0,1,.33-.78A3,3,0,0,1,10.36,9a3.39,3.39,0,0,1,.78-.33A3,3,0,0,1,12,8.54a3.08,3.08,0,0,1,.86.12,3.39,3.39,0,0,1,.78.33,3,3,0,0,1,1.16,1.16,3,3,0,0,1,.33.78,3.08,3.08,0,0,1,.12.86A3,3,0,0,1,15.13,12.65Z"/><rect x="11.75" y="10.04" width="0.5" height="0.5"/></svg>