<svg id="Layer_1" data-name="Layer 1" xmlns="http://www.w3.org/2000/svg" viewBox="0 0 16 16"><path d="M4,7.8a3.92,3.92,0,0,1,.76-.58,3.58,3.58,0,0,1,.9-.38,3.72,3.72,0,0,1,1-.14H9.86l-.8-.8.44-.44L11.05,7,9.5,8.57l-.44-.44.8-.8H6.69a3.26,3.26,0,0,0-.83.11,3.14,3.14,0,0,0-.75.32,3,3,0,0,0-.63.49"/><path d="M13,2V1H10a4.25,4.25,0,0,0-1.33.21,3.91,3.91,0,0,0-1.17.63,3.84,3.84,0,0,0-1.18-.63A4.19,4.19,0,0,0,5,1H2V2H0V15H15V2ZM3,2H5a3.23,3.23,0,0,1,1.06.18A3.06,3.06,0,0,1,7,2.76V4.54H8V2.76a2.9,2.9,0,0,1,.93-.54A3.25,3.25,0,0,1,10,2h2V12H10a4.06,4.06,0,0,0-1,.13,3.77,3.77,0,0,0-1,.38v-3H7v3a3.84,3.84,0,0,0-1-.38A4,4,0,0,0,5,12H3ZM1,14V3H2V13H5a3.37,3.37,0,0,1,.66.06,2.73,2.73,0,0,1,.59.2,5,5,0,0,1,.54.31,3.94,3.94,0,0,1,.5.43Zm13,0H7.69a4.85,4.85,0,0,1,.51-.43,4.07,4.07,0,0,1,.53-.31,2.93,2.93,0,0,1,.59-.2A3.48,3.48,0,0,1,10,13h3V3h1Z"/></svg>