<svg id="Layer_1" data-name="Layer 1" xmlns="http://www.w3.org/2000/svg" viewBox="0 0 16 16"><path d="M15.84,14.89a4.06,4.06,0,0,0-.44-1,4,4,0,0,0-.7-.84,4.31,4.31,0,0,0-.92-.64,2.87,2.87,0,0,0,.9-1.06,3,3,0,0,0,.09-2.51,3.07,3.07,0,0,0-1.61-1.61,3.07,3.07,0,0,0-2.33,0,3.15,3.15,0,0,0-.95.65,3.07,3.07,0,0,0-.65,1,3,3,0,0,0,.09,2.51,2.87,2.87,0,0,0,.9,1.06,4.31,4.31,0,0,0-.92.64,4,4,0,0,0-.7.84,4.06,4.06,0,0,0-.44,1A3.77,3.77,0,0,0,8,16H9a3,3,0,0,1,.23-1.16,3.07,3.07,0,0,1,.65-1,3.15,3.15,0,0,1,.95-.65,3.07,3.07,0,0,1,2.33,0,3.07,3.07,0,0,1,1.61,1.61A3,3,0,0,1,15,16h1A3.77,3.77,0,0,0,15.84,14.89Zm-3.06-3.05a2,2,0,0,1-1.56,0,2.06,2.06,0,0,1-1.06-1.06,2,2,0,0,1,0-1.56,2.06,2.06,0,0,1,1.06-1.06,2,2,0,0,1,1.56,0,2.06,2.06,0,0,1,1.06,1.06,2,2,0,0,1,0,1.56,2.06,2.06,0,0,1-1.06,1.06Z"/><path d="M8.25,11H2V4H14V6.67a4.18,4.18,0,0,1,1,.87V2H1V12H8.67A4.23,4.23,0,0,1,8.25,11Z"/></svg>