<svg id="Layer_1" data-name="Layer 1" xmlns="http://www.w3.org/2000/svg" viewBox="0 0 16 16"><path d="M13,2V1H10a4.15,4.15,0,0,0-1.32.21,3.84,3.84,0,0,0-1.18.63,3.84,3.84,0,0,0-1.18-.63A4.15,4.15,0,0,0,5,1H2V2H0V15H15V2ZM3,2H5a3.19,3.19,0,0,1,1.06.18A3,3,0,0,1,7,2.72V3.5H8V2.72a3,3,0,0,1,.94-.54A3.19,3.19,0,0,1,10,2h2V12H10a4,4,0,0,0-1,.13,3.52,3.52,0,0,0-1,.39v-1H7v1a3.52,3.52,0,0,0-1-.39A4,4,0,0,0,5,12H3ZM1,14V3H2V13H5a2.87,2.87,0,0,1,.67.07,2.81,2.81,0,0,1,.58.19,3.6,3.6,0,0,1,.54.31A6.47,6.47,0,0,1,7.3,14Zm13,0H7.7a6.47,6.47,0,0,1,.51-.43,3.6,3.6,0,0,1,.54-.31,2.81,2.81,0,0,1,.58-.19A2.87,2.87,0,0,1,10,13h3V3h1Z"/><path d="M10.71,10.46a3.52,3.52,0,0,0-.37-.84,3.27,3.27,0,0,0-.59-.7A3.23,3.23,0,0,0,9,8.38a2.51,2.51,0,0,0,.29-3.8A2.5,2.5,0,0,0,8.46,4a2.28,2.28,0,0,0-1-.2,2.29,2.29,0,0,0-1,.2A2.53,2.53,0,0,0,5.17,5.38a2.32,2.32,0,0,0-.2,1,2.44,2.44,0,0,0,.27,1.13A2.57,2.57,0,0,0,6,8.38a3.44,3.44,0,0,0-.77.54,3.59,3.59,0,0,0-.59.7,3.52,3.52,0,0,0-.37.84,3.22,3.22,0,0,0-.13.93H5a2.36,2.36,0,0,1,.2-1,2.57,2.57,0,0,1,.54-.8,2.49,2.49,0,0,1,2.75-.54,2.5,2.5,0,0,1,.81.54,2.57,2.57,0,0,1,.54.8,2.52,2.52,0,0,1,.19,1h.84A3.22,3.22,0,0,0,10.71,10.46ZM8.14,7.9A1.57,1.57,0,0,1,7.49,8a1.62,1.62,0,0,1-.66-.13,1.47,1.47,0,0,1-.53-.36A1.77,1.77,0,0,1,5.94,7a1.57,1.57,0,0,1-.13-.65,1.62,1.62,0,0,1,.13-.66,1.71,1.71,0,0,1,.89-.89,1.62,1.62,0,0,1,.66-.13,1.57,1.57,0,0,1,.65.13,1.77,1.77,0,0,1,.53.36A1.47,1.47,0,0,1,9,5.7a1.62,1.62,0,0,1,.13.66A1.57,1.57,0,0,1,9,7a1.71,1.71,0,0,1-.89.89Z"/></svg>