<svg id="Layer_1" data-name="Layer 1" xmlns="http://www.w3.org/2000/svg" viewBox="0 0 16 16"><path d="M14,6V16H6V15H0V2H4a1.83,1.83,0,0,1,.16-.77A2.06,2.06,0,0,1,4.59.59,2.13,2.13,0,0,1,5.22.16a2,2,0,0,1,1.55,0A2,2,0,0,1,7.84,1.23,1.83,1.83,0,0,1,8,2h4V6ZM6,14V6h5V3H10V5H2V3H1V14ZM3,3V4H9V3H7V2.74a2.62,2.62,0,0,0,0-.28,4.71,4.71,0,0,0,0-.53,1.42,1.42,0,0,0-.13-.47.82.82,0,0,0-.31-.33A.94.94,0,0,0,6,1a.94.94,0,0,0-.54.13.82.82,0,0,0-.31.33A1.42,1.42,0,0,0,5,1.93a4.71,4.71,0,0,0,0,.53,2.62,2.62,0,0,0,0,.28V3ZM13,7H7v8h6Z"/></svg>