<svg id="Layer_1" data-name="Layer 1" xmlns="http://www.w3.org/2000/svg" viewBox="0 0 78.9 100.13"><defs><style>.cls-1{fill:#00a3e1;}.cls-2{fill:none;}.cls-3{fill:#2dccd3;}.cls-4{fill:#ff8200;}.cls-5{fill:#97d700;}.cls-6{fill:#7e93a7;}</style></defs><path class="cls-1" d="M104,41h-3.63Q99.4,30.13,93,24.65T74.89,19.17H46.38L82.74,59.24v2.22L43.64,99.08H88.22q7,0,9.41-2.63c1.63-1.75,2.63-5.22,3-10.4h3.63v27.62H25.39v-6.12L69.26,65.31,25.42,17V13.54H104Z" transform="translate(-25.39 -13.54)"/><polygon class="cls-2" points="24.85 46.04 24.85 54.09 24.87 54.07 24.87 46.06 24.85 46.04"/><polygon class="cls-2" points="10.08 29.52 10.08 68.17 10.1 68.16 10.1 29.54 10.08 29.52"/><polygon class="cls-2" points="3.87 22.57 3.87 74.1 3.88 74.08 3.88 22.59 3.87 22.57"/><polygon class="cls-2" points="12.42 32.13 12.42 65.94 12.43 65.93 12.43 32.15 12.42 32.13"/><polygon class="cls-2" points="6.2 25.18 6.2 71.87 6.22 71.86 6.22 25.2 6.2 25.18"/><polygon class="cls-2" points="22.52 43.43 22.52 56.31 22.53 56.3 22.53 43.45 22.52 43.43"/><polygon class="cls-2" points="18.64 39.09 18.64 60.02 18.65 60 18.65 39.1 18.64 39.09"/><polygon class="cls-2" points="16.3 36.48 16.3 62.24 16.32 62.23 16.32 36.49 16.3 36.48"/><polygon class="cls-1" points="1 19.78 1 79.32 4.87 75.64 4.87 24.11 1 19.78"/><polygon class="cls-3" points="7.22 26.73 7.22 73.4 11.08 69.71 11.08 31.06 7.22 26.73"/><polygon class="cls-4" points="13.43 33.69 13.43 67.47 17.3 63.78 17.3 38.01 13.43 33.69"/><polygon class="cls-5" points="19.65 40.64 19.65 61.54 23.52 57.85 23.52 44.97 19.65 40.64"/><polygon class="cls-6" points="25.87 55.61 29.73 51.92 25.87 47.6 25.87 55.61"/></svg>