<svg id="Layer_1" data-name="Layer 1" xmlns="http://www.w3.org/2000/svg" viewBox="0 0 16 16"><path d="M6.88,13l-1,1H1V0H7.71L12,4.29V6H11V5H7V1H2V13ZM12,7a3.09,3.09,0,0,1,1.17.23,3.15,3.15,0,0,1,1,.65,3,3,0,0,1,.64,1,3.07,3.07,0,0,1,0,2.33,3,3,0,0,1-3.67,1.69,2.74,2.74,0,0,1-.82-.41l-3.42,3.4a.47.47,0,0,1-.35.15.49.49,0,0,1-.35-.15.48.48,0,0,1,0-.7l3.41-3.42a2.77,2.77,0,0,1-.42-.82A3.09,3.09,0,0,1,9,10a2.83,2.83,0,0,1,.24-1.16,2.89,2.89,0,0,1,.64-1,3.15,3.15,0,0,1,.95-.65A3.09,3.09,0,0,1,12,7ZM8,4h2.29L8,1.71Zm4,8a1.85,1.85,0,0,0,.78-.16,2,2,0,0,0,.64-.43,2.13,2.13,0,0,0,.43-.63,2.1,2.1,0,0,0,0-1.56,2.13,2.13,0,0,0-.43-.63,2,2,0,0,0-.64-.43A1.85,1.85,0,0,0,12,8a1.91,1.91,0,0,0-.78.16,1.81,1.81,0,0,0-.63.43,2,2,0,0,0-.43.63,2,2,0,0,0,0,1.56,2,2,0,0,0,.43.63,1.81,1.81,0,0,0,.63.43A1.91,1.91,0,0,0,12,12Z"/></svg>