<svg id="Layer_1" data-name="Layer 1" xmlns="http://www.w3.org/2000/svg" viewBox="0 0 16 16"><path d="M12.51,1.39a8.19,8.19,0,0,1,1.85,1.77,8.06,8.06,0,0,1,1.21,2.26A7.68,7.68,0,0,1,16,8a7.86,7.86,0,0,1-.29,2.12,7.78,7.78,0,0,1-.8,1.92A8,8,0,0,1,12,14.91a7.78,7.78,0,0,1-1.92.8A7.49,7.49,0,0,1,8,16a7.49,7.49,0,0,1-2.12-.29A7.78,7.78,0,0,1,4,14.91,8,8,0,0,1,1.09,12a7.87,7.87,0,0,1-.8-1.91A7.51,7.51,0,0,1,0,8,7.86,7.86,0,0,1,.29,5.88a8.39,8.39,0,0,1,.82-1.95,8.22,8.22,0,0,1,1.3-1.65A7.84,7.84,0,0,1,4.14,1H2V0H6V4H5V1.68a6.89,6.89,0,0,0-1.65,1.1A6.82,6.82,0,0,0,2.09,4.26,7,7,0,0,0,1.28,6a7,7,0,0,0,0,3.82A7.06,7.06,0,0,0,2,11.53,6.87,6.87,0,0,0,4.47,14a7.06,7.06,0,0,0,1.67.71A6.68,6.68,0,0,0,8,15a6.79,6.79,0,0,0,1.86-.25A7.06,7.06,0,0,0,11.53,14,6.87,6.87,0,0,0,14,11.53a7.06,7.06,0,0,0,.71-1.67A6.68,6.68,0,0,0,15,8a6.92,6.92,0,0,0-.38-2.26,6.81,6.81,0,0,0-1.06-2A6.9,6.9,0,0,0,9.87,1.26l.26-1A7.7,7.7,0,0,1,12.51,1.39Z"/></svg>