<svg id="Layer_1" data-name="Layer 1" xmlns="http://www.w3.org/2000/svg" viewBox="0 0 32 32"><defs><style>.cls-1{fill:none;}.cls-1,.cls-2{stroke:#231f20;stroke-linejoin:round;}.cls-2{fill:#fff;}</style></defs><polygon class="cls-1" points="14.52 3.47 3.52 6.47 3.52 22.47 17.3 28.8 28.52 22.47 28.52 6.47 14.52 3.47"/><path class="cls-2" d="M12.81,18s-5.61.14-5.55,1.58c.08,1.69,4.11,2,5.47,3,1.09.8,3.48,2.66,4.83,2.83,2.55.31,9.57-2.81,8.84-5.28C25.43,16.82,12.81,18,12.81,18Z"/><path class="cls-2" d="M12.47,16.62s-5.27.13-5.21,1.49c.08,1.58,3.8,1.91,5.08,2.86,1,.75,3.34,2.44,4.6,2.59,2.4.3,9-2.64,8.31-5C24.34,15.5,12.47,16.62,12.47,16.62Z"/><path class="cls-2" d="M12,15.32s-4.8.12-4.75,1.35c.07,1.45,3.37,1.84,4.54,2.7.93.69,3.12,2.13,4.27,2.27,2.19.28,8.19-2.4,7.57-4.51C22.81,14.3,12,15.32,12,15.32Z"/><path class="cls-2" d="M11.64,14s-4.43.11-4.38,1.25c.06,1.33,3,1.77,4.11,2.56a12.67,12.67,0,0,0,4,2c2,.25,7.55-2.22,7-4.17C21.6,13,11.64,14,11.64,14Z"/><path class="cls-2" d="M11.32,12.56s-4.1.1-4.06,1.16C7.32,15,10,15.43,11,16.17A12.05,12.05,0,0,0,14.8,18c1.87.23,7-2.06,6.47-3.87C20.56,11.69,11.32,12.56,11.32,12.56Z"/><path class="cls-2" d="M10.89,11.23s-3.67.1-3.63,1c0,1.11,2.34,1.64,3.23,2.3A11.12,11.12,0,0,0,14,16.07c1.67.21,6.26-1.84,5.78-3.45C19.15,10.46,10.89,11.23,10.89,11.23Z"/><path class="cls-2" d="M10.59,9.83s-3.36.08-3.33.95S9.33,12.36,10.14,13a10.11,10.11,0,0,0,3.3,1.3c1.53.19,5.74-1.69,5.31-3.17C18.16,9.11,10.59,9.83,10.59,9.83Z"/><path class="cls-2" d="M10.31,8.4s-3.08.08-3.05.87,1.81,1.54,2.55,2.09a9.7,9.7,0,0,0,3.11,1.1c1.4.18,5.25-1.54,4.85-2.9C17.24,7.75,10.31,8.4,10.31,8.4Z"/><path class="cls-2" d="M10,7c-.71,0-2.76.07-2.73.77s1.51,1.48,2.18,2a9.18,9.18,0,0,0,2.88.88c1.26.15,4.69-1.38,4.35-2.6C16.22,6.42,11.68,7.11,10,7Z"/><line class="cls-1" x1="14.52" y1="3.47" x2="14.51" y2="6.89"/><line class="cls-1" x1="3.52" y1="22.47" x2="7.84" y2="20.37"/><line class="cls-1" x1="28.52" y1="22.47" x2="25.99" y2="21.68"/></svg>