<?xml version="1.0" encoding="utf-8"?>
<!-- Generator: Adobe Illustrator 25.2.1, SVG Export Plug-In . SVG Version: 6.00 Build 0)  -->
<svg version="1.1" id="Layer_1" xmlns="http://www.w3.org/2000/svg" xmlns:xlink="http://www.w3.org/1999/xlink" x="0px" y="0px"
	 viewBox="0 0 16 16" style="enable-background:new 0 0 16 16;" xml:space="preserve">
<style type="text/css">
	.st0{fill:#FFCF16;}
	.st1{fill:none;stroke:#000000;stroke-miterlimit:10;}
</style>
<path class="st0" d="M7.6,0C8,0,8.5,0.1,9,0.2c0.9,0.2,1.8,0.7,2.4,1.4c0.3,0.3,0.6,0.7,0.9,1.1c0.5,0.8,0.8,1.8,0.8,2.8
	c0,0.7-0.1,1.4-0.4,2.1c-0.3,0.7-0.7,1.3-1.2,1.8c-0.4,0.4-0.8,0.9-1,1.4c-0.2,0.5-0.4,1.1-0.4,1.7v2c0,0.2,0,0.4-0.1,0.6
	c-0.1,0.2-0.2,0.3-0.3,0.5c-0.1,0.1-0.3,0.2-0.5,0.3C9,16,8.8,16,8.6,16h-2c-0.2,0-0.4,0-0.6-0.1c-0.2-0.1-0.3-0.2-0.5-0.3
	c-0.1-0.1-0.2-0.3-0.3-0.5C5.1,14.9,5,14.7,5,14.5v-2c0-0.6-0.1-1.2-0.3-1.7c-0.2-0.5-0.6-1-1-1.4C3.2,8.9,2.8,8.3,2.5,7.6
	C2.2,6.9,2.1,6.2,2.1,5.5C2,4,2.6,2.6,3.7,1.6C4,1.3,4.4,1,4.8,0.8C5.6,0.3,6.6,0,7.6,0z"/>
<path d="M7.6,0C8,0,8.5,0.1,9,0.2c0.9,0.2,1.8,0.7,2.4,1.4c0.3,0.3,0.6,0.7,0.9,1.1c0.5,0.8,0.8,1.8,0.8,2.8c0,0.7-0.1,1.4-0.4,2.1
	c-0.3,0.7-0.7,1.3-1.2,1.8c-0.4,0.4-0.8,0.9-1,1.4c-0.2,0.5-0.4,1.1-0.4,1.7v2c0,0.2,0,0.4-0.1,0.6c-0.1,0.2-0.2,0.3-0.3,0.5
	c-0.1,0.1-0.3,0.2-0.5,0.3C9,16,8.8,16,8.6,16h-2c-0.2,0-0.4,0-0.6-0.1c-0.2-0.1-0.3-0.2-0.5-0.3c-0.1-0.1-0.2-0.3-0.3-0.5
	C5.1,14.9,5,14.7,5,14.5v-2c0-0.6-0.1-1.2-0.3-1.7c-0.2-0.5-0.6-1-1-1.4C3.2,8.9,2.8,8.3,2.5,7.6C2.2,6.9,2.1,6.2,2.1,5.5
	C2,4,2.6,2.6,3.7,1.6C4,1.3,4.4,1,4.8,0.8C5.6,0.3,6.6,0,7.6,0z M9.1,12c0.1-0.6,0.2-1.3,0.5-1.8c0.3-0.6,0.7-1.1,1.1-1.5
	c0.4-0.4,0.8-0.9,1-1.4c0.2-0.5,0.4-1.1,0.4-1.7c0-0.6-0.1-1.2-0.4-1.8c-0.2-0.5-0.6-1-1-1.4c-0.4-0.4-0.9-0.8-1.4-1
	c-1.1-0.5-2.4-0.5-3.5,0c-0.5,0.2-1,0.6-1.4,1c-0.4,0.4-0.8,0.9-1,1.4C3.1,4.3,3,4.9,3.1,5.5c0,0.6,0.1,1.2,0.3,1.7
	c0.2,0.5,0.6,1,1,1.4c0.4,0.4,0.8,1,1.1,1.5C5.8,10.7,6,11.4,6,12H9.1z M8.6,15c0.3,0,0.5-0.2,0.5-0.5V13h-3v1.5
	c0,0.1,0.1,0.3,0.2,0.4C6.3,14.9,6.4,15,6.6,15H8.6z"/>
<path d="M8.5,3.7C8.8,3.8,9,4,9.2,4.2c0.2,0.3,0.2,0.6,0.2,0.9c0,0.5-0.2,1-0.6,1.3C8.4,6.8,7.9,7,7.3,7C6.8,7,6.2,6.8,5.8,6.5
	C5.5,6.1,5.3,5.7,5.3,5.2c0-0.5,0.2-1.1,0.6-1.5c0.4-0.4,1-0.6,1.6-0.5h0.7c0.4,0,0.6,0,0.9,0c0.2,0,0.3,0,0.5,0
	C9.6,3.1,9.6,3,9.7,3h0.2c0,0.2,0,0.4-0.2,0.5C9.5,3.6,9.3,3.7,9.2,3.7H8.9H8.5z M8.6,5.4c0-0.5-0.1-1-0.4-1.4
	C8,3.6,7.6,3.4,7.2,3.4c-0.3,0-0.6,0.1-0.8,0.4C6.2,4.1,6,4.4,6.1,4.8c0,0.5,0.1,1,0.4,1.4c0.2,0.3,0.6,0.5,1,0.5
	c0.3,0,0.6-0.1,0.9-0.3C8.5,6.1,8.6,5.7,8.6,5.4z"/>
<line class="st1" x1="7.6" y1="8" x2="7.6" y2="12"/>
</svg>
