<svg id="Layer_1" data-name="Layer 1" xmlns="http://www.w3.org/2000/svg" viewBox="0 0 32 32"><defs><style>.cls-1{fill:none;}.cls-1,.cls-2{stroke:#231f20;stroke-miterlimit:10;}.cls-2{fill:#231f20;}</style></defs><polygon class="cls-1" points="1.5 1.5 1.5 4.5 0.5 4.5 0.5 4.5 1.5 4.5 1.5 8.5 0.5 8.5 0.5 8.5 1.5 8.5 1.5 12.5 0.5 12.5 0.5 12.5 1.5 12.5 1.5 16.5 0.5 16.5 0.5 16.5 1.5 16.5 1.5 20.5 0.5 20.5 0.5 20.5 1.5 20.5 1.5 24.5 0.5 24.5 0.5 24.5 1.5 24.5 1.5 28.5 0.5 28.5 0.5 28.5 1.5 28.5 1.5 30.5 3.5 30.5 3.5 31.5 3.5 31.5 3.5 30.5 7.5 30.5 7.5 31.5 7.5 31.5 7.5 30.5 11.5 30.5 11.5 31.5 11.5 31.5 11.5 30.5 15.5 30.5 15.5 31.5 15.5 31.5 15.5 30.5 19.5 30.5 19.5 31.5 19.5 31.5 19.5 30.5 23.5 30.5 23.5 31.5 23.5 31.5 23.5 30.5 27.5 30.5 27.5 31.5 27.5 31.5 27.5 30.5 30.5 30.5 30.5 1.5 1.5 1.5"/><polygon class="cls-2" points="2.68 30.5 1.8 30.5 8.25 17.29 12.14 20.53 17 5.68 22.18 19.8 28.16 13.33 30.37 30.32 29.63 30.3 25.83 19.99 22.62 23.98 18.05 19.89 14.64 26.22 8.8 23.5 2.68 30.5"/><polygon class="cls-1" points="1.5 24.48 5.78 9.89 16.36 19.3 23.36 8.34 30.3 30.43 29.33 30.5 1.5 30.48 1.5 24.48"/></svg>