<?xml version="1.0" encoding="utf-8"?>
<!-- Generator: Adobe Illustrator 25.2.1, SVG Export Plug-In . SVG Version: 6.00 Build 0)  -->
<svg version="1.1" id="Layer_1" xmlns="http://www.w3.org/2000/svg" xmlns:xlink="http://www.w3.org/1999/xlink" x="0px" y="0px"
	 viewBox="0 0 16 16" style="enable-background:new 0 0 16 16;" xml:space="preserve">
<style type="text/css">
	.st0{fill:#FFCF16;}
	.st1{fill:#FFCF16;stroke:#000000;stroke-miterlimit:10;}
	.st2{fill:none;stroke:#000000;stroke-miterlimit:10;}
	.st3{fill:none;stroke:#231F20;stroke-miterlimit:10;}
</style>
<ellipse class="st0" cx="12.3" cy="9.2" rx="1.9" ry="2.4"/>
<rect x="9.2" y="11" class="st1" width="6.3" height="4.5"/>
<line class="st2" x1="1" y1="1.5" x2="3" y2="1.5"/>
<line class="st2" x1="4" y1="1.5" x2="13" y2="1.5"/>
<line class="st2" x1="1" y1="3.5" x2="3" y2="3.5"/>
<line class="st2" x1="4" y1="3.5" x2="9" y2="3.5"/>
<line class="st2" x1="1" y1="5.5" x2="3" y2="5.5"/>
<line class="st2" x1="4" y1="5.5" x2="7" y2="5.5"/>
<line class="st3" x1="1" y1="7.5" x2="3" y2="7.5"/>
<line class="st2" x1="1" y1="9.5" x2="3" y2="9.5"/>
<line class="st2" x1="1" y1="11.5" x2="3" y2="11.5"/>
<line class="st2" x1="4" y1="7.5" x2="8" y2="7.5"/>
<line class="st2" x1="4" y1="9.5" x2="7" y2="9.5"/>
<line class="st2" x1="4" y1="11.5" x2="6" y2="11.5"/>
<path d="M16,10.5V16H8.7v-5.5h1.2V8.8c0-0.3,0.1-0.7,0.2-1c0.1-0.3,0.3-0.5,0.5-0.8c0.2-0.2,0.5-0.4,0.8-0.5c0.3-0.1,0.7-0.2,1-0.2
	c0.3,0,0.7,0.1,1,0.2c0.3,0.1,0.6,0.3,0.8,0.5c0.5,0.5,0.7,1.1,0.7,1.8v1.8L16,10.5z M15.1,11.4H9.6v3.9h5.6L15.1,11.4z M10.8,10.5
	h3.1V8.8c0-0.2,0-0.5-0.1-0.7c-0.1-0.2-0.2-0.4-0.3-0.6c-0.1-0.2-0.3-0.3-0.5-0.4c-0.2-0.1-0.4-0.1-0.6-0.1c-0.4,0-0.8,0.2-1.1,0.5
	c-0.1,0.2-0.3,0.3-0.3,0.6c-0.1,0.2-0.1,0.4-0.1,0.7V10.5z"/>
</svg>
