<svg id="Layer_1" data-name="Layer 1" xmlns="http://www.w3.org/2000/svg" viewBox="0 0 32 32"><defs><style>.cls-1,.cls-3,.cls-4{fill:none;}.cls-1,.cls-2,.cls-3,.cls-4{stroke:#231f20;stroke-miterlimit:10;}.cls-2{fill:#231f20;}.cls-3{stroke-dasharray:1 1;}.cls-4{stroke-dasharray:1;}</style></defs><polygon class="cls-1" points="1.5 1.5 1.5 4.5 0.5 4.5 0.5 4.5 1.5 4.5 1.5 8.5 0.5 8.5 0.5 8.5 1.5 8.5 1.5 12.5 0.5 12.5 0.5 12.5 1.5 12.5 1.5 16.5 0.5 16.5 0.5 16.5 1.5 16.5 1.5 20.5 0.5 20.5 0.5 20.5 1.5 20.5 1.5 24.5 0.5 24.5 0.5 24.5 1.5 24.5 1.5 28.5 0.5 28.5 0.5 28.5 1.5 28.5 1.5 30.5 3.5 30.5 3.5 31.5 3.5 31.5 3.5 30.5 7.5 30.5 7.5 31.5 7.5 31.5 7.5 30.5 11.5 30.5 11.5 31.5 11.5 31.5 11.5 30.5 15.5 30.5 15.5 31.5 15.5 31.5 15.5 30.5 19.5 30.5 19.5 31.5 19.5 31.5 19.5 30.5 23.5 30.5 23.5 31.5 23.5 31.5 23.5 30.5 27.5 30.5 27.5 31.5 27.5 31.5 27.5 30.5 30.5 30.5 30.5 1.5 1.5 1.5"/><rect class="cls-1" x="3.5" y="17.5" width="2" height="13"/><rect class="cls-2" x="7.5" y="6.5" width="2" height="24"/><rect class="cls-1" x="11.5" y="12.5" width="2" height="18"/><rect class="cls-1" x="18.5" y="9.5" width="2" height="21"/><rect class="cls-2" x="22.5" y="20.5" width="2" height="10"/><rect class="cls-1" x="26.5" y="14.5" width="2" height="16"/><line class="cls-1" x1="4.5" y1="18" x2="4.5" y2="18.5"/><line class="cls-3" x1="4.5" y1="19.5" x2="4.5" y2="29"/><line class="cls-1" x1="4.5" y1="29.5" x2="4.5" y2="30"/><line class="cls-4" x1="19.5" y1="9" x2="19.5" y2="30"/></svg>