<svg id="Layer_1" data-name="Layer 1" xmlns="http://www.w3.org/2000/svg" viewBox="0 0 32 32"><defs><style>.cls-1{fill:none;}.cls-1,.cls-2{stroke:#231f20;stroke-miterlimit:10;}.cls-2{fill:#231f20;}</style></defs><polygon class="cls-1" points="1.5 1.5 1.5 4.5 0.5 4.5 0.5 4.5 1.5 4.5 1.5 8.5 0.5 8.5 0.5 8.5 1.5 8.5 1.5 12.5 0.5 12.5 0.5 12.5 1.5 12.5 1.5 16.5 0.5 16.5 0.5 16.5 1.5 16.5 1.5 20.5 0.5 20.5 0.5 20.5 1.5 20.5 1.5 24.5 0.5 24.5 0.5 24.5 1.5 24.5 1.5 28.5 0.5 28.5 0.5 28.5 1.5 28.5 1.5 30.5 3.5 30.5 3.5 31.5 3.5 31.5 3.5 30.5 7.5 30.5 7.5 31.5 7.5 31.5 7.5 30.5 11.5 30.5 11.5 31.5 11.5 31.5 11.5 30.5 15.5 30.5 15.5 31.5 15.5 31.5 15.5 30.5 19.5 30.5 19.5 31.5 19.5 31.5 19.5 30.5 23.5 30.5 23.5 31.5 23.5 31.5 23.5 30.5 27.5 30.5 27.5 31.5 27.5 31.5 27.5 30.5 30.5 30.5 30.5 1.5 1.5 1.5"/><rect class="cls-2" x="16.5" y="3.5" width="4" height="8" transform="translate(26 -11) rotate(90)"/><rect class="cls-2" x="13" y="12" width="4" height="7" transform="translate(30.5 0.5) rotate(90)"/><rect class="cls-2" x="16.5" y="20.5" width="4" height="6" transform="translate(42 5) rotate(90)"/><rect class="cls-1" x="22" y="21" width="4" height="5" transform="translate(47.5 -0.5) rotate(90)"/><rect class="cls-1" x="21" y="11" width="4" height="9" transform="translate(38.5 -7.5) rotate(90)"/><rect class="cls-1" x="23" y="5" width="4" height="5" transform="translate(32.5 -17.5) rotate(90)"/><rect class="cls-1" x="9" y="19" width="4" height="9" transform="translate(34.5 12.5) rotate(90)"/><rect class="cls-1" x="6.5" y="11.5" width="4" height="8" transform="translate(24 7) rotate(90)"/><rect class="cls-1" x="8.5" y="3.5" width="4" height="8" transform="translate(18 -3) rotate(90)"/><line class="cls-1" x1="9.5" y1="2" x2="9.5" y2="31"/></svg>