<svg id="Layer_1" data-name="Layer 1" xmlns="http://www.w3.org/2000/svg" viewBox="0 0 32 32"><defs><style>.cls-1{fill:none;}.cls-1,.cls-2{stroke:#231f20;stroke-miterlimit:10;}.cls-2{fill:#231f20;}</style></defs><polygon class="cls-1" points="1.5 1.5 1.5 4.5 0.5 4.5 0.5 4.5 1.5 4.5 1.5 8.5 0.5 8.5 0.5 8.5 1.5 8.5 1.5 12.5 0.5 12.5 0.5 12.5 1.5 12.5 1.5 16.5 0.5 16.5 0.5 16.5 1.5 16.5 1.5 20.5 0.5 20.5 0.5 20.5 1.5 20.5 1.5 24.5 0.5 24.5 0.5 24.5 1.5 24.5 1.5 28.5 0.5 28.5 0.5 28.5 1.5 28.5 1.5 30.5 3.5 30.5 3.5 31.5 3.5 31.5 3.5 30.5 7.5 30.5 7.5 31.5 7.5 31.5 7.5 30.5 11.5 30.5 11.5 31.5 11.5 31.5 11.5 30.5 15.5 30.5 15.5 31.5 15.5 31.5 15.5 30.5 19.5 30.5 19.5 31.5 19.5 31.5 19.5 30.5 23.5 30.5 23.5 31.5 23.5 31.5 23.5 30.5 27.5 30.5 27.5 31.5 27.5 31.5 27.5 30.5 30.5 30.5 30.5 1.5 1.5 1.5"/><rect class="cls-2" x="5.5" y="9.5" width="4" height="8"/><rect class="cls-2" x="13.5" y="13.5" width="4" height="7"/><rect class="cls-2" x="21.5" y="10.5" width="4" height="6"/><rect class="cls-1" x="21.5" y="5.5" width="4" height="5"/><rect class="cls-1" x="13.5" y="4.5" width="4" height="9"/><rect class="cls-1" x="5.5" y="4.5" width="4" height="5"/><rect class="cls-1" x="21.5" y="16.5" width="4" height="9"/><rect class="cls-1" x="13.5" y="19.5" width="4" height="8"/><rect class="cls-1" x="5.5" y="17.5" width="4" height="8"/><line class="cls-1" x1="1.6" y1="22.39" x2="30.5" y2="22.39"/></svg>