<svg id="Layer_1" data-name="Layer 1" xmlns="http://www.w3.org/2000/svg" viewBox="0 0 16 16"><path d="M12.63,10.77a3.32,3.32,0,0,1-.19,1.16,3.17,3.17,0,0,1-.51.94,3.72,3.72,0,0,1-.76.72,4.42,4.42,0,0,1-1,.51,4.94,4.94,0,0,1-1.08.3A6.24,6.24,0,0,1,8,14.5H3.83V1.5H8a6,6,0,0,1,.94.07,4.93,4.93,0,0,1,.94.21,4.77,4.77,0,0,1,.86.38,3.13,3.13,0,0,1,.7.56,2.56,2.56,0,0,1,.47.76,2.61,2.61,0,0,1,.18,1,3.32,3.32,0,0,1-.17,1.06,2.81,2.81,0,0,1-.47.89,3.21,3.21,0,0,1-.74.68,3.45,3.45,0,0,1-1,.45v0a4.08,4.08,0,0,1,1.2.33,3.13,3.13,0,0,1,.93.66,2.79,2.79,0,0,1,.6,1A3.37,3.37,0,0,1,12.63,10.77ZM6,3.23v3.7H7.37a4,4,0,0,0,.93-.11,2.38,2.38,0,0,0,.77-.36,1.73,1.73,0,0,0,.51-.63,2.06,2.06,0,0,0,.19-.93,1.62,1.62,0,0,0-.19-.83,1.44,1.44,0,0,0-.5-.51,2.14,2.14,0,0,0-.71-.26,5.44,5.44,0,0,0-.82-.07Zm4.35,7.45a1.91,1.91,0,0,0-.24-1,1.78,1.78,0,0,0-.63-.62,2.66,2.66,0,0,0-.9-.3,5.86,5.86,0,0,0-1-.09H6v4.12H7.82a3.71,3.71,0,0,0,1-.12,2.25,2.25,0,0,0,.8-.36,1.77,1.77,0,0,0,.55-.66A2,2,0,0,0,10.33,10.68Z"/></svg>