<?xml version="1.0" encoding="utf-8"?>
<!-- Generator: Adobe Illustrator 25.4.1, SVG Export Plug-In . SVG Version: 6.00 Build 0)  -->
<svg version="1.1" id="Layer_1" xmlns="http://www.w3.org/2000/svg" xmlns:xlink="http://www.w3.org/1999/xlink" x="0px" y="0px"
	 viewBox="0 0 36 16" style="enable-background:new 0 0 36 16;" xml:space="preserve">
<style type="text/css">
	.st0{clip-path:url(#SVGID_00000168813658758637303000000014400591021147726263_);}
	.st1{fill:#FFFFFF;}
	.st2{fill:#9400D3;}
	.st3{fill:none;stroke:#707070;}
	.st4{fill:#4B0082;}
	.st5{fill:#707070;}
	.st6{fill:#0000FF;}
	.st7{fill:#00A2FF;}
	.st8{fill:#00FF00;}
</style>
<g>
	<defs>
		<rect id="SVGID_1_" width="36" height="16"/>
	</defs>
	<clipPath id="SVGID_00000078033150321513450120000017007289091815409306_">
		<use xlink:href="#SVGID_1_"  style="overflow:visible;"/>
	</clipPath>
	<g id="Scheme_19" style="clip-path:url(#SVGID_00000078033150321513450120000017007289091815409306_);">
		<rect class="st1" width="36" height="16"/>
		<g id="Group_39" transform="translate(-47 -363)">
			<g id="Rectangle_1" transform="translate(47 363)">
				<rect class="st2" width="8" height="16"/>
				<rect x="0.5" y="0.5" class="st3" width="7" height="15"/>
			</g>
			<g id="Path_1" transform="translate(54 363)">
				<path class="st4" d="M7.5,15.5h-7v-15h7V15.5z"/>
				<path class="st5" d="M1,1v14h6V1H1 M0,0h8v16H0V0z"/>
			</g>
			<g id="Path_2" transform="translate(61 363)">
				<path class="st6" d="M7.5,15.5h-7v-15h7V15.5z"/>
				<path class="st5" d="M1,1v14h6V1H1 M0,0h8v16H0V0z"/>
			</g>
			<g id="Path_3" transform="translate(68 363)">
				<path class="st7" d="M7.5,15.5h-7v-15h7V15.5z"/>
				<path class="st5" d="M1,1v14h6V1H1 M0,0h8v16H0V0z"/>
			</g>
			<g id="Path_4" transform="translate(75 363)">
				<path class="st8" d="M7.5,15.5h-7v-15h7V15.5z"/>
				<path class="st5" d="M1,1v14h6V1H1 M0,0h8v16H0V0z"/>
			</g>
		</g>
	</g>
</g>
</svg>
