<?xml version="1.0" encoding="utf-8"?>
<!-- Generator: Adobe Illustrator 25.2.1, SVG Export Plug-In . SVG Version: 6.00 Build 0)  -->
<svg version="1.1" id="Layer_1" xmlns="http://www.w3.org/2000/svg" xmlns:xlink="http://www.w3.org/1999/xlink" x="0px" y="0px"
	 viewBox="0 0 16 16" style="enable-background:new 0 0 16 16;" xml:space="preserve">
<style type="text/css">
	.st0{fill:#FFCF16;stroke:#000000;stroke-miterlimit:10;}
</style>
<rect x="1.5" y="0.5" class="st0" width="11" height="15"/>
<path d="M1,0h12v16H1V0z M12,15V1H2v14H12z M4,3v1H3V3H4z M4,6v1H3V6H4z M4,9v1H3V9H4z M4,12v1H3v-1H4z M11,3v1H5V3H11z M10,6v1H5V6
	H10z M8,9v1H5V9H8z M11,12v1H5v-1H11z"/>
</svg>
