<svg id="Layer_1" data-name="Layer 1" xmlns="http://www.w3.org/2000/svg" viewBox="0 0 16 16"><path d="M12.73,5a3.42,3.42,0,0,1,2.32,1.1A3.46,3.46,0,0,1,16,8.5,3.51,3.51,0,0,1,15,11a3.51,3.51,0,0,1-2.47,1H12V11h.5a2.47,2.47,0,0,0,2.3-1.53,2.45,2.45,0,0,0,0-1.94A2.51,2.51,0,0,0,12.5,6a1.32,1.32,0,0,0-.28,0l-.27,0a3.3,3.3,0,0,0-.38-1.21A3.45,3.45,0,0,0,8.5,3a3.34,3.34,0,0,0-1,.16,3.91,3.91,0,0,0-.94.46,3.65,3.65,0,0,0-.75.72,3.56,3.56,0,0,0-.53.93A2.9,2.9,0,0,0,4,5a3,3,0,0,0-1.17.23,3.15,3.15,0,0,0-1,.65,3.07,3.07,0,0,0-.65,1,3.07,3.07,0,0,0,0,2.33,3.12,3.12,0,0,0,1.6,1.6A3,3,0,0,0,4,11H5v1H4a3.84,3.84,0,0,1-1.55-.32,3.86,3.86,0,0,1-1.27-.86A3.86,3.86,0,0,1,.32,9.55a3.91,3.91,0,0,1,0-3.1,3.86,3.86,0,0,1,.86-1.27,3.86,3.86,0,0,1,1.27-.86A3.84,3.84,0,0,1,4,4a3.68,3.68,0,0,1,.73.07,4.57,4.57,0,0,1,.72-.86,5.14,5.14,0,0,1,.9-.65,4.64,4.64,0,0,1,1-.42A4.71,4.71,0,0,1,8.5,2a4.23,4.23,0,0,1,1.37.22,4.5,4.5,0,0,1,1.22.61,4.41,4.41,0,0,1,1,.95A4.55,4.55,0,0,1,12.73,5ZM9,12.29l1.15-1.14.7.7L8.5,14.2,6.15,11.85l.7-.7L8,12.29V7H9Z"/></svg>