<svg id="Layer_1" data-name="Layer 1" xmlns="http://www.w3.org/2000/svg" viewBox="0 0 16 16"><defs><style>.cls-1{fill:none;stroke:#000;stroke-miterlimit:10;}</style></defs><path d="M14.61,13.69a1.11,1.11,0,0,1-.22.38,1.14,1.14,0,0,1-.35.26,1,1,0,0,1-.44.09,1.06,1.06,0,0,1-.79-.34,1,1,0,0,1-.25-.36,1,1,0,0,1-.09-.44,1.06,1.06,0,0,1,.16-.56l1-1.7.93,1.62a1.17,1.17,0,0,1,.16.6A1.12,1.12,0,0,1,14.61,13.69Z"/><rect class="cls-1" x="3.92" y="4.13" width="7" height="9" transform="translate(3.66 19.37) rotate(-120)"/><polygon points="5.28 13.44 13.07 8.94 2.8 9.15 5.28 13.44"/><line class="cls-1" x1="8.92" y1="7.63" x2="8.92" y2="0.63"/></svg>