<svg id="Layer_1" data-name="Layer 1" xmlns="http://www.w3.org/2000/svg" viewBox="0 0 32 32"><defs><style>.cls-1,.cls-2{fill:none;stroke:#231f20;stroke-miterlimit:10;}.cls-2{stroke-width:2px;}</style></defs><polygon class="cls-1" points="8.5 1.5 8.5 4.5 7.74 4.5 7.74 4.5 8.5 4.5 8.5 8.5 7.74 8.5 7.74 8.5 8.5 8.5 8.5 12.5 7.74 12.5 7.74 12.5 8.5 12.5 8.5 16.5 7.74 16.5 7.74 16.5 8.5 16.5 8.5 20.5 7.74 20.5 7.74 20.5 8.5 20.5 8.5 24.5 7.74 24.5 7.74 24.5 8.5 24.5 8.5 28.5 8.82 28.5 8.82 28.5 8.5 28.5 8.5 30.5 10.5 30.5 10.5 31.5 10.5 31.5 10.5 30.5 13.5 30.5 13.5 31.5 13.5 31.5 13.5 30.5 16.5 30.5 16.5 31.5 16.5 31.5 16.5 30.5 19.5 30.5 19.5 31.5 19.5 31.5 19.5 30.5 22.5 30.5 22.5 31.5 22.5 31.5 22.5 30.5 25.5 30.5 25.5 31.5 25.5 31.5 25.5 30.5 28.5 30.5 28.5 31.5 28.5 31.5 28.5 30.5 30.5 30.5 30.5 1.5 8.5 1.5"/><rect class="cls-1" x="20.5" y="3.5" width="4" height="2"/><rect class="cls-1" x="13.5" y="7.5" width="5" height="2"/><rect class="cls-1" x="17.5" y="11.5" width="7" height="2"/><rect class="cls-1" x="12.5" y="15.5" width="4" height="2"/><rect class="cls-1" x="17.5" y="19.5" width="5" height="2"/><line class="cls-1" x1="21" y1="4.5" x2="18" y2="4.5"/><line class="cls-1" x1="27" y1="4.5" x2="24" y2="4.5"/><line class="cls-1" x1="22" y1="8.5" x2="18" y2="8.5"/><line class="cls-1" x1="14" y1="8.5" x2="11" y2="8.5"/><line class="cls-1" x1="18" y1="12.5" x2="14" y2="12.5"/><line class="cls-1" x1="27" y1="12.5" x2="24" y2="12.5"/><line class="cls-1" x1="20" y1="16.5" x2="16" y2="16.5"/><line class="cls-1" x1="13" y1="16.5" x2="10" y2="16.5"/><line class="cls-1" x1="18" y1="20.5" x2="15" y2="20.5"/><line class="cls-1" x1="27" y1="20.5" x2="22" y2="20.5"/><line class="cls-2" x1="6" y1="5" x2="1" y2="5"/><line class="cls-2" x1="6" y1="9" x2="1" y2="9"/><line class="cls-2" x1="6" y1="13" x2="1" y2="13"/><line class="cls-2" x1="6" y1="17" x2="1" y2="17"/><line class="cls-2" x1="6" y1="21" x2="1" y2="21"/><rect class="cls-1" x="17.52" y="25.45" width="3" height="3" transform="translate(-13.48 21.34) rotate(-45)"/></svg>