<svg id="Layer_1" data-name="Layer 1" xmlns="http://www.w3.org/2000/svg" viewBox="0 0 16 16"><defs><style>.cls-1{fill:none;stroke:#000;stroke-miterlimit:10;}</style></defs><rect class="cls-1" x="0.5" y="1.49" width="7" height="4"/><rect class="cls-1" x="7.5" y="1.49" width="7" height="4"/><polyline class="cls-1" points="14.5 5.49 7.5 5.49 7.5 9.49"/><rect class="cls-1" x="0.5" y="5.49" width="7" height="4"/><polyline class="cls-1" points="7.5 9.49 0.5 9.49 0.5 13.49"/><path d="M15.38,7.48A1.51,1.51,0,0,0,15.05,7a1.71,1.71,0,0,0-.5-.32,1.54,1.54,0,0,0-.61-.12,1.73,1.73,0,0,0-.6.11,1.48,1.48,0,0,0-.5.34L7.23,12.59,6.5,15.54l2.95-.74,5.6-5.6a1.72,1.72,0,0,0,.33-.51,1.52,1.52,0,0,0,.12-.59A1.63,1.63,0,0,0,15.38,7.48Zm-1,1L8.93,13.9l-1,.26.26-1.05L13.55,7.7a.42.42,0,0,1,.18-.11.46.46,0,0,1,.21,0,.57.57,0,0,1,.4.15.54.54,0,0,1,.16.4A.55.55,0,0,1,14.34,8.5Z"/><line class="cls-1" y1="13.5" x2="6" y2="13.5"/><line class="cls-1" x1="7.5" y1="11" x2="7.5" y2="10"/></svg>