<svg id="Layer_1" data-name="Layer 1" xmlns="http://www.w3.org/2000/svg" viewBox="0 0 16 16"><path d="M6.11,5.43A9,9,0,0,1,7.13,2,2.13,2.13,0,0,1,9,.87a1.62,1.62,0,0,1,1,.27.91.91,0,0,1,.35.74.77.77,0,0,1-.18.54.67.67,0,0,1-.52.19.63.63,0,0,1-.44-.15A.51.51,0,0,1,9,2.07a.73.73,0,0,1,.13-.34.67.67,0,0,0,.13-.28.16.16,0,0,0-.09-.14.49.49,0,0,0-.25-.06c-.42,0-.76.32-1,.94a13.67,13.67,0,0,0-.57,3.24h2l0,.5h-2A34.54,34.54,0,0,1,6,13.36c-.49,1.25-1.19,1.88-2.09,1.88a1.52,1.52,0,0,1-1-.31.92.92,0,0,1-.39-.76.69.69,0,0,1,.2-.51.72.72,0,0,1,.53-.19.56.56,0,0,1,.41.15.47.47,0,0,1,.16.37,1,1,0,0,1-.09.39.85.85,0,0,0-.09.3c0,.05,0,.08.1.11a.67.67,0,0,0,.26.05c.65,0,1.11-1.22,1.38-3.65.05-.43.08-.76.11-1L6,5.93H4.33l.1-.5Z"/><path d="M11.82,7.63h1l-2,3.33.48,1.15a2.92,2.92,0,0,0,.47.85.65.65,0,0,0,.49.23.45.45,0,0,0,.4-.18.92.92,0,0,0,.14-.56H13c0,.07,0,.13,0,.2v.23a1.47,1.47,0,0,1-.21.84.68.68,0,0,1-.59.3c-.35,0-.68-.37-1-1.12-.06-.15-.11-.27-.14-.36l-.54-1.29L9,14H8l2.17-3.66-.38-1a2.34,2.34,0,0,0-.48-.79.78.78,0,0,0-.57-.24.51.51,0,0,0-.4.16.63.63,0,0,0-.15.44.15.15,0,0,0,0,.06v.06H8c0-.06,0-.12,0-.18V8.62a1.35,1.35,0,0,1,.22-.82.69.69,0,0,1,.59-.31.77.77,0,0,1,.59.28A5.49,5.49,0,0,1,10,9.08l.39,1Z"/></svg>