<?xml version="1.0" encoding="utf-8"?>
<!-- Generator: Adobe Illustrator 25.2.1, SVG Export Plug-In . SVG Version: 6.00 Build 0)  -->
<svg version="1.1" id="Layer_1" xmlns="http://www.w3.org/2000/svg" xmlns:xlink="http://www.w3.org/1999/xlink" x="0px" y="0px"
	 viewBox="0 0 16 16" style="enable-background:new 0 0 16 16;" xml:space="preserve">
<style type="text/css">
	.st0{fill:#FFCF16;}
</style>
<path class="st0" d="M4.7,6.1l1.1-2L5.5,4L4.4,6V3.6H4v2.3L2.9,4L2.5,4.2l1.1,2L1.7,5L1.5,5.3l2,1.2H1.2v0.4h2.3L1.5,8l0.2,0.3
	l2-1.2l-1.2,2l0.3,0.2l1.1-2v2.3h0.4V7.3l1.2,2l0.3-0.2l-1.2-2l2,1.1L6.9,8l-2-1.2h2.3V6.4l-2.3,0"/>
<rect x="1" y="10" width="2" height="5"/>
<rect x="4" y="11" width="2" height="4"/>
<rect x="7" y="9" width="2" height="6"/>
<rect x="10" y="6" width="2" height="9"/>
<path d="M13.5,0.5L5,5.4L5.9,4L5.6,3.8l-1.2,2V3.5H4v2.3L2.9,3.8L2.6,4l1.1,2l-2-1.2L1.5,5.1l2,1.2H1.2v0.4h2.3l-2,1.2l0.2,0.3
	l2-1.2L2.6,9l0.3,0.2l1.1-2v2.3h0.4V7.2l1.2,2L5.9,9L4.7,7l2,1.1l0.2-0.3l-2-1.2h2.3V6.3H5.6L14,1.4c0.3-0.1,0.4-0.4,0.2-0.7
	s-0.4-0.4-0.7-0.2C13.6,0.5,13.6,0.5,13.5,0.5L13.5,0.5z"/>
<rect x="10.5" y="6.5" class="st0" width="1" height="8.2"/>
<rect x="7.5" y="9.4" class="st0" width="1" height="5.3"/>
<rect x="4.5" y="11.4" class="st0" width="1" height="3.3"/>
<rect x="1.5" y="10.4" class="st0" width="1" height="4.2"/>
</svg>
