<svg id="Layer_1" data-name="Layer 1" xmlns="http://www.w3.org/2000/svg" viewBox="0 0 15.76 15.78"><rect y="8" width="3" height="5"/><rect x="4" y="4" width="3" height="9"/><path d="M15.09,13.45a1.82,1.82,0,0,0,0-.33l.67-.27-.26-.64-.67.28a1.87,1.87,0,0,0-.46-.47l.28-.66L14,11.09l-.28.67h-.65l-.32-.67-.63.27.27.66a2.05,2.05,0,0,0-.46.47l-.66-.28-.27.64.67.27a1.82,1.82,0,0,0,0,.33,1.71,1.71,0,0,0,0,.32l-.67.28.27.64.66-.28a2,2,0,0,0,.46.46l-.27.67.63.24.28-.67h.65l.28.67.64-.26-.28-.67a1.68,1.68,0,0,0,.46-.46l.67.28.26-.64-.66-.25A1.84,1.84,0,0,0,15.09,13.45Zm-.76.4a1.19,1.19,0,0,1-.22.33,1.46,1.46,0,0,1-.33.22,1.06,1.06,0,0,1-.4.08A1.15,1.15,0,0,1,13,14.4a1.1,1.1,0,0,1-.55-.55,1.29,1.29,0,0,1-.08-.4,1.15,1.15,0,0,1,.08-.41,1.24,1.24,0,0,1,.23-.32A1,1,0,0,1,13,12.5a1.15,1.15,0,0,1,.41-.08,1.06,1.06,0,0,1,.4.08,1,1,0,0,1,.33.22,1.14,1.14,0,0,1,.22.32,1,1,0,0,1,.08.41A.9.9,0,0,1,14.33,13.85Z"/><path d="M11,11.66V0H8V13h2.51A2.59,2.59,0,0,1,11,11.66Z"/><path d="M13.26,10.5a2.67,2.67,0,0,1,1.74.65V4H12v6.83A2.69,2.69,0,0,1,13.26,10.5Z"/></svg>