<?xml version="1.0" encoding="utf-8"?>
<!-- Generator: Adobe Illustrator 25.2.1, SVG Export Plug-In . SVG Version: 6.00 Build 0)  -->
<svg version="1.1" id="Layer_1" xmlns="http://www.w3.org/2000/svg" xmlns:xlink="http://www.w3.org/1999/xlink" x="0px" y="0px"
	 viewBox="0 0 16 16" style="enable-background:new 0 0 16 16;" xml:space="preserve">
<style type="text/css">
	.st0{fill:#FFCF16;stroke:#000000;stroke-miterlimit:10;}
</style>
<rect x="1.5" y="1.5" class="st0" width="12" height="12"/>
<path d="M14,1v13H1V1H14z M2,2v3h3V2H2z M5,6H2v3h3V6z M2,13h3v-3H2V13z M9,5V2H6v3H9z M9,9V6H6v3H9z M6,10v3h3v-3H6z M13,2h-3v3h3
	V2z M10,9h3V6h-3V9z M13,13v-3h-3v3H13z"/>
</svg>
