<?xml version="1.0" encoding="utf-8"?>
<!-- Generator: Adobe Illustrator 25.2.1, SVG Export Plug-In . SVG Version: 6.00 Build 0)  -->
<svg version="1.1" id="Layer_1" xmlns="http://www.w3.org/2000/svg" xmlns:xlink="http://www.w3.org/1999/xlink" x="0px" y="0px"
	 viewBox="0 0 16 16" style="enable-background:new 0 0 16 16;" xml:space="preserve">
<style type="text/css">
	.st0{fill:#FFCF16;}
</style>
<path class="st0" d="M10.9,14H9.2c-2,0-4.2-0.4-4.1-3L5,6.9c0-2,0.2-4.3,4.2-4.9h1.7c2,0,3.7,1.6,3.7,3.7v4.7
	C14.5,12.3,12.9,14,10.9,14z"/>
<polygon points="3.2,6.8 1.4,8.6 8.5,8.6 8.5,9.3 1.4,9.3 3.2,11.1 2.7,11.6 0,8.9 2.7,6.2 "/>
<path d="M14.9,3.6c-0.1-0.2-0.2-0.3-0.4-0.5c-0.3-0.3-0.6-0.4-1-0.6c-0.4-0.2-0.8-0.3-1.2-0.4C12,2.1,11.6,2,11.2,2
	c-0.4,0-0.8-0.1-1.1-0.1c-0.3,0-0.7,0-1.1,0C8.5,2,8.1,2,7.6,2.1C7.2,2.2,6.8,2.3,6.4,2.5C6.1,2.6,5.8,2.8,5.5,3.1
	C5.4,3.2,5.2,3.3,5.1,3.5C5,3.7,5,3.9,5,4.1V7h1V5.4c0.3,0.2,0.6,0.3,0.9,0.4c0.3,0.1,0.7,0.2,1,0.3C8.3,6.2,8.6,6.2,9,6.2
	c0.4,0,0.7,0,1,0s0.6,0,1,0c0.4,0,0.7-0.1,1.1-0.1c0.3-0.1,0.7-0.1,1-0.3c0.3-0.1,0.6-0.2,0.9-0.4l0,6.6c0,0.1,0,0.2-0.1,0.3
	c-0.1,0.1-0.2,0.2-0.3,0.2l-0.3,0.2L13,12.8c-0.2,0.1-0.5,0.2-0.7,0.2l-0.8,0.1c-0.3,0-0.5,0.1-0.8,0.1H10H9.3
	c-0.2,0-0.5-0.1-0.8-0.1S8,13.1,7.7,13c-0.2-0.1-0.5-0.1-0.7-0.2l-0.3-0.1c-0.1-0.1-0.2-0.1-0.3-0.2c-0.1-0.1-0.2-0.1-0.3-0.2
	C6.1,12.1,6,12,6,11.9V11H5v0.9c0,0.2,0,0.4,0.1,0.6c0.1,0.2,0.2,0.3,0.3,0.4c0.3,0.3,0.6,0.5,0.9,0.6c0.4,0.2,0.8,0.3,1.2,0.4
	C8,14,8.4,14.1,8.9,14.1c0.4,0,0.8,0.1,1.1,0.1s0.7,0,1.1-0.1c0.4,0,0.8-0.1,1.2-0.2c0.4-0.1,0.8-0.2,1.2-0.4
	c0.3-0.1,0.7-0.3,0.9-0.6c0.1-0.1,0.3-0.3,0.4-0.4C15,12.4,15,12.2,15,12l0.1-7.9C15.1,3.9,15,3.7,14.9,3.6z M13.8,4.2
	C13.8,4.2,13.8,4.3,13.8,4.2c-0.1,0.2-0.3,0.4-0.4,0.5c-0.2,0.1-0.4,0.2-0.6,0.3C12.5,5,12.3,5.1,12,5.2c-0.3,0.1-0.5,0.1-0.8,0.1
	c-0.3,0-0.5,0.1-0.7,0.1s-0.4,0-0.6,0H9.3c-0.2,0-0.5,0-0.7-0.1C8.3,5.2,8,5.2,7.8,5.1C7.5,5,7.2,5,7,4.9C6.8,4.8,6.6,4.7,6.4,4.6
	C6.2,4.5,6.1,4.4,6,4.2c0,0,0-0.1-0.1-0.1c0,0,0-0.1,0-0.1c0-0.1,0-0.2,0.1-0.3c0.1-0.1,0.2-0.2,0.3-0.2l0.3-0.2
	c0.1,0,0.2-0.1,0.3-0.1C7.1,3.1,7.4,3.1,7.6,3c0.2-0.1,0.5-0.1,0.8-0.2c0.2,0,0.5-0.1,0.8-0.1s0.5,0,0.7,0h0.7c0.3,0,0.5,0,0.8,0.1
	c0.2,0,0.5,0.1,0.7,0.2c0.2,0.1,0.5,0.1,0.7,0.2l0.3,0.1l0.3,0.2c0.1,0.1,0.2,0.1,0.3,0.2c0.1,0.1,0.1,0.2,0.1,0.3
	C13.8,4.1,13.8,4.2,13.8,4.2z"/>
</svg>
