<svg id="Layer_1" data-name="Layer 1" xmlns="http://www.w3.org/2000/svg" viewBox="0 0 32 32"><defs><style>.cls-1{fill:none;stroke:#231f20;stroke-miterlimit:10;}</style></defs><polygon class="cls-1" points="1.5 1.5 1.5 4.5 0.5 4.5 0.5 4.5 1.5 4.5 1.5 8.5 0.5 8.5 0.5 8.5 1.5 8.5 1.5 12.5 0.5 12.5 0.5 12.5 1.5 12.5 1.5 16.5 0.5 16.5 0.5 16.5 1.5 16.5 1.5 20.5 0.5 20.5 0.5 20.5 1.5 20.5 1.5 24.5 0.5 24.5 0.5 24.5 1.5 24.5 1.5 28.5 0.5 28.5 0.5 28.5 1.5 28.5 1.5 30.5 3.5 30.5 3.5 31.5 3.5 31.5 3.5 30.5 7.5 30.5 7.5 31.5 7.5 31.5 7.5 30.5 11.5 30.5 11.5 31.5 11.5 31.5 11.5 30.5 15.5 30.5 15.5 31.5 15.5 31.5 15.5 30.5 19.5 30.5 19.5 31.5 19.5 31.5 19.5 30.5 23.5 30.5 23.5 31.5 23.5 31.5 23.5 30.5 27.5 30.5 27.5 31.5 27.5 31.5 27.5 30.5 30.5 30.5 30.5 1.5 1.5 1.5"/><circle class="cls-1" cx="26.15" cy="14.48" r="1"/><line class="cls-1" x1="6.82" y1="15.83" x2="12.01" y2="19.72"/><line class="cls-1" x1="14.09" y1="19.72" x2="18.3" y2="12.13"/><line class="cls-1" x1="20.12" y1="11.88" x2="25.05" y2="14.28"/><rect class="cls-1" x="4.91" y="14.47" width="2" height="2" rx="1"/><line class="cls-1" x1="5.91" y1="12.97" x2="5.91" y2="14.97"/><line class="cls-1" x1="5.91" y1="15.97" x2="5.91" y2="18.97"/><line class="cls-1" x1="4.41" y1="12.47" x2="7.41" y2="12.47"/><line class="cls-1" x1="4.41" y1="18.47" x2="7.41" y2="18.47"/><rect class="cls-1" x="11.98" y="18.75" width="2" height="2" rx="1"/><line class="cls-1" x1="12.98" y1="17.25" x2="12.98" y2="19.25"/><line class="cls-1" x1="12.98" y1="20.25" x2="12.98" y2="23.25"/><line class="cls-1" x1="11.48" y1="16.75" x2="14.48" y2="16.75"/><line class="cls-1" x1="11.48" y1="22.75" x2="14.48" y2="22.75"/><rect class="cls-1" x="18.15" y="10.8" width="2" height="2" rx="1"/><line class="cls-1" x1="19.15" y1="9.3" x2="19.15" y2="11.3"/><line class="cls-1" x1="19.15" y1="12.3" x2="19.15" y2="15.3"/><line class="cls-1" x1="17.65" y1="8.8" x2="20.65" y2="8.8"/><line class="cls-1" x1="17.65" y1="14.8" x2="20.65" y2="14.8"/><rect class="cls-1" x="25.14" y="13.47" width="2" height="2" rx="1"/><line class="cls-1" x1="26.14" y1="11.97" x2="26.14" y2="13.97"/><line class="cls-1" x1="26.14" y1="14.97" x2="26.14" y2="17.97"/><line class="cls-1" x1="24.64" y1="11.47" x2="27.64" y2="11.47"/><line class="cls-1" x1="24.64" y1="17.47" x2="27.64" y2="17.47"/></svg>