<svg id="Layer_1" data-name="Layer 1" xmlns="http://www.w3.org/2000/svg" viewBox="0 0 32 32"><defs><style>.cls-1,.cls-2{fill:none;stroke:#231f20;stroke-miterlimit:10;}.cls-2{stroke-dasharray:1;}</style></defs><polygon class="cls-1" points="1.5 1.5 1.5 4.5 0.5 4.5 0.5 4.5 1.5 4.5 1.5 8.5 0.5 8.5 0.5 8.5 1.5 8.5 1.5 12.5 0.5 12.5 0.5 12.5 1.5 12.5 1.5 16.5 0.5 16.5 0.5 16.5 1.5 16.5 1.5 20.5 0.5 20.5 0.5 20.5 1.5 20.5 1.5 24.5 0.5 24.5 0.5 24.5 1.5 24.5 1.5 28.5 0.5 28.5 0.5 28.5 1.5 28.5 1.5 30.5 3.5 30.5 3.5 31.5 3.5 31.5 3.5 30.5 7.5 30.5 7.5 31.5 7.5 31.5 7.5 30.5 11.5 30.5 11.5 31.5 11.5 31.5 11.5 30.5 15.5 30.5 15.5 31.5 15.5 31.5 15.5 30.5 19.5 30.5 19.5 31.5 19.5 31.5 19.5 30.5 23.5 30.5 23.5 31.5 23.5 31.5 23.5 30.5 27.5 30.5 27.5 31.5 27.5 31.5 27.5 30.5 30.5 30.5 30.5 1.5 1.5 1.5"/><line class="cls-1" x1="6.81" y1="10.44" x2="12.06" y2="6.62"/><line class="cls-1" x1="14.08" y1="6.52" x2="18.26" y2="8.56"/><line class="cls-1" x1="20.08" y1="8.46" x2="25.2" y2="7.23"/><rect class="cls-1" x="4.92" y="9.5" width="2" height="2"/><line class="cls-1" x1="5.93" y1="7.7" x2="5.93" y2="9.7"/><line class="cls-1" x1="5.93" y1="11.31" x2="5.93" y2="14.31"/><line class="cls-1" x1="4.43" y1="7.2" x2="7.43" y2="7.2"/><line class="cls-1" x1="4.43" y1="13.81" x2="7.43" y2="13.81"/><line class="cls-1" x1="13.01" y1="3.98" x2="13.01" y2="5.98"/><line class="cls-1" x1="13.01" y1="6.98" x2="13.01" y2="9.98"/><rect class="cls-1" x="12.02" y="5.49" width="2" height="2"/><line class="cls-1" x1="11.51" y1="3.48" x2="14.51" y2="3.48"/><line class="cls-1" x1="11.51" y1="9.48" x2="14.51" y2="9.48"/><rect class="cls-1" x="18.16" y="7.55" width="2" height="2"/><line class="cls-1" x1="19.17" y1="6.03" x2="19.17" y2="8.03"/><line class="cls-1" x1="19.17" y1="9.03" x2="19.17" y2="12.03"/><line class="cls-1" x1="17.67" y1="5.53" x2="20.67" y2="5.53"/><line class="cls-1" x1="17.67" y1="11.53" x2="20.67" y2="11.53"/><rect class="cls-1" x="25.18" y="6.19" width="2" height="2"/><line class="cls-1" x1="26.16" y1="4.7" x2="26.16" y2="6.7"/><line class="cls-1" x1="26.16" y1="7.7" x2="26.16" y2="10.7"/><line class="cls-1" x1="24.66" y1="4.2" x2="27.66" y2="4.2"/><line class="cls-1" x1="24.66" y1="10.2" x2="27.66" y2="10.2"/><circle class="cls-1" cx="26.17" cy="20.21" r="1"/><line class="cls-2" x1="6.84" y1="21.56" x2="12.03" y2="25.45"/><line class="cls-2" x1="13.95" y1="25.3" x2="18.42" y2="18.94"/><line class="cls-2" x1="20.22" y1="18.75" x2="25.07" y2="20"/><rect class="cls-1" x="4.93" y="20.2" width="2" height="2" rx="1"/><line class="cls-1" x1="5.93" y1="18.7" x2="5.93" y2="20.7"/><line class="cls-1" x1="5.93" y1="21.7" x2="5.93" y2="24.7"/><line class="cls-1" x1="4.43" y1="18.2" x2="7.43" y2="18.2"/><line class="cls-1" x1="4.43" y1="24.2" x2="7.43" y2="24.2"/><rect class="cls-1" x="12.01" y="24.48" width="2" height="2" rx="1"/><line class="cls-1" x1="13.01" y1="22.98" x2="13.01" y2="24.98"/><line class="cls-1" x1="13.01" y1="25.98" x2="13.01" y2="28.98"/><line class="cls-1" x1="11.51" y1="22.48" x2="14.51" y2="22.48"/><line class="cls-1" x1="11.51" y1="28.48" x2="14.51" y2="28.48"/><rect class="cls-1" x="18.17" y="17.53" width="2" height="2" rx="1"/><line class="cls-1" x1="19.17" y1="16.03" x2="19.17" y2="18.03"/><line class="cls-1" x1="19.17" y1="19.03" x2="19.17" y2="22.03"/><line class="cls-1" x1="17.67" y1="15.53" x2="20.67" y2="15.53"/><line class="cls-1" x1="17.67" y1="21.53" x2="20.67" y2="21.53"/><rect class="cls-1" x="25.16" y="19.2" width="2" height="2" rx="1"/><line class="cls-1" x1="26.16" y1="17.7" x2="26.16" y2="19.7"/><line class="cls-1" x1="26.16" y1="20.7" x2="26.16" y2="23.7"/><line class="cls-1" x1="24.66" y1="17.2" x2="27.66" y2="17.2"/><line class="cls-1" x1="24.66" y1="23.2" x2="27.66" y2="23.2"/></svg>