<svg id="Layer_1" data-name="Layer 1" xmlns="http://www.w3.org/2000/svg" viewBox="0 0 32 32"><defs><style>.cls-1,.cls-2{fill:none;stroke:#231f20;stroke-miterlimit:10;}.cls-2{stroke-dasharray:1;}</style></defs><polygon class="cls-1" points="1.5 1.5 1.5 4.5 0.5 4.5 0.5 4.5 1.5 4.5 1.5 8.5 0.5 8.5 0.5 8.5 1.5 8.5 1.5 12.5 0.5 12.5 0.5 12.5 1.5 12.5 1.5 16.5 0.5 16.5 0.5 16.5 1.5 16.5 1.5 20.5 0.5 20.5 0.5 20.5 1.5 20.5 1.5 24.5 0.5 24.5 0.5 24.5 1.5 24.5 1.5 28.5 0.5 28.5 0.5 28.5 1.5 28.5 1.5 30.5 3.5 30.5 3.5 31.5 3.5 31.5 3.5 30.5 7.5 30.5 7.5 31.5 7.5 31.5 7.5 30.5 11.5 30.5 11.5 31.5 11.5 31.5 11.5 30.5 15.5 30.5 15.5 31.5 15.5 31.5 15.5 30.5 19.5 30.5 19.5 31.5 19.5 31.5 19.5 30.5 23.5 30.5 23.5 31.5 23.5 31.5 23.5 30.5 27.5 30.5 27.5 31.5 27.5 31.5 27.5 30.5 30.5 30.5 30.5 1.5 1.5 1.5"/><circle class="cls-1" cx="4.56" cy="27.11" r="1"/><line class="cls-2" x1="5.35" y1="26.5" x2="11.45" y2="22.41"/><line class="cls-2" x1="13.43" y1="22.22" x2="18.94" y2="24.97"/><line class="cls-2" x1="20.3" y1="24.29" x2="22.99" y2="16.57"/><line class="cls-2" x1="24.42" y1="15.86" x2="26.56" y2="16.51"/><line class="cls-1" x1="4.96" y1="19.69" x2="6.94" y2="16.15"/><line class="cls-1" x1="8.56" y1="15.31" x2="10.83" y2="16.51"/><line class="cls-1" x1="11.97" y1="15.86" x2="12.91" y2="10.7"/><line class="cls-1" x1="14.11" y1="10.02" x2="19.36" y2="11.19"/><line class="cls-1" x1="21.24" y1="10.28" x2="23.38" y2="6.78"/><circle class="cls-1" cx="12.45" cy="21.76" r="1"/><circle class="cls-1" cx="19.92" cy="25.39" r="1"/><circle class="cls-1" cx="23.44" cy="15.65" r="1"/><circle class="cls-1" cx="27.5" cy="16.67" r="1"/><rect class="cls-1" x="3.42" y="19.74" width="2" height="2"/><rect class="cls-1" x="6.66" y="14" width="2" height="2"/><rect class="cls-1" x="10.87" y="15.93" width="2" height="2"/><rect class="cls-1" x="12.05" y="8.7" width="2" height="2"/><rect class="cls-1" x="19.55" y="10.36" width="2" height="2"/><rect class="cls-1" x="22.96" y="4.79" width="2" height="2"/></svg>