<svg id="Layer_1" data-name="Layer 1" xmlns="http://www.w3.org/2000/svg" viewBox="0 0 16 16"><path d="M13.46,6a2.4,2.4,0,0,1,1,.2,2.77,2.77,0,0,1,.79.54,2.46,2.46,0,0,1,.54.8,2.23,2.23,0,0,1,.2,1,2.32,2.32,0,0,1-.2,1A2.47,2.47,0,0,1,13.46,11h-2a2.7,2.7,0,0,1-.85-.14,2.55,2.55,0,0,1-1.28-1A2.5,2.5,0,0,1,9,9H6.92a2.51,2.51,0,0,1-.33.81,2.55,2.55,0,0,1-.55.63,2.4,2.4,0,0,1-.73.42,2.66,2.66,0,0,1-.85.14h-2a2.46,2.46,0,0,1-1.77-.73,2.55,2.55,0,0,1-.53-.79,2.49,2.49,0,0,1-.2-1,2.39,2.39,0,0,1,.2-1,2.6,2.6,0,0,1,.53-.8,2.82,2.82,0,0,1,.8-.54,2.44,2.44,0,0,1,1-.2h2A2.47,2.47,0,0,1,6,6.56a2.23,2.23,0,0,1,.55.63,2.46,2.46,0,0,1,.33.8H9a2.44,2.44,0,0,1,.32-.8,2.23,2.23,0,0,1,.55-.63,2.53,2.53,0,0,1,.73-.42A2.45,2.45,0,0,1,11.46,6Zm-9,4a1.43,1.43,0,0,0,.46-.07,1.3,1.3,0,0,0,.41-.2,1.66,1.66,0,0,0,.33-.32A1.6,1.6,0,0,0,5.88,9H4.46a.52.52,0,0,1-.35-.14A.49.49,0,0,1,4,8.49a.51.51,0,0,1,.5-.5H5.88a2,2,0,0,0-.22-.41,1.93,1.93,0,0,0-.33-.31,1.59,1.59,0,0,0-.41-.21A1.77,1.77,0,0,0,4.46,7h-2a1.4,1.4,0,0,0-.58.12,1.49,1.49,0,0,0-.48.32,1.55,1.55,0,0,0-.32.48,1.49,1.49,0,0,0,0,1.17,1.55,1.55,0,0,0,.32.48,1.49,1.49,0,0,0,.48.32,1.4,1.4,0,0,0,.58.11Zm9,0a1.44,1.44,0,0,0,.59-.11,1.56,1.56,0,0,0,.47-.32,1.39,1.39,0,0,0,.32-.48,1.49,1.49,0,0,0,0-1.17,1.39,1.39,0,0,0-.32-.48,1.56,1.56,0,0,0-.47-.32A1.45,1.45,0,0,0,13.46,7h-2a1.83,1.83,0,0,0-.46.07,1.77,1.77,0,0,0-.41.21,1.57,1.57,0,0,0-.32.31,1.36,1.36,0,0,0-.22.41h1.41a.47.47,0,0,1,.35.15.49.49,0,0,1,.15.35.49.49,0,0,1-.15.36.5.5,0,0,1-.35.14H10.05a1.16,1.16,0,0,0,.22.41,1.39,1.39,0,0,0,.32.32,1.42,1.42,0,0,0,.41.2,1.47,1.47,0,0,0,.46.07Z"/></svg>