<?xml version="1.0" encoding="utf-8"?>
<!-- Generator: Adobe Illustrator 25.2.1, SVG Export Plug-In . SVG Version: 6.00 Build 0)  -->
<svg version="1.1" id="Layer_1" xmlns="http://www.w3.org/2000/svg" xmlns:xlink="http://www.w3.org/1999/xlink" x="0px" y="0px"
	 viewBox="0 0 32 32" style="enable-background:new 0 0 32 32;" xml:space="preserve">
<style type="text/css">
	.st0{fill:#FFCF16;}
</style>
<rect x="18" y="2" class="st0" width="12" height="12"/>
<rect x="10" y="10" class="st0" width="12" height="12"/>
<path d="M32,0v16h-8v8h-8v8H0V16h8V8h8V0H32z M14,18H2v12h12V18z M22,10H10v6h6v6h6V10z M30,2H18v6h6v6h6V2z M28,26h4v2h-4v4h-2v-4
	h-4v-2h4v-4h2V26z"/>
<rect x="2" y="18" class="st0" width="12" height="12"/>
</svg>
