<svg id="Layer_1" data-name="Layer 1" xmlns="http://www.w3.org/2000/svg" viewBox="0 0 16 16"><rect x="5.06" y="1.95" width="9.08" height="1"/><rect x="5.06" y="11.95" width="9.08" height="1"/><rect x="5.06" y="6.95" width="9.08" height="1"/><path d="M1.69,4.3V4.13c.67,0,.7-.07.7-.52V1.3c0-.3,0-.31-.3-.34l-.3,0V.78A4.63,4.63,0,0,0,2.89.49V3.61c0,.45,0,.48.71.52V4.3Z"/><path d="M3.84,8.6c-.07.27-.17.58-.23.8H1.34V9.25c.33-.32.69-.67,1-1a2.4,2.4,0,0,0,.74-1.44A.69.69,0,0,0,2.36,6a1,1,0,0,0-.82.56L1.4,6.43,1.74,6a1.09,1.09,0,0,1,.82-.36,1,1,0,0,1,1,1,1.92,1.92,0,0,1-.75,1.45c-.26.27-.64.63-.9.88H3.08c.32,0,.41,0,.62-.41Z"/><path d="M1.48,11.39,1.76,11a1,1,0,0,1,.77-.34.82.82,0,0,1,.91.8.64.64,0,0,1-.19.44,2.8,2.8,0,0,1-.42.33,1,1,0,0,1,.88.92c0,1-1.15,1.39-1.57,1.39a1,1,0,0,1-.63-.21.28.28,0,0,1-.09-.2.38.38,0,0,1,.14-.22.11.11,0,0,1,.16,0,1.07,1.07,0,0,0,.74.32c.43,0,.74-.32.74-.91a.73.73,0,0,0-.79-.76,1.61,1.61,0,0,0-.41.06l0-.18c.54-.17,1-.41,1-.86A.52.52,0,0,0,2.35,11a1,1,0,0,0-.75.47Z"/></svg>