<svg id="Layer_1" data-name="Layer 1" xmlns="http://www.w3.org/2000/svg" viewBox="0 0 16 16"><path d="M1.05,6a1.14,1.14,0,0,1,.37,0,.71.71,0,0,1,.3.15.79.79,0,0,1,.21.27A.8.8,0,0,1,2,6.84a1,1,0,0,1-.09.43,1.94,1.94,0,0,1-.23.33l-.3.26-.31.21a2.33,2.33,0,0,0-.23.19.3.3,0,0,0-.09.2H2V9H0V8.68a.9.9,0,0,1,.08-.3,1.23,1.23,0,0,1,.32-.45,4,4,0,0,1,.4-.34,3.7,3.7,0,0,0,.35-.32.49.49,0,0,0,.15-.36.35.35,0,0,0-.12-.3.5.5,0,0,0-.31-.09.86.86,0,0,0-.39.09,1.52,1.52,0,0,0-.34.22V6.26A1.55,1.55,0,0,1,1.05,6Zm.28,5.46a.92.92,0,0,1,.47.21.6.6,0,0,1,.2.48.76.76,0,0,1-.1.41.84.84,0,0,1-.25.28,1.14,1.14,0,0,1-.36.15,1.51,1.51,0,0,1-.42.05,2.43,2.43,0,0,1-.38,0,1.58,1.58,0,0,1-.37-.11v-.57a1.26,1.26,0,0,0,.33.16,1.12,1.12,0,0,0,.36.05.75.75,0,0,0,.37-.08.35.35,0,0,0,.16-.32.32.32,0,0,0-.11-.26A.59.59,0,0,0,1,11.78a1,1,0,0,0-.3,0H.42v-.5H.67a1.12,1.12,0,0,0,.27,0,.41.41,0,0,0,.22-.1.3.3,0,0,0,.09-.24.29.29,0,0,0-.13-.28.51.51,0,0,0-.31-.08,1,1,0,0,0-.58.19v-.54L.59,10A2.31,2.31,0,0,1,1,10a1.27,1.27,0,0,1,.34,0,.79.79,0,0,1,.31.13.69.69,0,0,1,.22.23.58.58,0,0,1,.08.33.68.68,0,0,1-.15.47.8.8,0,0,1-.43.25ZM1.05,2.73a1.5,1.5,0,0,1-.29.16A.75.75,0,0,1,.43,3V2.44l.46-.19A1.83,1.83,0,0,0,1.31,2H1.7V5H1.05ZM16,3V4H4V3ZM4,7H16V8H4Zm0,4H16v1H4Z"/></svg>