<?xml version="1.0" encoding="utf-8"?>
<!-- Generator: Adobe Illustrator 25.2.1, SVG Export Plug-In . SVG Version: 6.00 Build 0)  -->
<svg version="1.1" id="Layer_1" xmlns="http://www.w3.org/2000/svg" xmlns:xlink="http://www.w3.org/1999/xlink" x="0px" y="0px"
	 viewBox="0 0 16 16" style="enable-background:new 0 0 16 16;" xml:space="preserve">
<style type="text/css">
	.st0{fill:none;stroke:#000000;stroke-miterlimit:10;}
</style>
<path d="M14.5,11.8c0-0.2,0-0.3-0.1-0.5l1-0.4L15,10l-1,0.4c-0.2-0.3-0.4-0.5-0.7-0.7l0.4-1l-0.9-0.4l-0.4,1c-0.3-0.1-0.7-0.1-1,0
	l-0.4-1l-0.9,0.4l0.4,1c-0.3,0.2-0.5,0.4-0.7,0.7L9,10l-0.4,0.9l1,0.4c0,0.2,0,0.3-0.1,0.5c0,0.2,0,0.3,0.1,0.5l-1,0.4L9,13.6l1-0.4
	c0.2,0.3,0.4,0.5,0.7,0.7l-0.4,1l0.9,0.4l0.4-1c0.3,0.1,0.7,0.1,1,0l0.4,1l0.9-0.4l-0.4-1c0.3-0.2,0.5-0.4,0.7-0.7l1,0.4l0.4-0.9
	l-1.1-0.4C14.5,12.1,14.5,11.9,14.5,11.8z M13.4,12.4c-0.1,0.2-0.2,0.3-0.3,0.5c-0.1,0.1-0.3,0.2-0.5,0.3c-0.4,0.2-0.8,0.2-1.2,0
	c-0.2-0.1-0.3-0.2-0.5-0.3c-0.1-0.1-0.2-0.3-0.3-0.5c-0.1-0.2-0.1-0.4-0.1-0.6c0-0.2,0-0.4,0.1-0.6c0.1-0.2,0.2-0.3,0.3-0.5
	c0.1-0.1,0.3-0.3,0.5-0.3c0.4-0.1,0.8-0.1,1.2,0c0.2,0.1,0.3,0.2,0.5,0.3c0.1,0.1,0.2,0.3,0.3,0.5c0.1,0.2,0.1,0.4,0.1,0.6
	C13.5,12,13.5,12.2,13.4,12.4z"/>
<polyline class="st0" points="7,12.5 2.5,12.5 2.5,2.5 12.5,2.5 12.5,7 "/>
<line class="st0" x1="13" y1="1.5" x2="14" y2="1.5"/>
<line class="st0" x1="13" y1="2.5" x2="14" y2="2.5"/>
<line class="st0" x1="12" y1="1.5" x2="13" y2="1.5"/>
<line class="st0" x1="1.5" y1="2" x2="1.5" y2="1"/>
<line class="st0" x1="2.5" y1="2" x2="2.5" y2="1"/>
<line class="st0" x1="1.5" y1="3" x2="1.5" y2="2"/>
<line class="st0" x1="2" y1="13.5" x2="1" y2="13.5"/>
<line class="st0" x1="2" y1="12.5" x2="1" y2="12.5"/>
<line class="st0" x1="3" y1="13.5" x2="2" y2="13.5"/>
</svg>
