<svg id="Layer_1" data-name="Layer 1" xmlns="http://www.w3.org/2000/svg" viewBox="0 0 16 16"><path d="M8,5V1H1V15H8v1H0V0H8.71L13,4.29V8H12V5ZM14,12a2.33,2.33,0,0,1,0,1l1,.4-.39.92-1-.4a2.71,2.71,0,0,1-.68.67l.41,1-.93.38L12,15a2.42,2.42,0,0,1-.47.05A2.52,2.52,0,0,1,11,15l-.4,1-.93-.38.41-1a2.51,2.51,0,0,1-.67-.67l-1,.4-.39-.92L9,13a2.9,2.9,0,0,1,0-1l-1-.4.39-.92,1,.4a2.51,2.51,0,0,1,.67-.67l-.41-1,.93-.38.4,1A2.52,2.52,0,0,1,11.5,10a2.42,2.42,0,0,1,.47.05l.4-1,.93.38-.41,1a2.71,2.71,0,0,1,.68.67l1-.4.39.92ZM9,4h2.28L9,1.71Zm2.5,10a1.43,1.43,0,0,0,.58-.12,1.5,1.5,0,0,0,.8-.79,1.51,1.51,0,0,0,0-1.18,1.5,1.5,0,0,0-.8-.79,1.49,1.49,0,0,0-1.17,0,1.5,1.5,0,0,0-.8.79,1.64,1.64,0,0,0,0,1.18,1.5,1.5,0,0,0,.8.79A1.45,1.45,0,0,0,11.5,14Z"/></svg>