<?xml version="1.0" encoding="utf-8"?>
<!-- Generator: Adobe Illustrator 25.4.1, SVG Export Plug-In . SVG Version: 6.00 Build 0)  -->
<svg version="1.1" id="Layer_1" xmlns="http://www.w3.org/2000/svg" xmlns:xlink="http://www.w3.org/1999/xlink" x="0px" y="0px"
	 viewBox="0 0 16 16" style="enable-background:new 0 0 16 16;" xml:space="preserve">
<path d="M9,1h0.7L13,4.3V14H3V1 M12,5H9V2H4v11h8V5z M10,4h1.3L10,2.7V4z"/>
<path d="M9.5,10.8v-0.4H8.7V9.5H8.3v0.9H7.7V9.5H7.3v0.9H6.5v0.4h0.8v0.5H6.5v0.4h0.8v0.8h0.4v-0.8h0.6v0.8h0.4v-0.8h0.8v-0.4H8.7
	v-0.5H9.5z M8.3,11.3H7.7v-0.5h0.6V11.3z"/>
</svg>
