<svg id="Layer_1" data-name="Layer 1" xmlns="http://www.w3.org/2000/svg" viewBox="0 0 16 16"><defs><style>.cls-1{fill:none;stroke:#000;stroke-miterlimit:10;}</style></defs><line class="cls-1" x1="2.5" y1="2" x2="2.5" y2="13"/><line class="cls-1" x1="2" y1="13.5" x2="14" y2="13.5"/><line class="cls-1" x1="1" y1="13.5" x2="2" y2="13.5"/><line class="cls-1" x1="1" y1="10.5" x2="2" y2="10.5"/><line class="cls-1" x1="1" y1="4.5" x2="2" y2="4.5"/><line class="cls-1" x1="1" y1="7.5" x2="2" y2="7.5"/><line class="cls-1" x1="2" y1="14.5" x2="3" y2="14.5"/><line class="cls-1" x1="5.5" y1="14" x2="5.5" y2="15"/><line class="cls-1" x1="11.5" y1="14" x2="11.5" y2="15"/><line class="cls-1" x1="8" y1="14.5" x2="9" y2="14.5"/><path d="M5.28,6.6a3.28,3.28,0,0,1,.39-1.29.78.78,0,0,1,.69-.42.58.58,0,0,1,.37.1.34.34,0,0,1,.14.28.3.3,0,0,1-.07.2.26.26,0,0,1-.2.07.28.28,0,0,1-.16,0,.2.2,0,0,1-.06-.15.24.24,0,0,1,0-.13.17.17,0,0,0,0-.1.07.07,0,0,0,0-.06L6.35,5c-.16,0-.29.12-.38.35A5.07,5.07,0,0,0,5.76,6.6h.75l0,.19H5.74a12.32,12.32,0,0,1-.5,2.78c-.18.47-.44.71-.78.71a.57.57,0,0,1-.37-.12.33.33,0,0,1-.15-.28A.24.24,0,0,1,4,9.69a.26.26,0,0,1,.2-.08.2.2,0,0,1,.15.06.18.18,0,0,1,.06.14.44.44,0,0,1,0,.15.21.21,0,0,0,0,.11s0,0,0,0l.1,0c.24,0,.41-.46.51-1.37,0-.16,0-.29,0-.37l.2-1.6H4.62l0-.19Z"/><path d="M8.72,4.78a2.55,2.55,0,0,0-.71,1A4.85,4.85,0,0,0,7.8,7.42,4.85,4.85,0,0,0,8,9a2.46,2.46,0,0,0,.71,1l-.12.13A3.14,3.14,0,0,1,7.62,9a3.69,3.69,0,0,1-.35-1.58,3.55,3.55,0,0,1,.36-1.58,3,3,0,0,1,1-1.18Z"/><path d="M11.48,6.3h.6L10.83,8.39l.3.72a2.33,2.33,0,0,0,.29.53.43.43,0,0,0,.31.14A.28.28,0,0,0,12,9.67a.54.54,0,0,0,.09-.35h.14a.49.49,0,0,1,0,.12.66.66,0,0,1,0,.15.89.89,0,0,1-.14.52.41.41,0,0,1-.36.19c-.22,0-.43-.23-.62-.7L11,9.38l-.34-.81-1,1.7h-.6L10.44,8l-.24-.59a1.43,1.43,0,0,0-.29-.49.46.46,0,0,0-.36-.16.31.31,0,0,0-.25.11.4.4,0,0,0-.09.27V7.2H9.07a.49.49,0,0,1,0-.12V6.93a.89.89,0,0,1,.13-.52.45.45,0,0,1,.37-.19.48.48,0,0,1,.37.17,3.47,3.47,0,0,1,.41.82l.25.6Z"/><path d="M12.57,4.78l.12-.12a3.13,3.13,0,0,1,1,1.18A3.55,3.55,0,0,1,14,7.42,3.47,3.47,0,0,1,13.66,9a3.17,3.17,0,0,1-1,1.19l-.12-.13a2.49,2.49,0,0,0,.71-1,4.92,4.92,0,0,0,.21-1.6,5,5,0,0,0-.21-1.6A2.58,2.58,0,0,0,12.57,4.78Z"/></svg>