<svg id="Layer_1" data-name="Layer 1" xmlns="http://www.w3.org/2000/svg" viewBox="0 0 16 16"><path d="M4.75,11H2V4H14l0,5a1.44,1.44,0,0,1,1,.5V2H1V12H4.29Z"/><path d="M12.82,9.79a2.79,2.79,0,0,1,.64,0,3.82,3.82,0,0,1,.66.19,4,4,0,0,1,.61.33,2.4,2.4,0,0,1,.5.45,2.19,2.19,0,0,1,.35.56,1.78,1.78,0,0,1,.12.65,1.4,1.4,0,0,1-.15.66,1.44,1.44,0,0,1-.41.47,1.76,1.76,0,0,1-.58.29,2.16,2.16,0,0,1-.66.1,2.45,2.45,0,0,1-.48,0,1.49,1.49,0,0,1,0,.21,1.48,1.48,0,0,1,0,.21,3.45,3.45,0,0,1,0,.57c0,.18-.08.37-.13.56H6.88c0-.19-.09-.38-.12-.56a2.62,2.62,0,0,1-.06-.57,1.28,1.28,0,0,1,0-.19c0-.06,0-.12,0-.18a1.48,1.48,0,0,1-.59-.12,1.52,1.52,0,0,1-.48-.31,1.58,1.58,0,0,1-.33-.48,1.51,1.51,0,0,1,0-1.18A1.4,1.4,0,0,1,5.64,11a1.42,1.42,0,0,1,1.06-.44,1.43,1.43,0,0,1,.74.19,1.5,1.5,0,0,1,.55.54,3.3,3.3,0,0,1,1-.57,4,4,0,0,1,1.17-.16,2.38,2.38,0,0,1-.37-.66,2.24,2.24,0,0,1-.12-.73,1.35,1.35,0,0,1,.07-.46,2,2,0,0,1,.17-.4,3,3,0,0,1,.23-.38l.27-.37ZM6,12a.72.72,0,0,0,.06.29.74.74,0,0,0,.4.4.72.72,0,0,0,.29.06.78.78,0,0,0,.22,0,3.3,3.3,0,0,1,.5-.9.76.76,0,0,0-.26-.4.74.74,0,0,0-.75-.1.76.76,0,0,0-.4.39A.73.73,0,0,0,6,12Zm6.72,2.25,0-.19v-.19a1.87,1.87,0,0,0,0-.34,3.4,3.4,0,0,0-.07-.34,3,3,0,0,1-.48-.3,2.4,2.4,0,0,1-.4-.38,2.06,2.06,0,0,1-.31-.46,1.38,1.38,0,0,1-.17-.52,2.78,2.78,0,0,0-.57-.21,2.32,2.32,0,0,0-.59-.07,2.44,2.44,0,0,0-1,.21,2.71,2.71,0,0,0-.84.57,2.79,2.79,0,0,0-.57.83,2.5,2.5,0,0,0-.21,1,1.21,1.21,0,0,0,0,.19c0,.06,0,.12,0,.19H8.89A1.72,1.72,0,0,0,9,13.85a1.5,1.5,0,0,0-.54-1.16l.48-.57a2.2,2.2,0,0,1,.6.76,2.24,2.24,0,0,1,.21,1c0,.07,0,.15,0,.22a1.85,1.85,0,0,1,0,.23Zm1.23-1.51a1.61,1.61,0,0,0,.37,0,1.11,1.11,0,0,0,.34-.14.69.69,0,0,0,.24-.24A.56.56,0,0,0,15,12a1,1,0,0,0-.19-.59,1.83,1.83,0,0,0-.49-.47,2.37,2.37,0,0,0-.62-.3,1.9,1.9,0,0,0-.63-.11h-.23l-.22,0-2-1.89c0,.08-.06.15-.08.22a.75.75,0,0,0,0,.23,1.25,1.25,0,0,0,.07.43,1.46,1.46,0,0,0,.18.38,1.64,1.64,0,0,0,.28.31,1.54,1.54,0,0,0,.37.23,1.24,1.24,0,0,0,.39.1l.41.05A2.45,2.45,0,0,1,12,11a1,1,0,0,0-.06.32,1,1,0,0,0,.19.62,1.62,1.62,0,0,0,.47.47,2.64,2.64,0,0,0,.63.31A2.13,2.13,0,0,0,13.9,12.78Z"/></svg>