<svg id="Layer_1" data-name="Layer 1" xmlns="http://www.w3.org/2000/svg" viewBox="0 0 32 32"><defs><style>.cls-1,.cls-3{fill:none;}.cls-1,.cls-2,.cls-3{stroke:#231f20;stroke-miterlimit:10;}.cls-2{fill:#231f20;}.cls-3{stroke-width:2px;}</style></defs><polygon class="cls-1" points="6.61 6.55 2.71 15.96 6.61 25.38 16.02 29.28 25.44 25.39 29.34 15.97 25.45 6.55 16.03 2.65 6.61 6.55"/><line class="cls-1" x1="16.03" y1="2.65" x2="16.02" y2="29.28"/><line class="cls-1" x1="2.71" y1="15.96" x2="29.34" y2="15.97"/><path class="cls-2" d="M23.25,10.3,13.06,7.36,6.52,12.74,11.7,24l7.7.49,5.09-4.55ZM18.94,23.74l-6.38-.82L6.85,12.81,13.39,8.3l9,4.51,1.82,7Z"/><polygon class="cls-3" points="20.02 14.14 14.3 11.61 9.58 13.51 13.64 19.81 18.15 21.59 21.47 18.48 20.02 14.14"/></svg>