<svg id="Layer_1" data-name="Layer 1" xmlns="http://www.w3.org/2000/svg" viewBox="0 0 32 32"><defs><style>.cls-1,.cls-2,.cls-3,.cls-4,.cls-5{fill:none;stroke:#231f20;stroke-miterlimit:10;}.cls-2{stroke-dasharray:0.95 0.95;}.cls-3{stroke-dasharray:0.94 0.94;}.cls-4{stroke-dasharray:0.95 0.95;}.cls-5{stroke-dasharray:0.94 0.94;}</style></defs><polygon class="cls-1" points="6.61 6.55 2.71 15.96 6.61 25.38 16.02 29.28 25.44 25.39 29.34 15.97 25.45 6.55 16.03 2.65 6.61 6.55"/><line class="cls-1" x1="16.03" y1="2.65" x2="16.02" y2="29.28"/><line class="cls-1" x1="2.71" y1="15.96" x2="29.34" y2="15.97"/><line class="cls-1" x1="25.45" y1="6.55" x2="25.09" y2="6.9"/><line class="cls-2" x1="24.41" y1="7.57" x2="16.64" y2="15.26"/><polyline class="cls-1" points="16.3 15.6 15.95 15.95 15.59 15.6"/><line class="cls-3" x1="14.93" y1="14.93" x2="7.3" y2="7.24"/><line class="cls-1" x1="6.96" y1="6.9" x2="6.61" y2="6.55"/><line class="cls-1" x1="25.44" y1="25.39" x2="25.08" y2="25.03"/><line class="cls-4" x1="24.41" y1="24.36" x2="16.64" y2="16.64"/><polyline class="cls-1" points="16.3 16.3 15.95 15.95 15.59 16.31"/><line class="cls-5" x1="14.93" y1="16.98" x2="7.29" y2="24.69"/><line class="cls-1" x1="6.96" y1="25.02" x2="6.61" y2="25.38"/><circle class="cls-1" cx="13.13" cy="8.79" r="1"/><circle class="cls-1" cx="18.59" cy="24.49" r="1"/><circle class="cls-1" cx="25.11" cy="20.61" r="1"/><circle class="cls-1" cx="23.33" cy="12.93" r="1"/><circle class="cls-1" cx="7.01" cy="12.81" r="1"/><circle class="cls-1" cx="12.93" cy="22.99" r="1"/></svg>