<svg id="Layer_1" data-name="Layer 1" xmlns="http://www.w3.org/2000/svg" viewBox="0 0 11.97 15.85"><path d="M9,4h3.29L11.23,2.91a9.2,9.2,0,0,0-1.05-1A4.83,4.83,0,0,0,9,1.28a4.44,4.44,0,0,0-3.22.11,4.45,4.45,0,0,0-1.42,1,4.62,4.62,0,0,0-1,1.42,4.33,4.33,0,0,0,0,3.41,4.31,4.31,0,0,0,1,1.43l6.53,6.54-.7.7L3.64,9.35a5.14,5.14,0,0,1-.74-.89A5.54,5.54,0,0,1,2,5.5a5.4,5.4,0,0,1,.2-1.45A5.49,5.49,0,0,1,6.05.23,5.4,5.4,0,0,1,7.5,0,5.54,5.54,0,0,1,8.7.15a4.61,4.61,0,0,1,1,.34,4.72,4.72,0,0,1,.87.51,9.91,9.91,0,0,1,.81.67c.26.24.52.5.78.77l.83.85V0h1V5H9Z" transform="translate(-2.03 0)"/></svg>