<svg id="Layer_1" data-name="Layer 1" xmlns="http://www.w3.org/2000/svg" viewBox="0 0 16 16"><path d="M12.73,4a3.42,3.42,0,0,1,2.32,1.1A3.46,3.46,0,0,1,16,7.5,3.51,3.51,0,0,1,15,10a3.51,3.51,0,0,1-2.47,1H12V10h.5a2.47,2.47,0,0,0,2.3-1.53,2.45,2.45,0,0,0,0-1.94A2.51,2.51,0,0,0,12.5,5a1.32,1.32,0,0,0-.28,0l-.27,0a3.3,3.3,0,0,0-.38-1.21A3.45,3.45,0,0,0,8.5,2a3.34,3.34,0,0,0-1,.16,3.91,3.91,0,0,0-.94.46,3.65,3.65,0,0,0-.75.72,3.56,3.56,0,0,0-.53.93A2.9,2.9,0,0,0,4,4a3,3,0,0,0-1.17.23,3.15,3.15,0,0,0-1,.65,3.07,3.07,0,0,0-.65,1,3.07,3.07,0,0,0,0,2.33,3.12,3.12,0,0,0,1.6,1.6A3,3,0,0,0,4,10H5v1H4a3.84,3.84,0,0,1-1.55-.32,3.86,3.86,0,0,1-1.27-.86A3.86,3.86,0,0,1,.32,8.55a3.91,3.91,0,0,1,0-3.1,3.86,3.86,0,0,1,.86-1.27,3.86,3.86,0,0,1,1.27-.86A3.84,3.84,0,0,1,4,3a3.68,3.68,0,0,1,.73.07,4.57,4.57,0,0,1,.72-.86,5.14,5.14,0,0,1,.9-.65,4.64,4.64,0,0,1,1-.42A4.71,4.71,0,0,1,8.5,1a4.23,4.23,0,0,1,1.37.22,4.5,4.5,0,0,1,1.22.61,4.41,4.41,0,0,1,1,.95A4.55,4.55,0,0,1,12.73,4Z"/><path d="M8.5,14.6a3.74,3.74,0,0,0,2.32-.84,3.62,3.62,0,0,0,.81-.93,3.44,3.44,0,0,0,.45-1.18l.6.11a4.12,4.12,0,0,1-.53,1.38,4.3,4.3,0,0,1-.94,1.09,4.16,4.16,0,0,1-2.71,1,4,4,0,0,1-1.1-.14,4.46,4.46,0,0,1-1-.41A4.52,4.52,0,0,1,5.53,14a4.37,4.37,0,0,1-.68-.86V14.6H4.24V12.16H6.68v.61H5.34a3.64,3.64,0,0,0,.58.76,3.38,3.38,0,0,0,.75.57,3.74,3.74,0,0,0,.87.37A3.83,3.83,0,0,0,8.5,14.6Z"/><path d="M12.15,6.3h.61V8.73H10.32V8.12h1.34a3.58,3.58,0,0,0-.58-.75,3.77,3.77,0,0,0-.75-.58,3.54,3.54,0,0,0-.88-.36A3.35,3.35,0,0,0,8.5,6.3a3.5,3.5,0,0,0-1.25.22,3.77,3.77,0,0,0-1.07.61,3.62,3.62,0,0,0-.81.93,3.57,3.57,0,0,0-.45,1.19l-.6-.12a3.89,3.89,0,0,1,.3-1,5.38,5.38,0,0,1,.5-.83,5.46,5.46,0,0,1,.67-.69,4.3,4.3,0,0,1,.81-.52,3.67,3.67,0,0,1,.91-.33,4.07,4.07,0,0,1,1-.12,4.4,4.4,0,0,1,1.09.14A4.41,4.41,0,0,1,11.47,6.9a4,4,0,0,1,.68.85Z"/></svg>