<svg id="Layer_1" data-name="Layer 1" xmlns="http://www.w3.org/2000/svg" viewBox="0 0 16 16"><path d="M1,8a4.88,4.88,0,0,0,.12,1.07,5.71,5.71,0,0,0,.34,1A5.33,5.33,0,0,0,2,11a4.56,4.56,0,0,0,.74.78L2,12.49a5.89,5.89,0,0,1-.86-.94,6.23,6.23,0,0,1-.64-1.09,5.56,5.56,0,0,1-.4-1.19A6,6,0,0,1,.21,6.41,6.56,6.56,0,0,1,.82,5a5.78,5.78,0,0,1,.94-1.21A5.78,5.78,0,0,1,3,2.82a6.56,6.56,0,0,1,1.44-.61A6,6,0,0,1,6,2h5.05L9.77.73,10.48,0,13,2.5,10.48,5l-.71-.71L11.05,3H6a4.91,4.91,0,0,0-1.33.18,5.25,5.25,0,0,0-1.19.5,5.51,5.51,0,0,0-1,.78,5.51,5.51,0,0,0-.78,1,5.45,5.45,0,0,0-.5,1.19A4.91,4.91,0,0,0,1,8ZM14,3.52a5.82,5.82,0,0,1,.86.93,5.19,5.19,0,0,1,.64,1.09,5.56,5.56,0,0,1,.4,1.19,6,6,0,0,1-.07,2.86A6.56,6.56,0,0,1,15.18,11,6.15,6.15,0,0,1,13,13.18a6.56,6.56,0,0,1-1.44.61A6,6,0,0,1,10,14H5l1.28,1.27L5.52,16,3.05,13.5,5.52,11l.71.71L5,13H10a4.91,4.91,0,0,0,1.33-.18,5.45,5.45,0,0,0,1.19-.5,5.51,5.51,0,0,0,1-.78,5.51,5.51,0,0,0,.78-1,5.45,5.45,0,0,0,.5-1.19A4.91,4.91,0,0,0,15,8a4.81,4.81,0,0,0-.12-1.07,5.09,5.09,0,0,0-.34-1A5.59,5.59,0,0,0,14,5a5.54,5.54,0,0,0-.74-.79Z"/></svg>