<svg id="Layer_1" data-name="Layer 1" xmlns="http://www.w3.org/2000/svg" viewBox="0 0 16 16"><path d="M8,15a7.24,7.24,0,0,0,5.91-3,7.52,7.52,0,0,0,1-2.11l1,.3a8.1,8.1,0,0,1-1.16,2.38,8.63,8.63,0,0,1-1.82,1.85,8.37,8.37,0,0,1-2.3,1.19A7.85,7.85,0,0,1,8,16a8.15,8.15,0,0,1-2.09-.27A7.72,7.72,0,0,1,4,15a8,8,0,0,1-1.67-1.22A8.16,8.16,0,0,1,1,12.1V14H0V10H4v1H1.53a7.07,7.07,0,0,0,1.15,1.65A7.33,7.33,0,0,0,4.2,13.91a7.51,7.51,0,0,0,1.81.8A6.7,6.7,0,0,0,8,15ZM16,2V6H12V5h2.47a7.07,7.07,0,0,0-1.15-1.65A7.33,7.33,0,0,0,11.8,2.09,7.51,7.51,0,0,0,10,1.29,6.7,6.7,0,0,0,8,1,7.24,7.24,0,0,0,2.09,4a7.52,7.52,0,0,0-1,2.11l-.95-.3A8.17,8.17,0,0,1,1.27,3.48,8.46,8.46,0,0,1,3.09,1.62,8.37,8.37,0,0,1,5.39.43,7.85,7.85,0,0,1,8,0a8.15,8.15,0,0,1,2.09.27A7.72,7.72,0,0,1,12,1a8,8,0,0,1,1.67,1.22A8.16,8.16,0,0,1,15,3.9V2Z"/></svg>