<?xml version="1.0" encoding="utf-8"?>
<!-- Generator: Adobe Illustrator 25.2.1, SVG Export Plug-In . SVG Version: 6.00 Build 0)  -->
<svg version="1.1" id="Layer_1" xmlns="http://www.w3.org/2000/svg" xmlns:xlink="http://www.w3.org/1999/xlink" x="0px" y="0px"
	 viewBox="0 0 16 16" style="enable-background:new 0 0 16 16;" xml:space="preserve">
<style type="text/css">
	.st0{fill:#FFCF16;}
	.st1{fill:none;stroke:#000000;stroke-miterlimit:10;}
</style>
<polygon class="st0" points="1,1 6.3,1 8.3,3 10,4 10,7 13,7 14,11.7 14,13 14,16 10.6,16 5,15 4,12 1,12 "/>
<line class="st1" x1="2" y1="3.5" x2="4" y2="3.5"/>
<line class="st1" x1="2" y1="5.5" x2="4" y2="5.5"/>
<line class="st1" x1="2" y1="7.5" x2="4" y2="7.5"/>
<line class="st1" x1="2" y1="9.5" x2="4" y2="9.5"/>
<line class="st1" x1="6.5" y1="8" x2="6.5" y2="14"/>
<line class="st1" x1="8.5" y1="10" x2="8.5" y2="14"/>
<line class="st1" x1="10.5" y1="9" x2="10.5" y2="14"/>
<path d="M5,15V4h5v3h3v4.7h1V6.3L10.7,3h-1l-3-3H0v13h4v3h6.6v-1H5z M11,4.7L12.3,6H11V4.7z M4,12H1V1h5.3l2,2H4V12z"/>
<line class="st1" x1="13.5" y1="13" x2="13.5" y2="16"/>
<line class="st1" x1="15" y1="14.5" x2="12" y2="14.5"/>
</svg>
