<svg id="Layer_1" data-name="Layer 1" xmlns="http://www.w3.org/2000/svg" viewBox="0 0 16 16"><defs><style>.cls-1{fill:none;stroke:#000;stroke-miterlimit:10;}</style></defs><line class="cls-1" x1="2" y1="3.5" x2="4" y2="3.5"/><line class="cls-1" x1="2" y1="5.5" x2="4" y2="5.5"/><line class="cls-1" x1="2" y1="7.5" x2="4" y2="7.5"/><line class="cls-1" x1="2" y1="9.5" x2="4" y2="9.5"/><line class="cls-1" x1="6.5" y1="8" x2="6.5" y2="14"/><line class="cls-1" x1="8.5" y1="10" x2="8.5" y2="14"/><line class="cls-1" x1="10.5" y1="9" x2="10.5" y2="14"/><path d="M5,15V4h5V7h3v4.66h1V6.29L10.71,3h-1l-3-3H0V13H4v3h6.64V15ZM11,4.71,12.29,6H11ZM4,12H1V1H6.29l2,2H4Z"/><line class="cls-1" x1="13.5" y1="13" x2="13.5" y2="16"/><line class="cls-1" x1="15" y1="14.5" x2="12" y2="14.5"/></svg>