<svg id="Layer_1" data-name="Layer 1" xmlns="http://www.w3.org/2000/svg" viewBox="0 0 16 16"><path d="M14,6a1.48,1.48,0,0,1,.59.12,1.52,1.52,0,0,1,.79.79,1.51,1.51,0,0,1,0,1.18,1.52,1.52,0,0,1-.79.79A1.48,1.48,0,0,1,14,9H11.5a.47.47,0,0,1-.35-.15L10,7.71l-.8.79,1.65,1.65a.47.47,0,0,1,.15.35v3a1.48,1.48,0,0,1-.12.59,1.52,1.52,0,0,1-.79.79,1.51,1.51,0,0,1-1.18,0,1.52,1.52,0,0,1-.79-.79A1.48,1.48,0,0,1,8,13.5V11.71l-1-1L5.85,11.85A.47.47,0,0,1,5.5,12H2a1.48,1.48,0,0,1-.59-.12,1.4,1.4,0,0,1-.47-.32,1.4,1.4,0,0,1-.32-.47,1.51,1.51,0,0,1,0-1.18,1.4,1.4,0,0,1,.32-.47,1.4,1.4,0,0,1,.47-.32A1.48,1.48,0,0,1,2,9H4.29l.62-.62a1.53,1.53,0,0,1-.66-.55A1.45,1.45,0,0,1,4,7V4a1,1,0,0,1,.08-.39.94.94,0,0,1,.53-.53A1,1,0,0,1,5,3H9a1.85,1.85,0,0,1,.16-.78,1.81,1.81,0,0,1,.43-.63,1.81,1.81,0,0,1,.63-.43,2,2,0,0,1,1.56,0,1.81,1.81,0,0,1,.63.43,1.81,1.81,0,0,1,.43.63A1.85,1.85,0,0,1,13,3a1.89,1.89,0,0,1-.1.63,1.93,1.93,0,0,1-.29.55,2.24,2.24,0,0,1-.43.44,2.19,2.19,0,0,1-.57.29L12.71,6Zm0,2a.51.51,0,0,0,.5-.5.43.43,0,0,0-.14-.36A.74.74,0,0,0,14,7a2.62,2.62,0,0,0-.49,0L13,7a2.43,2.43,0,0,1-.48,0,.54.54,0,0,1-.35-.15L9.29,4H5V7a.51.51,0,0,0,.5.5.41.41,0,0,0,.39-.18A1.24,1.24,0,0,0,6,6.85a4.1,4.1,0,0,0,0-.6,4.1,4.1,0,0,1,0-.6,1.24,1.24,0,0,1,.13-.47A.41.41,0,0,1,6.5,5H8a.5.5,0,0,1,.35.85A.47.47,0,0,1,8,6H7V7.5a.47.47,0,0,1-.15.35l-2,2A.47.47,0,0,1,4.5,10H2a.47.47,0,0,0-.35.15.48.48,0,0,0,0,.7A.47.47,0,0,0,2,11H5.29L6.65,9.65a.48.48,0,0,1,.7,0l1.5,1.5A.47.47,0,0,1,9,11.5v2a.5.5,0,0,0,1,0V10.71L8.15,8.85a.48.48,0,0,1,0-.7l1.5-1.5a.48.48,0,0,1,.7,0L11.71,8ZM11,2a1,1,0,0,0-.39.08.94.94,0,0,0-.53.53,1,1,0,0,0,0,.78.94.94,0,0,0,.53.53A1,1,0,0,0,11,4a1,1,0,0,0,.37-.07,1.11,1.11,0,0,0,.32-.21.89.89,0,0,0,.22-.29A.81.81,0,0,0,12,3.06a1.14,1.14,0,0,0-.07-.41,1.05,1.05,0,0,0-.2-.34.94.94,0,0,0-.32-.23A1.07,1.07,0,0,0,11,2Z"/></svg>