<svg id="Layer_1" data-name="Layer 1" xmlns="http://www.w3.org/2000/svg" viewBox="0 0 16 16"><defs><style>.cls-1{fill:none;stroke:#000;stroke-miterlimit:10;stroke-width:0.5px;}</style></defs><path d="M10.05,2h-7V5h7Zm-1,2h-5V3h5Z"/><rect x="6.05" y="7" width="1" height="1"/><rect x="6.05" y="13" width="1" height="1"/><rect x="6.05" y="10" width="1" height="1"/><rect x="9.05" y="7" width="1" height="1"/><rect x="3.05" y="13" width="1" height="1"/><rect x="3.05" y="7" width="1" height="1"/><rect x="3.05" y="10" width="1" height="1"/><path d="M11.05,15.5A3.48,3.48,0,0,1,9.27,15H2.05V1h9V8.5a3.91,3.91,0,0,1,.48.05,3,3,0,0,1,.52-.05V0h-11V16h11v-.5a3.29,3.29,0,0,1-.54-.05A3.41,3.41,0,0,1,11.05,15.5Z"/><circle class="cls-1" cx="11.05" cy="12" r="3.5"/><path d="M12,11.08c-.12-.39-.29-.81-.84-.81a.57.57,0,0,0-.6.6c0,.36.24.57.76.83.67.33,1,.63,1,1.22a1.25,1.25,0,0,1-1.4,1.18,3,3,0,0,1-1-.19c0-.15-.13-.69-.17-1l.22-.05c.12.38.43,1,1,1a.58.58,0,0,0,.62-.64c0-.39-.22-.58-.74-.86s-1-.63-1-1.23.47-1.1,1.34-1.1a4.23,4.23,0,0,1,.83.11c0,.22.06.51.11.89Z"/></svg>