<?xml version="1.0" encoding="utf-8"?>
<!-- Generator: Adobe Illustrator 25.2.1, SVG Export Plug-In . SVG Version: 6.00 Build 0)  -->
<svg version="1.1" id="Layer_1" xmlns="http://www.w3.org/2000/svg" xmlns:xlink="http://www.w3.org/1999/xlink" x="0px" y="0px"
	 viewBox="0 0 16 16" style="enable-background:new 0 0 16 16;" xml:space="preserve">
<style type="text/css">
	.st0{fill:#FFCF16;}
</style>
<polygon class="st0" points="1.7,1.7 14.4,1.7 14.4,14.3 3.1,14.5 1.6,12.9 "/>
<path d="M14,1c0.1,0,0.3,0,0.4,0.1c0.2,0.1,0.4,0.3,0.5,0.5C15,1.7,15,1.9,15,2v13H2.8L1,13.2V2c0-0.1,0-0.3,0.1-0.4
	c0.1-0.2,0.3-0.4,0.5-0.5C1.7,1,1.9,1,2,1H14z M14,2h-1v6H3V2H2v10.8L3.2,14H4v-4h7v4h3V2z M4,7h8V2H4V7z M10,11H5v3h1v-2h1v2h3V11z
	"/>
</svg>
