<svg id="Layer_1" data-name="Layer 1" xmlns="http://www.w3.org/2000/svg" viewBox="0 0 32 32"><defs><style>.cls-1{fill:none;stroke:#231f20;stroke-miterlimit:10;}</style></defs><polygon class="cls-1" points="1.5 1.5 1.5 4.5 0.5 4.5 0.5 4.5 1.5 4.5 1.5 8.5 0.5 8.5 0.5 8.5 1.5 8.5 1.5 12.5 0.5 12.5 0.5 12.5 1.5 12.5 1.5 16.5 0.5 16.5 0.5 16.5 1.5 16.5 1.5 20.5 0.5 20.5 0.5 20.5 1.5 20.5 1.5 24.5 0.5 24.5 0.5 24.5 1.5 24.5 1.5 28.5 0.5 28.5 0.5 28.5 1.5 28.5 1.5 30.5 3.5 30.5 3.5 31.5 3.5 31.5 3.5 30.5 7.5 30.5 7.5 31.5 7.5 31.5 7.5 30.5 11.5 30.5 11.5 31.5 11.5 31.5 11.5 30.5 15.5 30.5 15.5 31.5 15.5 31.5 15.5 30.5 19.5 30.5 19.5 31.5 19.5 31.5 19.5 30.5 23.5 30.5 23.5 31.5 23.5 31.5 23.5 30.5 27.5 30.5 27.5 31.5 27.5 31.5 27.5 30.5 30.5 30.5 30.5 1.5 1.5 1.5"/><rect class="cls-1" x="6.5" y="19.5" width="2" height="2"/><line class="cls-1" x1="5" y1="20.5" x2="7" y2="20.5"/><line class="cls-1" x1="8" y1="20.5" x2="11" y2="20.5"/><line class="cls-1" x1="4.5" y1="22" x2="4.5" y2="19"/><line class="cls-1" x1="10.5" y1="22" x2="10.5" y2="19"/><rect class="cls-1" x="16.5" y="5.5" width="2" height="2"/><line class="cls-1" x1="15" y1="6.5" x2="17" y2="6.5"/><line class="cls-1" x1="18" y1="6.5" x2="21" y2="6.5"/><line class="cls-1" x1="14.5" y1="8" x2="14.5" y2="5"/><line class="cls-1" x1="20.5" y1="8" x2="20.5" y2="5"/><rect class="cls-1" x="8.5" y="10.5" width="2" height="2"/><line class="cls-1" x1="7" y1="11.5" x2="9" y2="11.5"/><line class="cls-1" x1="10" y1="11.5" x2="13" y2="11.5"/><line class="cls-1" x1="6.5" y1="13" x2="6.5" y2="10"/><line class="cls-1" x1="12.5" y1="13" x2="12.5" y2="10"/><rect class="cls-1" x="24.5" y="13.5" width="2" height="2"/><line class="cls-1" x1="23" y1="14.5" x2="25" y2="14.5"/><line class="cls-1" x1="26" y1="14.5" x2="29" y2="14.5"/><line class="cls-1" x1="22.5" y1="16" x2="22.5" y2="13"/><line class="cls-1" x1="28.5" y1="16" x2="28.5" y2="13"/><rect class="cls-1" x="16.5" y="23.5" width="2" height="2"/><line class="cls-1" x1="15" y1="24.5" x2="17" y2="24.5"/><line class="cls-1" x1="18" y1="24.5" x2="21" y2="24.5"/><line class="cls-1" x1="14.5" y1="26" x2="14.5" y2="23"/><line class="cls-1" x1="20.5" y1="26" x2="20.5" y2="23"/></svg>