<svg id="Layer_1" data-name="Layer 1" xmlns="http://www.w3.org/2000/svg" viewBox="0 0 32 32"><defs><style>.cls-1,.cls-2{fill:none;stroke:#231f20;stroke-miterlimit:10;}.cls-2{stroke-dasharray:2;}</style></defs><polygon class="cls-1" points="1.5 1.5 1.5 4.5 0.5 4.5 0.5 4.5 1.5 4.5 1.5 8.5 0.5 8.5 0.5 8.5 1.5 8.5 1.5 12.5 0.5 12.5 0.5 12.5 1.5 12.5 1.5 16.5 0.5 16.5 0.5 16.5 1.5 16.5 1.5 20.5 0.5 20.5 0.5 20.5 1.5 20.5 1.5 24.5 0.5 24.5 0.5 24.5 1.5 24.5 1.5 28.5 0.5 28.5 0.5 28.5 1.5 28.5 1.5 30.5 3.5 30.5 3.5 31.5 3.5 31.5 3.5 30.5 7.5 30.5 7.5 31.5 7.5 31.5 7.5 30.5 11.5 30.5 11.5 31.5 11.5 31.5 11.5 30.5 15.5 30.5 15.5 31.5 15.5 31.5 15.5 30.5 19.5 30.5 19.5 31.5 19.5 31.5 19.5 30.5 23.5 30.5 23.5 31.5 23.5 31.5 23.5 30.5 27.5 30.5 27.5 31.5 27.5 31.5 27.5 30.5 30.5 30.5 30.5 1.5 1.5 1.5"/><rect class="cls-1" x="9.49" y="25.51" width="2" height="2"/><rect class="cls-1" x="13.49" y="17.51" width="2" height="2"/><rect class="cls-1" x="24.49" y="20.51" width="2" height="2"/><rect class="cls-1" x="17.49" y="23.51" width="2" height="2"/><rect class="cls-1" x="20.49" y="11.51" width="2" height="2"/><line class="cls-2" x1="9.49" y1="30.51" x2="30.51" y2="9.49"/><line class="cls-2" x1="1.48" y1="22.51" x2="22.49" y2="1.49"/><polygon class="cls-1" points="15.9 11.51 14.49 13.94 17.3 13.94 15.9 11.51"/><polygon class="cls-1" points="13.41 4.07 12.01 6.51 14.81 6.51 13.41 4.07"/><polygon class="cls-1" points="7.41 20.07 6.01 22.51 8.81 22.51 7.41 20.07"/><polygon class="cls-1" points="7.41 11.07 6.01 13.51 8.81 13.51 7.41 11.07"/><polygon class="cls-1" points="24.41 4.07 23.01 6.51 25.82 6.51 24.41 4.07"/></svg>