<svg id="Layer_1" data-name="Layer 1" xmlns="http://www.w3.org/2000/svg" viewBox="0 0 32 32"><defs><style>.cls-1,.cls-2{fill:none;stroke:#231f20;stroke-miterlimit:10;}.cls-2{stroke-dasharray:1;}</style></defs><polygon class="cls-1" points="1.5 1.5 1.5 4.5 0.5 4.5 0.5 4.5 1.5 4.5 1.5 8.5 0.5 8.5 0.5 8.5 1.5 8.5 1.5 12.5 0.5 12.5 0.5 12.5 1.5 12.5 1.5 16.5 0.5 16.5 0.5 16.5 1.5 16.5 1.5 20.5 0.5 20.5 0.5 20.5 1.5 20.5 1.5 24.5 0.5 24.5 0.5 24.5 1.5 24.5 1.5 28.5 0.5 28.5 0.5 28.5 1.5 28.5 1.5 30.5 3.5 30.5 3.5 31.5 3.5 31.5 3.5 30.5 7.5 30.5 7.5 31.5 7.5 31.5 7.5 30.5 11.5 30.5 11.5 31.5 11.5 31.5 11.5 30.5 15.5 30.5 15.5 31.5 15.5 31.5 15.5 30.5 19.5 30.5 19.5 31.5 19.5 31.5 19.5 30.5 23.5 30.5 23.5 31.5 23.5 31.5 23.5 30.5 27.5 30.5 27.5 31.5 27.5 31.5 27.5 30.5 30.5 30.5 30.5 1.5 1.5 1.5"/><circle class="cls-1" cx="5.5" cy="5.5" r="1"/><line class="cls-2" x1="5.5" y1="6" x2="5.5" y2="31"/><circle class="cls-1" cx="10.5" cy="8.5" r="1"/><line class="cls-2" x1="10.5" y1="9" x2="10.5" y2="31"/><circle class="cls-1" cx="15.5" cy="11.5" r="1"/><line class="cls-2" x1="15.5" y1="12" x2="15.5" y2="31"/><circle class="cls-1" cx="20.5" cy="14.5" r="1"/><line class="cls-2" x1="20.5" y1="15" x2="20.5" y2="31"/><circle class="cls-1" cx="25.5" cy="17.5" r="1"/><line class="cls-2" x1="25.5" y1="18" x2="25.5" y2="31"/></svg>