<svg id="Layer_1" data-name="Layer 1" xmlns="http://www.w3.org/2000/svg" viewBox="0 0 32 32"><defs><style>.cls-1{fill:none;stroke:#231f20;stroke-miterlimit:10;}</style></defs><polygon class="cls-1" points="1.5 1.5 1.5 4.5 0.5 4.5 0.5 4.5 1.5 4.5 1.5 8.5 0.5 8.5 0.5 8.5 1.5 8.5 1.5 12.5 0.5 12.5 0.5 12.5 1.5 12.5 1.5 16.5 0.5 16.5 0.5 16.5 1.5 16.5 1.5 20.5 0.5 20.5 0.5 20.5 1.5 20.5 1.5 24.5 0.5 24.5 0.5 24.5 1.5 24.5 1.5 28.5 0.5 28.5 0.5 28.5 1.5 28.5 1.5 30.5 3.5 30.5 3.5 31.5 3.5 31.5 3.5 30.5 7.5 30.5 7.5 31.5 7.5 31.5 7.5 30.5 11.5 30.5 11.5 31.5 11.5 31.5 11.5 30.5 15.5 30.5 15.5 31.5 15.5 31.5 15.5 30.5 19.5 30.5 19.5 31.5 19.5 31.5 19.5 30.5 23.5 30.5 23.5 31.5 23.5 31.5 23.5 30.5 27.5 30.5 27.5 31.5 27.5 31.5 27.5 30.5 30.5 30.5 30.5 1.5 1.5 1.5"/><rect class="cls-1" x="6.5" y="18.5" width="2" height="2"/><line class="cls-1" x1="5" y1="19.5" x2="7" y2="19.5"/><line class="cls-1" x1="8" y1="19.5" x2="13" y2="19.5"/><line class="cls-1" x1="4.5" y1="21" x2="4.5" y2="18"/><line class="cls-1" x1="12.5" y1="21" x2="12.5" y2="18"/><rect class="cls-1" x="18.5" y="5.5" width="2" height="2"/><line class="cls-1" x1="17" y1="6.5" x2="19" y2="6.5"/><line class="cls-1" x1="20" y1="6.5" x2="24" y2="6.5"/><line class="cls-1" x1="16.5" y1="8" x2="16.5" y2="5"/><line class="cls-1" x1="23.5" y1="8" x2="23.5" y2="5"/><rect class="cls-1" x="9.5" y="9.5" width="2" height="2"/><line class="cls-1" x1="5" y1="10.5" x2="10" y2="10.5"/><line class="cls-1" x1="11" y1="10.5" x2="14" y2="10.5"/><line class="cls-1" x1="5.5" y1="12" x2="5.5" y2="9"/><line class="cls-1" x1="13.5" y1="12" x2="13.5" y2="9"/><rect class="cls-1" x="22.5" y="14.5" width="2" height="2"/><line class="cls-1" x1="29" y1="15.5" x2="24" y2="15.5"/><line class="cls-1" x1="23" y1="15.5" x2="20" y2="15.5"/><line class="cls-1" x1="28.5" y1="17" x2="28.5" y2="14"/><line class="cls-1" x1="20.5" y1="17" x2="20.5" y2="14"/><rect class="cls-1" x="14.5" y="24.5" width="2" height="2"/><line class="cls-1" x1="13" y1="25.5" x2="15" y2="25.5"/><line class="cls-1" x1="16" y1="25.5" x2="20" y2="25.5"/><line class="cls-1" x1="12.5" y1="27" x2="12.5" y2="24"/><line class="cls-1" x1="19.5" y1="27" x2="19.5" y2="24"/></svg>