<svg id="Layer_1" data-name="Layer 1" xmlns="http://www.w3.org/2000/svg" viewBox="0 0 32 32"><defs><style>.cls-1{fill:none;stroke:#231f20;stroke-miterlimit:10;}</style></defs><polygon class="cls-1" points="1.5 1.5 1.5 4.5 0.5 4.5 0.5 4.5 1.5 4.5 1.5 8.5 0.5 8.5 0.5 8.5 1.5 8.5 1.5 12.5 0.5 12.5 0.5 12.5 1.5 12.5 1.5 16.5 0.5 16.5 0.5 16.5 1.5 16.5 1.5 20.5 0.5 20.5 0.5 20.5 1.5 20.5 1.5 24.5 0.5 24.5 0.5 24.5 1.5 24.5 1.5 28.5 0.5 28.5 0.5 28.5 1.5 28.5 1.5 30.5 3.5 30.5 3.5 31.5 3.5 31.5 3.5 30.5 7.5 30.5 7.5 31.5 7.5 31.5 7.5 30.5 11.5 30.5 11.5 31.5 11.5 31.5 11.5 30.5 15.5 30.5 15.5 31.5 15.5 31.5 15.5 30.5 19.5 30.5 19.5 31.5 19.5 31.5 19.5 30.5 23.5 30.5 23.5 31.5 23.5 31.5 23.5 30.5 27.5 30.5 27.5 31.5 27.5 31.5 27.5 30.5 30.5 30.5 30.5 1.5 1.5 1.5"/><rect class="cls-1" x="6.5" y="7.5" width="2" height="2"/><line class="cls-1" x1="7.5" y1="6" x2="7.5" y2="8"/><line class="cls-1" x1="7.5" y1="9" x2="7.5" y2="12"/><line class="cls-1" x1="6" y1="5.5" x2="9" y2="5.5"/><line class="cls-1" x1="6" y1="11.5" x2="9" y2="11.5"/><rect class="cls-1" x="16.5" y="10.5" width="2" height="2"/><line class="cls-1" x1="17.5" y1="9" x2="17.5" y2="11"/><line class="cls-1" x1="17.5" y1="12" x2="17.5" y2="15"/><line class="cls-1" x1="16" y1="8.5" x2="19" y2="8.5"/><line class="cls-1" x1="16" y1="14.5" x2="19" y2="14.5"/><rect class="cls-1" x="7.5" y="21.5" width="2" height="2"/><line class="cls-1" x1="8.5" y1="20" x2="8.5" y2="22"/><line class="cls-1" x1="8.5" y1="23" x2="8.5" y2="26"/><line class="cls-1" x1="7" y1="19.5" x2="10" y2="19.5"/><line class="cls-1" x1="7" y1="25.5" x2="10" y2="25.5"/><line class="cls-1" x1="14.5" y1="16" x2="14.5" y2="18"/><line class="cls-1" x1="14.5" y1="20" x2="14.5" y2="23"/><line class="cls-1" x1="13" y1="15.5" x2="16" y2="15.5"/><line class="cls-1" x1="13" y1="22.5" x2="16" y2="22.5"/><polygon class="cls-1" points="16.21 20.47 12.79 20.48 14.47 17.52 16.21 20.47"/><line class="cls-1" x1="25.5" y1="18" x2="25.5" y2="20"/><line class="cls-1" x1="25.5" y1="22" x2="25.5" y2="25"/><line class="cls-1" x1="24" y1="17.5" x2="27" y2="17.5"/><line class="cls-1" x1="24" y1="24.5" x2="27" y2="24.5"/><polygon class="cls-1" points="27.21 22.5 23.79 22.51 25.47 19.55 27.21 22.5"/><line class="cls-1" x1="24.5" y1="6" x2="24.5" y2="8"/><line class="cls-1" x1="24.5" y1="10" x2="24.5" y2="13"/><line class="cls-1" x1="23" y1="5.5" x2="26" y2="5.5"/><line class="cls-1" x1="23" y1="12.5" x2="26" y2="12.5"/><polygon class="cls-1" points="26.21 10.5 22.79 10.51 24.47 7.55 26.21 10.5"/></svg>