<svg id="Layer_1" data-name="Layer 1" xmlns="http://www.w3.org/2000/svg" viewBox="0 0 16 16"><path d="M1,0V1H0V0ZM1,2V3H0V2ZM1,4V5H0V4ZM0,6H1V7H0ZM0,9V8H1V9Zm0,2V10H1v1Zm0,2V12H1v1Zm0,2V14H1v1ZM2,7V8H1V7ZM3,0V1H2V0ZM2,15V14H3v1ZM4,7V8H3V7ZM5,0V1H4V0ZM4,15V14H5v1ZM6,7V8H5V7ZM7,0V1H6V0Zm9,14H15a2.76,2.76,0,0,0-.16-1,3.06,3.06,0,0,0-.47-.8,3.46,3.46,0,0,0-.68-.64,4,4,0,0,0-.83-.47,4.67,4.67,0,0,0-.92-.28,4.36,4.36,0,0,0-.94-.1,4.27,4.27,0,0,0-.93.1,5,5,0,0,0-.93.28,4.54,4.54,0,0,0-.83.47,3.44,3.44,0,0,0-.68.64,3,3,0,0,0-.46.8A2.77,2.77,0,0,0,7,14H6a3.53,3.53,0,0,1,.21-1.23,4,4,0,0,1,.55-1,4.77,4.77,0,0,1,.84-.84,5.72,5.72,0,0,1,1-.62,5.65,5.65,0,0,1,1.16-.39A5.44,5.44,0,0,1,11,9.75a5.53,5.53,0,0,1,1.21.13,5.86,5.86,0,0,1,1.16.39,6.08,6.08,0,0,1,1,.62,4.71,4.71,0,0,1,.83.84,4,4,0,0,1,.56,1A3.53,3.53,0,0,1,16,14ZM8,2H7V1H8ZM8,3V4H7V3ZM8,5V6H7V5ZM8,7V8H7V7ZM7,9.8V9H8v.2A9.12,9.12,0,0,0,7,9.8ZM9,0V1H8V0ZM9,8V7h1V8Zm2,4.06a2,2,0,0,1,.78.16,2.06,2.06,0,0,1,.64.43,2.13,2.13,0,0,1,.43.63,2.13,2.13,0,0,1,0,1.57,2.13,2.13,0,0,1-.43.63,2.06,2.06,0,0,1-.64.43,2,2,0,0,1-.78.15,2.08,2.08,0,0,1-.78-.15,2.18,2.18,0,0,1-.64-.43,2.1,2.1,0,0,1-.42-.63,2,2,0,0,1,0-1.57,2.1,2.1,0,0,1,.42-.63,2.18,2.18,0,0,1,.64-.43A2.09,2.09,0,0,1,11,12.06ZM11,0V1H10V0Zm0,15.06a1,1,0,0,0,.39-.07,1.21,1.21,0,0,0,.32-.22,1,1,0,0,0,.21-.32.85.85,0,0,0,.08-.39.84.84,0,0,0-.08-.38,1,1,0,0,0-.21-.32,1,1,0,0,0-.71-.3,1,1,0,0,0-.38.08.91.91,0,0,0-.32.22,1,1,0,0,0-.22.32,1,1,0,0,0-.08.38,1,1,0,0,0,.3.71,1.07,1.07,0,0,0,.32.22A1,1,0,0,0,11,15.06ZM11,8V7h1V8Zm2-8V1H12V0Zm0,8V7h1V8Zm2-8V1H14V0Zm0,2V3H14V2Zm0,2V5H14V4Zm0,2V7H14V6Zm0,3H14V8h1Z"/></svg>