<svg xmlns="http://www.w3.org/2000/svg" viewBox="0 0 78.8 100.1"><defs><style>.cls-1{fill:none;}</style></defs><g id="Layer_2" data-name="Layer 2"><g id="Layer_1-2" data-name="Layer 1"><path d="M78.6,27.5H75c-.6-7.2-3.1-12.7-7.4-16.3S57.3,5.6,49.5,5.6H21L57.4,45.7v2.2L18.2,85.5H62.8c4.7,0,7.8-.9,9.4-2.6s2.6-5.2,3-10.4h3.6v27.6H0V94L43.9,51.8,0,3.5V0H78.6Z"/><polygon class="cls-1" points="24.9 46 24.9 54.1 24.9 54.1 24.9 46.1 24.9 46"/><polygon class="cls-1" points="10.1 29.5 10.1 68.2 10.1 68.2 10.1 29.5"/><polygon class="cls-1" points="3.9 22.6 3.9 74.1 3.9 74.1 3.9 22.6"/><polygon class="cls-1" points="12.4 32.1 12.4 65.9 12.4 65.9 12.4 32.2 12.4 32.1"/><polygon class="cls-1" points="6.2 25.2 6.2 71.9 6.2 71.9 6.2 25.2"/><polygon class="cls-1" points="22.5 43.4 22.5 56.3 22.5 56.3 22.5 43.5 22.5 43.4"/><polygon class="cls-1" points="18.6 39.1 18.6 60 18.6 60 18.6 39.1"/><polygon class="cls-1" points="16.3 36.5 16.3 62.2 16.3 62.2 16.3 36.5"/><polygon points="1 19.8 1 79.3 4.9 75.6 4.9 24.1 1 19.8"/><polygon points="7.2 26.7 7.2 73.4 11.1 69.7 11.1 31.1 7.2 26.7"/><polygon points="13.4 33.7 13.4 67.5 17.3 63.8 17.3 38 13.4 33.7"/><polygon points="19.6 40.6 19.6 61.5 23.5 57.8 23.5 45 19.6 40.6"/><polygon points="25.9 55.6 29.7 51.9 25.9 47.6 25.9 55.6"/></g></g></svg>