<svg id="Layer_1" data-name="Layer 1" xmlns="http://www.w3.org/2000/svg" viewBox="0 0 32 32"><defs><style>.cls-1,.cls-2{fill:none;stroke:#231f20;stroke-miterlimit:10;}.cls-2{stroke-dasharray:1;}</style></defs><polygon class="cls-1" points="1.46 1.51 1.46 4.51 0.46 4.51 0.46 4.51 1.46 4.51 1.46 8.51 0.46 8.51 0.46 8.51 1.46 8.51 1.46 12.51 0.46 12.51 0.46 12.51 1.46 12.51 1.46 16.51 0.46 16.51 0.46 16.51 1.46 16.51 1.46 20.51 0.46 20.51 0.46 20.51 1.46 20.51 1.46 24.51 0.46 24.51 0.46 24.51 1.46 24.51 1.46 28.51 0.46 28.51 0.46 28.51 1.46 28.51 1.46 30.51 3.46 30.51 3.46 31.51 3.46 31.51 3.46 30.51 7.46 30.51 7.46 31.51 7.46 31.51 7.46 30.51 11.46 30.51 11.46 31.51 11.46 31.51 11.46 30.51 15.46 30.51 15.46 31.51 15.46 31.51 15.46 30.51 19.46 30.51 19.46 31.51 19.46 31.51 19.46 30.51 23.46 30.51 23.46 31.51 23.46 31.51 23.46 30.51 27.46 30.51 27.46 31.51 27.46 31.51 27.46 30.51 30.46 30.51 30.46 1.51 1.46 1.51"/><circle class="cls-1" cx="4.45" cy="26.72" r="1"/><path class="cls-2" d="M5.24,26.11s2.08-4.48,6.1-4.09"/><path class="cls-2" d="M13.29,21.76c2.33-1.81,4.37,3.54,5.57,3"/><path class="cls-2" d="M20.23,24.1c2.07.52-.46-7.14,2.66-7.92"/><path class="cls-2" d="M24.31,15.47c.85-.71,2.14.65,2.14.65"/><path class="cls-1" d="M4.85,19.3s-.13-3.25,2.08-3.7"/><path class="cls-1" d="M8.45,14.92c.17.29,1.46,1,2.31,1.78"/><path class="cls-1" d="M12.12,15.53c1.81-.64-.78-3.76.68-5.22"/><path class="cls-1" d="M14.19,9.18c1.76-1.49,4,2.07,5.13,2.14"/><path class="cls-1" d="M21.46,10.15c1.3,1.49,2.2-3.63,2.2-3.63"/><circle class="cls-1" cx="12.34" cy="21.38" r="1"/><circle class="cls-1" cx="19.81" cy="25" r="1"/><circle class="cls-1" cx="23.33" cy="15.26" r="1"/><circle class="cls-1" cx="27.39" cy="16.28" r="1"/><rect class="cls-1" x="3.31" y="19.35" width="2" height="2"/><rect class="cls-1" x="6.55" y="13.61" width="2" height="2"/><rect class="cls-1" x="10.76" y="15.54" width="2" height="2"/><rect class="cls-1" x="11.95" y="8.31" width="2" height="2"/><rect class="cls-1" x="19.44" y="9.98" width="2" height="2"/><rect class="cls-1" x="22.85" y="4.4" width="2" height="2"/></svg>