<svg id="Layer_1" data-name="Layer 1" xmlns="http://www.w3.org/2000/svg" viewBox="0 0 16 16"><path d="M16,8.94v1h-.59A5.61,5.61,0,0,1,15,11.42a4.25,4.25,0,0,1-.74,1.23,3.51,3.51,0,0,1-1.13.84,3.38,3.38,0,0,1-1.5.31,2.83,2.83,0,0,1-2.62-1.54H9v1.35H8V9.94H7v3.67h-1V12.13h0a3.06,3.06,0,0,1-1.1,1.23,2.89,2.89,0,0,1-1.6.44,3.4,3.4,0,0,1-1-.15,2.38,2.38,0,0,1-.83-.45,2.09,2.09,0,0,1-.55-.75,2.38,2.38,0,0,1-.21-1,3.33,3.33,0,0,1,.1-.78A2.2,2.2,0,0,1,1,9.94H0v-1H2.57l.13,0L3,8.86l.28-.07.18,0,2.52-.37a4.46,4.46,0,0,0-.09-.91,2.09,2.09,0,0,0-.29-.77A1.51,1.51,0,0,0,5,6.19,1.91,1.91,0,0,0,4.08,6a3.67,3.67,0,0,0-1.45.28,5.32,5.32,0,0,0-1.25.78V5.92A3.34,3.34,0,0,1,2,5.57a4.66,4.66,0,0,1,.71-.26,4.89,4.89,0,0,1,.74-.16,4.56,4.56,0,0,1,.72-.06,3.3,3.3,0,0,1,1.28.22,2.19,2.19,0,0,1,.88.63,2.54,2.54,0,0,1,.49,1A4.62,4.62,0,0,1,7,8.19v.75H8V1.29H9V6.88h0a3.37,3.37,0,0,1,1.23-1.33A3.42,3.42,0,0,1,12,5.09a3.26,3.26,0,0,1,1.48.31,3,3,0,0,1,1,.84,4,4,0,0,1,.63,1.22,5.52,5.52,0,0,1,.23,1.48Zm-10,1H2.43a1.15,1.15,0,0,0-.6.59,2.15,2.15,0,0,0-.16.83,1.62,1.62,0,0,0,.14.68,1.35,1.35,0,0,0,.37.48,1.7,1.7,0,0,0,.55.29,2.46,2.46,0,0,0,.67.09,2.56,2.56,0,0,0,.79-.12,2.3,2.3,0,0,0,.66-.34,2.38,2.38,0,0,0,.52-.53,2.55,2.55,0,0,0,.37-.69,2.25,2.25,0,0,0,.16-.63A4.45,4.45,0,0,0,5.94,9.94ZM9,8.94h5.33a4.16,4.16,0,0,0-.18-1.11,3,3,0,0,0-.46-.94,2.41,2.41,0,0,0-.77-.65A2.3,2.3,0,0,0,11.83,6a2.81,2.81,0,0,0-1.15.23,2.5,2.5,0,0,0-.87.63,3,3,0,0,0-.57.94A3.61,3.61,0,0,0,9,8.94Zm5.29,1H9v.21a2.89,2.89,0,0,0,.19,1.06,2.69,2.69,0,0,0,.53.88,2.64,2.64,0,0,0,.83.6,2.61,2.61,0,0,0,1.06.21,2.34,2.34,0,0,0,1.12-.25,2.42,2.42,0,0,0,.8-.66,3.1,3.1,0,0,0,.51-1A4.62,4.62,0,0,0,14.31,9.94Z"/></svg>