<?xml version="1.0" encoding="iso-8859-1"?>
<!-- Generator: Adobe Illustrator 19.0.0, SVG Export Plug-In . SVG Version: 6.00 Build 0)  -->
<svg version="1.1" id="Layer_1" xmlns="http://www.w3.org/2000/svg" xmlns:xlink="http://www.w3.org/1999/xlink" x="0px" y="0px"
	 viewBox="0 0 512.007 512.007" style="enable-background:new 0 0 512.007 512.007;" xml:space="preserve">
<g>
	<g>
		<path d="M444.91,261.333c-0.213,0-0.427,0-0.64,0h-177.6v-240h166.4v74.56c0,4.907,3.307,9.387,8.107,10.453
			c7.04,1.707,13.227-3.627,13.227-10.347V10.453C454.404,4.693,449.71,0,443.95,0H68.057c-5.76,0-10.453,4.693-10.453,10.453V94.08
			c0.213,5.76,5.12,10.347,10.987,10.133C74.243,104,78.724,99.627,78.937,94.08V21.333h166.4v240h-177.6
			c-5.76-0.213-10.56,4.48-10.773,10.347c-0.213,5.867,4.373,10.773,10.133,10.987c0.213,0,0.427,0,0.64,0h177.6v208h-53.44
			c-5.867-0.213-10.773,4.48-10.987,10.347c-0.213,5.867,4.48,10.773,10.347,10.987c0.213,0,0.427,0,0.64,0h128.107
			c5.867,0.213,10.773-4.48,10.987-10.347c0.213-5.867-4.48-10.773-10.347-10.987c-0.213,0-0.427,0-0.64,0H266.67v-208h177.6
			c5.76,0.213,10.56-4.48,10.773-10.347C455.257,266.453,450.67,261.547,444.91,261.333z"/>
	</g>
</g>
<g>
</g>
<g>
</g>
<g>
</g>
<g>
</g>
<g>
</g>
<g>
</g>
<g>
</g>
<g>
</g>
<g>
</g>
<g>
</g>
<g>
</g>
<g>
</g>
<g>
</g>
<g>
</g>
<g>
</g>
</svg>
