<svg id="Layer_1" data-name="Layer 1" xmlns="http://www.w3.org/2000/svg" viewBox="0 0 32 32"><defs><style>.cls-1{fill:none;stroke:#231f20;stroke-miterlimit:10;}</style></defs><polygon class="cls-1" points="15.98 3.15 1.97 27.42 30 27.42 15.98 3.15"/><polyline class="cls-1" points="8.38 28.23 9.36 28.23 9.46 28.23"/><polyline class="cls-1" points="4.08 28.23 5.05 28.23 5.15 28.23"/><polyline class="cls-1" points="12.69 28.23 13.66 28.23 13.76 28.23"/><polyline class="cls-1" points="16.99 28.23 17.97 28.23 18.07 28.23"/><polyline class="cls-1" points="21.29 28.23 22.27 28.23 22.37 28.23"/><polyline class="cls-1" points="25.6 28.23 26.57 28.23 26.68 28.23"/><line class="cls-1" x1="4.99" y1="19.9" x2="6.51" y2="19.9"/><line class="cls-1" x1="2.47" y1="24.21" x2="3.99" y2="24.21"/><line class="cls-1" x1="7.4" y1="15.57" x2="8.92" y2="15.57"/><line class="cls-1" x1="9.92" y1="11.27" x2="11.44" y2="11.27"/><line class="cls-1" x1="12.36" y1="6.96" x2="13.88" y2="6.96"/><line class="cls-1" x1="26.9" y1="19.93" x2="25.38" y2="19.93"/><line class="cls-1" x1="29.42" y1="24.23" x2="27.9" y2="24.23"/><line class="cls-1" x1="24.49" y1="15.6" x2="22.97" y2="15.6"/><line class="cls-1" x1="21.96" y1="11.29" x2="20.45" y2="11.29"/><line class="cls-1" x1="19.52" y1="6.99" x2="18.01" y2="6.99"/><polyline class="cls-1" points="8.18 24.9 14.05 20.58 18.09 23.12 20.16 15.68 14.5 12.23"/></svg>