<?xml version="1.0" encoding="utf-8"?>
<!-- Generator: Adobe Illustrator 25.2.3, SVG Export Plug-In . SVG Version: 6.00 Build 0)  -->
<svg version="1.1" id="Layer_1" xmlns="http://www.w3.org/2000/svg" xmlns:xlink="http://www.w3.org/1999/xlink" x="0px" y="0px"
	 viewBox="0 0 16 16" style="enable-background:new 0 0 16 16;" xml:space="preserve">
<style type="text/css">
	.st0{fill:#FFCF16;stroke:#000000;stroke-width:0.25;stroke-miterlimit:10;}
</style>
<path class="st0" d="M10.9,5.1c-0.1-0.5-0.3-0.9-0.5-1.3C10.2,3.4,10,3.2,9.1,3.2H7.5V11c0,1.2,0.1,1.4,1.7,1.5V13H4.5v-0.4
	C6,12.5,6.1,12.3,6.1,11V3.2H4.7c-0.9,0-1.1,0.1-1.4,0.6C3.1,4.2,2.9,4.7,2.7,5.1H2.3c0.1-1,0.2-2,0.2-2.9h0.4
	c0.2,0.4,0.4,0.4,0.9,0.4h6.3c0.3,0.1,0.6-0.1,0.8-0.4h0.4c0,0.8,0.1,1.9,0.1,2.8L10.9,5.1z"/>
<path d="M13.3,12.7c0-0.1,0-0.2,0-0.3l0.7-0.3l-0.3-0.6l-0.7,0.3c-0.1-0.2-0.3-0.3-0.5-0.5l0.3-0.7l-0.6-0.3L12,11
	c-0.1,0-0.2,0-0.3,0c-0.1,0-0.2,0-0.3,0L11,10.3l-0.6,0.3l0.3,0.7c-0.2,0.1-0.3,0.3-0.5,0.5l-0.7-0.3l-0.3,0.6l0.7,0.3
	c0,0.1,0,0.2,0,0.3c0,0.1,0,0.2,0,0.3l-0.7,0.3l0.3,0.6l0.7-0.3c0.1,0.2,0.3,0.3,0.5,0.5l-0.3,0.7L11,15l0.3-0.7c0.1,0,0.2,0,0.3,0
	c0.1,0,0.2,0,0.3,0l0.3,0.7l0.6-0.3l-0.3-0.7c0.2-0.1,0.3-0.3,0.5-0.5l0.7,0.3l0.3-0.6L13.3,13C13.3,12.9,13.3,12.8,13.3,12.7z
	 M12.6,13.1c-0.1,0.1-0.1,0.2-0.2,0.3c-0.1,0.1-0.2,0.2-0.3,0.2c-0.1,0.1-0.3,0.1-0.4,0.1c-0.1,0-0.3,0-0.4-0.1
	c-0.1-0.1-0.2-0.1-0.3-0.2c-0.1-0.1-0.2-0.2-0.2-0.3c-0.1-0.1-0.1-0.3-0.1-0.4c0-0.1,0-0.3,0.1-0.4c0.1-0.1,0.1-0.2,0.2-0.3
	c0.1-0.1,0.2-0.2,0.3-0.2c0.1-0.1,0.3-0.1,0.4-0.1c0.1,0,0.3,0,0.4,0.1c0.1,0.1,0.2,0.1,0.3,0.2c0.1,0.1,0.2,0.2,0.2,0.3
	c0.1,0.1,0.1,0.3,0.1,0.4C12.6,12.8,12.6,12.9,12.6,13.1z"/>
</svg>
