<svg id="Layer_1" data-name="Layer 1" xmlns="http://www.w3.org/2000/svg" viewBox="0 0 16 16"><path d="M10.94,5.11a6.88,6.88,0,0,0-.51-1.33c-.26-.43-.42-.54-1.3-.54H7.53V11c0,1.25.13,1.43,1.65,1.52V13H4.52v-.45C6,12.46,6.14,12.3,6.14,11V3.24H4.68c-.88,0-1.14.09-1.41.57a7.74,7.74,0,0,0-.53,1.3H2.26c.1-1,.19-2,.24-2.88h.37c.24.38.42.37.87.37h6.33a.82.82,0,0,0,.82-.37h.38c0,.75.07,1.9.15,2.83Z"/><path d="M13.33,12.67a1.84,1.84,0,0,0,0-.33l.67-.27-.26-.64-.67.28a1.87,1.87,0,0,0-.46-.47l.28-.66-.64-.27-.28.67a1.66,1.66,0,0,0-.32,0,1.76,1.76,0,0,0-.33,0L11,10.31l-.63.27.27.66a1.87,1.87,0,0,0-.46.47l-.66-.28-.27.64.67.27a1.84,1.84,0,0,0,0,.33,1.66,1.66,0,0,0,0,.32l-.67.28.27.64.66-.28a2,2,0,0,0,.46.46l-.27.67L11,15l.28-.67a1.75,1.75,0,0,0,.33,0,1.65,1.65,0,0,0,.32,0l.28.67.64-.26-.28-.67a2,2,0,0,0,.46-.46l.67.28.26-.64L13.3,13A1.66,1.66,0,0,0,13.33,12.67Zm-.76.4a1.46,1.46,0,0,1-.22.33,1.46,1.46,0,0,1-.33.22,1.1,1.1,0,0,1-.4.08,1.11,1.11,0,0,1-.41-.08,1.21,1.21,0,0,1-.32-.22,1.23,1.23,0,0,1-.23-.33,1.1,1.1,0,0,1-.08-.4,1.11,1.11,0,0,1,.08-.41,1,1,0,0,1,.23-.32.87.87,0,0,1,.32-.22.94.94,0,0,1,.41-.08.92.92,0,0,1,.4.08,1,1,0,0,1,.33.22,1.21,1.21,0,0,1,.22.32,1.11,1.11,0,0,1,.08.41A1.1,1.1,0,0,1,12.57,13.07Z"/></svg>