<svg id="Layer_1" data-name="Layer 1" xmlns="http://www.w3.org/2000/svg" viewBox="0 0 16 16"><path d="M15,13H10.7l1.64,1.64-.7.71L8.79,12.46,11.64,9.6l.7.71L10.7,12H14V5h1Z"/><path d="M4.42,8.54l-.09-.73h0a2.19,2.19,0,0,1-1.78.86A1.65,1.65,0,0,1,.75,7C.75,5.6,2,4.83,4.24,4.85V4.73A1.2,1.2,0,0,0,2.92,3.38a2.9,2.9,0,0,0-1.51.43l-.24-.69a3.6,3.6,0,0,1,1.9-.52C4.85,2.6,5.28,3.81,5.28,5V7.15a8.4,8.4,0,0,0,.1,1.39Zm-.16-3c-1.15,0-2.46.18-2.46,1.3a.94.94,0,0,0,1,1,1.45,1.45,0,0,0,1.4-1,1,1,0,0,0,.06-.34Z"/><path d="M6.94,8.54c0-.4,0-1,0-1.5V0H8V3.67h0A2.15,2.15,0,0,1,10,2.6c1.44,0,2.46,1.2,2.45,3,0,2.07-1.31,3.1-2.6,3.1A2.06,2.06,0,0,1,7.94,7.58h0l-.05,1ZM8,6.21a2.3,2.3,0,0,0,.05.39A1.62,1.62,0,0,0,9.66,7.83c1.11,0,1.77-.9,1.77-2.23,0-1.16-.6-2.16-1.73-2.16a1.69,1.69,0,0,0-1.61,1.3A2.34,2.34,0,0,0,8,5.17Z"/><path d="M5.27,15.23a3.74,3.74,0,0,1-1.67.34,2.75,2.75,0,0,1-2.88-3A3,3,0,0,1,3.83,9.52a3.61,3.61,0,0,1,1.47.3l-.24.82a2.53,2.53,0,0,0-1.23-.28,2,2,0,0,0-2,2.2,2,2,0,0,0,2,2.17,3,3,0,0,0,1.29-.29Z"/></svg>