<?xml version="1.0" encoding="utf-8"?>
<!-- Generator: Adobe Illustrator 25.2.3, SVG Export Plug-In . SVG Version: 6.00 Build 0)  -->
<svg version="1.1" id="Layer_1" xmlns="http://www.w3.org/2000/svg" xmlns:xlink="http://www.w3.org/1999/xlink" x="0px" y="0px"
	 viewBox="0 0 16 16" style="enable-background:new 0 0 16 16;" xml:space="preserve">
<path d="M7.9,4.2c0.3,0,0.7,0,1,0.1c0.6,0.2,1.2,0.5,1.7,1c0.2,0.2,0.4,0.5,0.6,0.8c0.3,0.6,0.5,1.3,0.5,1.9c0,0.5-0.1,1-0.3,1.5
	c-0.2,0.5-0.5,0.9-0.8,1.2c-0.3,0.3-0.5,0.6-0.7,1c-0.2,0.4-0.2,0.8-0.2,1.2v1.4c0,0.1,0,0.3-0.1,0.4c0,0.1-0.1,0.2-0.2,0.3
	c-0.1,0.1-0.2,0.2-0.3,0.2c-0.1,0.1-0.3,0.1-0.4,0.1H7.2c-0.1,0-0.3,0-0.4-0.1c-0.1,0-0.2-0.1-0.3-0.2c-0.1-0.1-0.2-0.2-0.2-0.3
	c-0.1-0.1-0.1-0.3-0.1-0.4v-1.4c0-0.4-0.1-0.8-0.2-1.2c-0.2-0.4-0.4-0.7-0.7-1c-0.3-0.4-0.6-0.8-0.8-1.2C4.2,9,4.1,8.5,4.1,8
	c0-1,0.4-2,1.1-2.7C5.4,5.1,5.7,4.9,6,4.7C6.6,4.4,7.2,4.2,7.9,4.2z M9,12.5c0-0.4,0.2-0.9,0.4-1.3c0.2-0.4,0.5-0.8,0.8-1.1
	c0.3-0.3,0.5-0.6,0.7-1C11,8.8,11,8.4,11,8c0-0.4-0.1-0.8-0.2-1.2c-0.2-0.4-0.4-0.7-0.7-1c-0.3-0.3-0.6-0.5-1-0.7
	c-0.8-0.3-1.7-0.3-2.4,0C6.3,5.3,6,5.5,5.7,5.8C5.4,6.1,5.2,6.4,5,6.8C4.8,7.2,4.8,7.6,4.8,8c0,0.4,0.1,0.8,0.2,1.2
	c0.2,0.4,0.4,0.7,0.7,1c0.3,0.3,0.6,0.7,0.8,1.1c0.2,0.4,0.3,0.8,0.4,1.3H9z M8.6,14.6c0.2,0,0.3-0.2,0.3-0.3v-1H6.9v1
	c0,0.1,0,0.2,0.1,0.2c0.1,0.1,0.2,0.1,0.2,0.1H8.6z"/>
<path d="M3,2.9c0.4,0.4,1.4,1.4,1.7,1.7c0.1,0.1-0.4,0.6-0.5,0.5C3.8,4.7,2.9,3.8,2.5,3.4C2.4,3.3,2.8,2.8,3,2.9z"/>
<path d="M13.1,3.3c-0.4,0.4-1.4,1.4-1.7,1.7c-0.1,0.1-0.6-0.4-0.5-0.5c0.4-0.4,1.3-1.2,1.7-1.7C12.8,2.7,13.3,3.2,13.1,3.3z"/>
<path d="M8.2,1.1c0,0.5,0,1.9,0,2.4c0,0.2-0.7,0.2-0.7,0c0-0.6,0-1.8,0-2.4C7.6,0.9,8.2,0.9,8.2,1.1z"/>
<g>
	<path d="M1.1,7.3c0.5,0,1.9,0,2.4,0c0.2,0,0.2,0.7,0,0.7C2.9,8,1.7,8,1.1,8C0.9,8,0.9,7.3,1.1,7.3z"/>
	<path d="M14.7,8c-0.5,0-1.9,0-2.4,0c-0.2,0-0.2-0.7,0-0.7c0.6,0,1.8,0,2.4,0C14.9,7.3,14.9,8,14.7,8z"/>
</g>
</svg>
