<svg id="Layer_1" data-name="Layer 1" xmlns="http://www.w3.org/2000/svg" viewBox="0 0 16 16"><defs><style>.cls-1,.cls-2,.cls-3{fill:none;stroke:#231f20;stroke-miterlimit:10;}.cls-2{stroke-dasharray:1 1;}.cls-3{stroke-dasharray:0.92 0.92;}</style></defs><polyline class="cls-1" points="13.5 13 13.5 13.5 13 13.5"/><line class="cls-2" x1="12" y1="13.5" x2="2.5" y2="13.5"/><polyline class="cls-1" points="2 13.5 1.5 13.5 1.5 13"/><line class="cls-2" x1="1.5" y1="12" x2="1.5" y2="2.5"/><polyline class="cls-1" points="1.5 2 1.5 1.5 2 1.5"/><line class="cls-2" x1="3" y1="1.5" x2="12.5" y2="1.5"/><polyline class="cls-1" points="13 1.5 13.5 1.5 13.5 2"/><line class="cls-2" x1="13.5" y1="3" x2="13.5" y2="12.5"/><line class="cls-1" x1="7.5" y1="1" x2="7.5" y2="1.5"/><line class="cls-3" x1="7.5" y1="2.42" x2="7.5" y2="13.04"/><line class="cls-1" x1="7.5" y1="13.5" x2="7.5" y2="14"/><line class="cls-1" x1="1" y1="7.5" x2="1.5" y2="7.5"/><line class="cls-3" x1="2.42" y1="7.5" x2="13.04" y2="7.5"/><line class="cls-1" x1="13.5" y1="7.5" x2="14" y2="7.5"/><line class="cls-1" x1="1" y1="1.5" x2="14" y2="1.5"/></svg>