<svg id="Layer_1" data-name="Layer 1" xmlns="http://www.w3.org/2000/svg" viewBox="0 0 16 16"><path d="M15.51,1.24a1.42,1.42,0,0,0-.34-.53,1.36,1.36,0,0,0-.49-.29A1.59,1.59,0,0,0,14.06.3a1.71,1.71,0,0,0-.59.11,1.66,1.66,0,0,0-.49.3L7.36,6.34l-.73,3L9.57,8.6,15.17,3a1.31,1.31,0,0,0,.34-.5,1.57,1.57,0,0,0,.12-.6A1.49,1.49,0,0,0,15.51,1.24Zm-1,1-5.4,5.4L8,7.91l.27-1,5.4-5.41a.58.58,0,0,1,.18-.11.74.74,0,0,1,.21,0,.56.56,0,0,1,.41.16.47.47,0,0,1,0,.7Z"/><polygon points="11 7.15 11 15 1 15 1 4 9.68 4 10.67 3 0 3 0 16 12 16 12 6.15 11 7.15"/><rect x="3.09" y="6.06" width="3" height="1"/><rect x="3.09" y="9.06" width="3" height="1"/><rect x="3.02" y="12.01" width="6" height="1"/></svg>