<svg id="Layer_1" data-name="Layer 1" xmlns="http://www.w3.org/2000/svg" viewBox="0 0 16 16"><defs><style>.cls-1{fill:none;stroke:#000;stroke-miterlimit:10;}</style></defs><polyline class="cls-1" points="14.9 13.36 12.99 15 11.08 13.25"/><path class="cls-1" d="M13,15s.84-4.3-1.91-4.55-2.73,2.8-2.73,2.8"/><path d="M11,16V15H6V9h8v1h1V8H12V2H8a1.83,1.83,0,0,0-.16-.77A2,2,0,0,0,6.77.16a2,2,0,0,0-1.55,0,2.13,2.13,0,0,0-.63.43,2.06,2.06,0,0,0-.43.64A1.83,1.83,0,0,0,4,2H0V15H5v1M3,3H5V2.74a2.62,2.62,0,0,1,0-.28,4.71,4.71,0,0,1,0-.53,1.42,1.42,0,0,1,.13-.47.82.82,0,0,1,.31-.33A.94.94,0,0,1,6,1a.94.94,0,0,1,.54.13.82.82,0,0,1,.31.33A1.42,1.42,0,0,1,7,1.93a4.71,4.71,0,0,1,0,.53,2.62,2.62,0,0,1,0,.28V3H9V4H3ZM5,14H1V3H2V5h8V3h1V8H5Z"/></svg>