<svg id="Layer_1" data-name="Layer 1" xmlns="http://www.w3.org/2000/svg" viewBox="0 0 16 16"><path d="M2.72,15h10v1h-10Zm4.9-1a5.67,5.67,0,0,1-2.14-.36A3.67,3.67,0,0,1,4,12.6,4.16,4.16,0,0,1,3.22,11,8.25,8.25,0,0,1,3,8.82V1h1.5V8.72a7,7,0,0,0,.17,1.57,3.55,3.55,0,0,0,.55,1.25,2.67,2.67,0,0,0,1,.82,3.66,3.66,0,0,0,1.57.3,3.61,3.61,0,0,0,1.52-.29,2.54,2.54,0,0,0,1-.79,3.22,3.22,0,0,0,.54-1.2A6.61,6.61,0,0,0,11,8.86V1h1.5V8.62a8.57,8.57,0,0,1-.27,2.23,4.49,4.49,0,0,1-.85,1.69,3.73,3.73,0,0,1-1.51,1.08A5.9,5.9,0,0,1,7.62,14Z"/></svg>