<svg id="Layer_1" data-name="Layer 1" xmlns="http://www.w3.org/2000/svg" viewBox="0 0 11.97 15.85"><path d="M8.5,0a5.27,5.27,0,0,1,1.44.2,5.42,5.42,0,0,1,1.31.55,5.49,5.49,0,0,1,2.52,3.27A5.4,5.4,0,0,1,14,5.5a5.48,5.48,0,0,1-.87,2.95,4.81,4.81,0,0,1-.73.89L5.85,15.85l-.7-.7,6.53-6.54a4.31,4.31,0,0,0,1-1.43,4.33,4.33,0,0,0,0-3.41,4.52,4.52,0,0,0-2.38-2.38A4.26,4.26,0,0,0,8.5,1,4,4,0,0,0,7,1.29,4.5,4.5,0,0,0,5.82,2a9.2,9.2,0,0,0-1.05,1L3.71,4H7V5H2V0H3V3.29c.29-.29.56-.58.82-.85s.53-.53.79-.77A9.91,9.91,0,0,1,5.42,1,4.72,4.72,0,0,1,6.29.49a5.21,5.21,0,0,1,1-.34A5.54,5.54,0,0,1,8.5,0Z" transform="translate(-2)"/></svg>