<svg id="Layer_1" data-name="Layer 1" xmlns="http://www.w3.org/2000/svg" viewBox="0 0 16 16"><defs><style>.cls-1{fill:none;stroke:#000;stroke-miterlimit:10;}</style></defs><line class="cls-1" x1="2.97" y1="3.46" x2="8.97" y2="3.46"/><line class="cls-1" x1="2.97" y1="6.46" x2="9.97" y2="6.46"/><line class="cls-1" x1="2.97" y1="9.46" x2="5.97" y2="9.46"/><path d="M15.24,8.84a5,5,0,0,0-1.07-1.59,5.27,5.27,0,0,0-1.59-1.08L12,6V0H0V13H6.17a5.13,5.13,0,0,0,.94,1.34,5.07,5.07,0,0,0,1.61,1.06,4.93,4.93,0,0,0,2,.39A4.76,4.76,0,0,0,12,15.6a4.86,4.86,0,0,0,1.19-.51,5.43,5.43,0,0,0,1-.79,5.51,5.51,0,0,0,.78-1,5.45,5.45,0,0,0,.5-1.19,4.76,4.76,0,0,0,.17-1.31A4.84,4.84,0,0,0,15.24,8.84Zm-4-1.19a3.74,3.74,0,0,1,.12.45c0,.15.06.29.09.41s0,.21,0,.27H9.75c0-.06,0-.16,0-.28s.05-.26.08-.41L10,7.63a2.63,2.63,0,0,1,.17-.42,1.05,1.05,0,0,1,.21-.31.37.37,0,0,1,.26-.12.33.33,0,0,1,.25.12,1.27,1.27,0,0,1,.21.32A2.41,2.41,0,0,1,11.26,7.65ZM6,8.84A4.7,4.7,0,0,0,5.8,12H1V1H11V5.78h-.35a4.91,4.91,0,0,0-1.94.39A5.27,5.27,0,0,0,7.1,7.25,5,5,0,0,0,6,8.84Zm.73,2.94a4.37,4.37,0,0,1-.09-.5,3.14,3.14,0,0,1,0-1,4.37,4.37,0,0,1,.09-.5h1.9c0,.67,0,1.33,0,2Zm1.24,2a4.22,4.22,0,0,1-.83-1H8.74c0,.28.07.57.12.86a6,6,0,0,0,.24.83A3.81,3.81,0,0,1,8,13.79Zm.88-5.88a8.74,8.74,0,0,0-.14.87H7.17a4,4,0,0,1,.83-1,4,4,0,0,1,1.12-.7A4.42,4.42,0,0,0,8.88,7.91Zm2.62,5.16a3.92,3.92,0,0,1-.07.41,3.74,3.74,0,0,1-.12.45,2.61,2.61,0,0,1-.16.42,1.23,1.23,0,0,1-.22.31.44.44,0,0,1-.3.12.37.37,0,0,1-.27-.12,1.23,1.23,0,0,1-.22-.31,2.61,2.61,0,0,1-.16-.42,4.48,4.48,0,0,1-.12-.46c0-.14-.06-.28-.08-.4s0-.22,0-.29h1.8C11.53,12.85,11.52,12.94,11.5,13.07Zm.11-1.29H9.66c0-.33,0-.67,0-1s0-.66,0-1h1.95c0,.34,0,.67,0,1S11.63,11.45,11.61,11.78Zm1.64-4a4,4,0,0,1,.84,1H12.52a6.47,6.47,0,0,0-.15-.88,6.68,6.68,0,0,0-.25-.84A4.08,4.08,0,0,1,13.25,7.75Zm0,6a3.82,3.82,0,0,1-1.08.69,6,6,0,0,0,.23-.83c.05-.28.09-.57.12-.85h1.54A3.67,3.67,0,0,1,13.28,13.77Zm1.32-2.49a4.37,4.37,0,0,1-.09.5H12.62c0-.33,0-.67,0-1s0-.67,0-1h1.9a4.37,4.37,0,0,1,.09.5,4.18,4.18,0,0,1,0,1Z"/></svg>