<svg id="Layer_1" data-name="Layer 1" xmlns="http://www.w3.org/2000/svg" viewBox="0 0 16 16"><path d="M8,2a5.62,5.62,0,0,1,1.6.22A6,6,0,0,1,12.24,3.8,5.78,5.78,0,0,1,13.18,5a6.48,6.48,0,0,1,.61,1.43,6.12,6.12,0,0,1,0,3.18,6.29,6.29,0,0,1-.61,1.43,5.84,5.84,0,0,1-.94,1.22,6.05,6.05,0,0,1-1.21.94,6.48,6.48,0,0,1-1.43.61,6.16,6.16,0,0,1-3.19,0A6.48,6.48,0,0,1,5,13.21a6.05,6.05,0,0,1-1.21-.94,5.84,5.84,0,0,1-.94-1.22,6.29,6.29,0,0,1-.61-1.43,5.86,5.86,0,0,1,0-3.18A6.48,6.48,0,0,1,2.83,5,5.78,5.78,0,0,1,3.77,3.8,6,6,0,0,1,6.41,2.25,5.6,5.6,0,0,1,8,2ZM8,13.28a4.76,4.76,0,0,0,1.31-.17,5.09,5.09,0,0,0,1.21-.48,5.56,5.56,0,0,0,1.06-.76,5.43,5.43,0,0,0,.84-1,3,3,0,0,1-.14-.36.94.94,0,0,1-.07-.37,1.67,1.67,0,0,1,0-.34c0-.09,0-.17,0-.23a.55.55,0,0,0,0-.17.4.4,0,0,0,0-.18,1.12,1.12,0,0,0-.1-.24A3.53,3.53,0,0,0,12,8.61s0-.07,0-.11l0-.15V8.21a.16.16,0,0,0,0-.11L11.65,8a.87.87,0,0,1-.29-.14l0,0-.15,0L11.1,8,11,8a.44.44,0,0,1-.16,0h-.1l0,0-.18.06-.18,0a.54.54,0,0,1-.17,0,1.38,1.38,0,0,1-.22-.1,1,1,0,0,1-.2-.12.21.21,0,0,1-.09-.14l0,0L9.61,7.6l-.09-.06-.07-.06a.16.16,0,0,1,0-.09l.06,0-.13,0,0-.17s0,0,.06,0l.06,0L9.21,7l.14-.38a1.18,1.18,0,0,1,0-.47.61.61,0,0,1,.16-.27,2,2,0,0,1,.26-.21A1.11,1.11,0,0,0,10,5.42V5.35l.38-.46.09,0h.37l.42,0,.41-.06.38-.07c-.13-.15-.26-.29-.4-.43s-.28-.26-.43-.38L11.05,4l-.18.11a.64.64,0,0,0-.15.13.29.29,0,0,0-.06.16l0,.11a.44.44,0,0,1-.23.22.8.8,0,0,1-.27,0,1.31,1.31,0,0,1-.28,0,.92.92,0,0,0-.28,0l-.09-.19.09-.34-.1-.15,1-.32a.42.42,0,0,0-.21-.24A.62.62,0,0,0,10,3.44v0l.33-.06A5.74,5.74,0,0,0,9.2,2.92,5.32,5.32,0,0,0,8,2.78a5.65,5.65,0,0,0-1,.1,5.42,5.42,0,0,0-1,.29,5,5,0,0,0-.89.47,4.37,4.37,0,0,0-.79.63.36.36,0,0,1,.24.08l.15.17a1.15,1.15,0,0,0,.14.17.29.29,0,0,0,.21.08l.09-.07V4.57l.19-.28-.15-.43L5.3,3.8a.16.16,0,0,1,.1,0l.27,0a.29.29,0,0,1,.16.07A.38.38,0,0,1,6,4l.17.22L6.33,4l.19.08c.09,0,.17.08.26.12A1.34,1.34,0,0,1,7,4.4a.19.19,0,0,1,.1.15A.15.15,0,0,1,7,4.69a.39.39,0,0,1-.17.09l-.22.06-.22,0-.17.06S6.19,5,6.19,5l.34.11a1.14,1.14,0,0,1-.25.18A1.91,1.91,0,0,1,6,5.48l0,.1-.53.21V6l0,0,0-.21h0a.06.06,0,0,0,0,0,0,0,0,0,0,0,0s0,0,0,0a.08.08,0,0,1,0,0l-.08,0v0a.17.17,0,0,0,0,.05l0,.07.07.08a.05.05,0,0,1,0,0l-.06,0,0,0h0s.06,0,0,0a.3.3,0,0,0-.14.06.59.59,0,0,0-.19.13A.36.36,0,0,0,5,6.64a1.21,1.21,0,0,0,0,.19A1.21,1.21,0,0,1,5,7a.72.72,0,0,0-.25-.34.71.71,0,0,0-.39-.11l-.26,0,.13.08L4,6.65a.81.81,0,0,0-.22,0,.71.71,0,0,0-.2,0,.66.66,0,0,0-.17.12l0,.27a.49.49,0,0,0,.09.3.32.32,0,0,0,.28.12,1,1,0,0,0,.35,0l.33-.12a1.89,1.89,0,0,1-.11.25.77.77,0,0,0-.1.25l.08,0a.25.25,0,0,1,.26,0A.75.75,0,0,1,4.76,8,2.73,2.73,0,0,1,5,8.28a.75.75,0,0,0,.26.19l-.2.1-.47-.26a.2.2,0,0,1,0,0s0,0,0,0L4.37,8A1.49,1.49,0,0,1,4,8a3.45,3.45,0,0,1-.42-.14,3.11,3.11,0,0,1-.41-.2,2.53,2.53,0,0,1-.34-.21l0,.62A5.26,5.26,0,0,0,3.5,10.7a5.31,5.31,0,0,0,.85,1.1,4.9,4.9,0,0,0,1.14.83.49.49,0,0,1,0-.24l.06-.25c0-.08,0-.17.08-.25a1.09,1.09,0,0,0,0-.25,1.37,1.37,0,0,0-.06-.39,3.52,3.52,0,0,0-.15-.42,3,3,0,0,0-.18-.41L5.11,10c0-.13-.07-.24-.09-.34a.46.46,0,0,1,0-.27L5,9.37a.65.65,0,0,1,.1-.15l.12-.16a1.4,1.4,0,0,0,.1-.16.53.53,0,0,0,0-.18.27.27,0,0,0,0-.12l0-.12.13,0a.55.55,0,0,1,.27-.32,1,1,0,0,1,.42-.08l.13,0,.2.07.2.06.14.05a.05.05,0,0,0,0,0s0,0,0,0v0l.09,0,.14.09.13.09a.3.3,0,0,1,.08.07.79.79,0,0,1,.29.07A2.66,2.66,0,0,1,8,9l.43.26a2.47,2.47,0,0,1,.39.29,2,2,0,0,1,.29.29.43.43,0,0,1,.12.26l-.2.21a1.22,1.22,0,0,1,0,.46.75.75,0,0,1-.2.26,1.54,1.54,0,0,1-.31.17c-.12.06-.25.12-.38.2a.65.65,0,0,1-.06.26,1.35,1.35,0,0,1-.15.26,1,1,0,0,1-.21.2.46.46,0,0,1-.24.08L7.15,12a0,0,0,0,1,0,0s0,0,0,0a.35.35,0,0,1,0,.25,1.18,1.18,0,0,1-.1.3,2.69,2.69,0,0,1-.16.29c-.06.09-.11.17-.16.23.21.05.43.09.64.12A4.44,4.44,0,0,0,8,13.28ZM4.91,7.21a.52.52,0,0,1,.17,0l.19.06.19.08.17.07h-.2a.57.57,0,0,1-.18,0L5.1,7.35,5,7.28l-.13,0a.2.2,0,0,0-.11,0l-.09.05s0,0,0,0a.35.35,0,0,1,.15-.07A.62.62,0,0,1,4.91,7.21Zm.79.26a1.23,1.23,0,0,1,.44.08L6,7.6a.5.5,0,0,1-.17,0l-.21,0a.17.17,0,0,1,.06-.06A.21.21,0,0,0,5.7,7.47Zm6.37-2.76a.08.08,0,0,1,0,.06h.07Zm.4.57L12.31,5l-.17-.24s0,.06,0,.07a.23.23,0,0,0,0,.11.16.16,0,0,0,.05.1.28.28,0,0,0,.1.09l.13.07A.3.3,0,0,0,12.47,5.28Z"/></svg>