<?xml version="1.0" encoding="utf-8"?>
<!-- Generator: Adobe Illustrator 26.0.3, SVG Export Plug-In . SVG Version: 6.00 Build 0)  -->
<svg version="1.1" id="Layer_1" xmlns="http://www.w3.org/2000/svg" xmlns:xlink="http://www.w3.org/1999/xlink" x="0px" y="0px"
	 viewBox="0 0 32 32" style="enable-background:new 0 0 32 32;" xml:space="preserve">
<style type="text/css">
	.st0{fill:none;stroke:#231F20;stroke-miterlimit:10;}
	.st1{fill:none;stroke:#231F20;stroke-miterlimit:10;stroke-dasharray:1;}
</style>
<polygon class="st0" points="1.5,1.5 1.5,4.5 0.5,4.5 0.5,4.5 1.5,4.5 1.5,8.5 0.5,8.5 0.5,8.5 1.5,8.5 1.5,12.5 0.5,12.5 0.5,12.5 
	1.5,12.5 1.5,16.5 0.5,16.5 0.5,16.5 1.5,16.5 1.5,20.5 0.5,20.5 0.5,20.5 1.5,20.5 1.5,24.5 0.5,24.5 0.5,24.5 1.5,24.5 1.5,28.5 
	0.5,28.5 0.5,28.5 1.5,28.5 1.5,30.5 3.5,30.5 3.5,31.5 3.5,31.5 3.5,30.5 7.5,30.5 7.5,31.5 7.5,31.5 7.5,30.5 11.5,30.5 
	11.5,31.5 11.5,31.5 11.5,30.5 15.5,30.5 15.5,31.5 15.5,31.5 15.5,30.5 19.5,30.5 19.5,31.5 19.5,31.5 19.5,30.5 23.5,30.5 
	23.5,31.5 23.5,31.5 23.5,30.5 27.5,30.5 27.5,31.5 27.5,31.5 27.5,30.5 30.5,30.5 30.5,1.5 "/>
<line class="st0" x1="1.5" y1="16.5" x2="30.5" y2="16.5"/>
<line class="st1" x1="1.5" y1="4.5" x2="30.5" y2="4.5"/>
<line class="st1" x1="1.5" y1="28.5" x2="30.5" y2="28.5"/>
<line class="st0" x1="3.5" y1="17" x2="3.5" y2="12.5"/>
<line class="st0" x1="5.5" y1="17" x2="5.5" y2="7"/>
<line class="st0" x1="7.5" y1="17" x2="7.5" y2="13.5"/>
<line class="st0" x1="9.5" y1="17" x2="9.5" y2="11.1"/>
<line class="st0" x1="11.5" y1="17" x2="11.5" y2="9.2"/>
<line class="st0" x1="13.5" y1="17" x2="13.5" y2="7.8"/>
<line class="st0" x1="15.5" y1="17" x2="15.5" y2="14.5"/>
<line class="st0" x1="17.5" y1="17" x2="17.5" y2="13.1"/>
<line class="st0" x1="19.5" y1="17" x2="19.5" y2="9.2"/>
<line class="st0" x1="21.5" y1="17" x2="21.5" y2="11.1"/>
<line class="st0" x1="23.5" y1="17" x2="23.5" y2="5.9"/>
<line class="st0" x1="25.5" y1="17" x2="25.5" y2="10.2"/>
<line class="st0" x1="27.5" y1="17" x2="27.5" y2="12.5"/>
<line class="st0" x1="28.5" y1="19.4" x2="28.5" y2="16"/>
<line class="st0" x1="26.5" y1="20.7" x2="26.5" y2="16"/>
<line class="st0" x1="24.5" y1="26" x2="24.5" y2="16"/>
<line class="st0" x1="22.5" y1="22.8" x2="22.5" y2="16"/>
<line class="st0" x1="20.5" y1="19.8" x2="20.5" y2="16"/>
<line class="st0" x1="18.5" y1="21.7" x2="18.5" y2="16"/>
<line class="st0" x1="16.5" y1="24.4" x2="16.5" y2="16"/>
<line class="st0" x1="14.5" y1="22.8" x2="14.5" y2="16"/>
<line class="st0" x1="12.5" y1="19.8" x2="12.5" y2="16"/>
<line class="st0" x1="10.5" y1="18.8" x2="10.5" y2="16"/>
<line class="st0" x1="8.5" y1="23.6" x2="8.5" y2="16"/>
<line class="st0" x1="6.5" y1="24.4" x2="6.5" y2="16"/>
<line class="st0" x1="4.5" y1="19.9" x2="4.5" y2="16"/>
</svg>
