<svg id="Layer_1" data-name="Layer 1" xmlns="http://www.w3.org/2000/svg" viewBox="0 0 32 32"><defs><style>.cls-1{fill:none;}.cls-1,.cls-2{stroke:#231f20;stroke-miterlimit:10;}.cls-2{fill:#231f20;}</style></defs><polygon class="cls-1" points="1.5 1.5 1.5 4.5 0.5 4.5 0.5 4.5 1.5 4.5 1.5 8.5 0.5 8.5 0.5 8.5 1.5 8.5 1.5 12.5 0.5 12.5 0.5 12.5 1.5 12.5 1.5 16.5 0.5 16.5 0.5 16.5 1.5 16.5 1.5 20.5 0.5 20.5 0.5 20.5 1.5 20.5 1.5 24.5 0.5 24.5 0.5 24.5 1.5 24.5 1.5 28.5 0.5 28.5 0.5 28.5 1.5 28.5 1.5 30.5 3.5 30.5 3.5 31.5 3.5 31.5 3.5 30.5 7.5 30.5 7.5 31.5 7.5 31.5 7.5 30.5 11.5 30.5 11.5 31.5 11.5 31.5 11.5 30.5 15.5 30.5 15.5 31.5 15.5 31.5 15.5 30.5 19.5 30.5 19.5 31.5 19.5 31.5 19.5 30.5 23.5 30.5 23.5 31.5 23.5 31.5 23.5 30.5 27.5 30.5 27.5 31.5 27.5 31.5 27.5 30.5 30.5 30.5 30.5 1.5 1.5 1.5"/><rect class="cls-2" x="5.5" y="18.5" width="4" height="12"/><rect class="cls-2" x="13.5" y="14.5" width="4" height="16"/><rect class="cls-2" x="21.5" y="8.5" width="4" height="22"/><line class="cls-1" x1="5" y1="14.5" x2="10" y2="14.5"/><line class="cls-1" x1="7.5" y1="18" x2="7.5" y2="14"/><line class="cls-1" x1="13" y1="10.5" x2="18" y2="10.5"/><line class="cls-1" x1="15.5" y1="14" x2="15.5" y2="10"/><line class="cls-1" x1="21" y1="4.5" x2="26" y2="4.5"/><line class="cls-1" x1="23.5" y1="8" x2="23.5" y2="4"/></svg>