<?xml version="1.0" encoding="utf-8"?>
<!-- Generator: Adobe Illustrator 26.0.2, SVG Export Plug-In . SVG Version: 6.00 Build 0)  -->
<svg version="1.1" id="Layer_1" xmlns="http://www.w3.org/2000/svg" xmlns:xlink="http://www.w3.org/1999/xlink" x="0px" y="0px"
	 viewBox="0 0 32 32" style="enable-background:new 0 0 32 32;" xml:space="preserve">
<style type="text/css">
	.st0{fill:none;stroke:#231F20;stroke-miterlimit:10;}
	.st1{fill:#231F20;stroke:#231F20;stroke-miterlimit:10;}
	.st2{fill:none;stroke:#231F20;stroke-miterlimit:10;stroke-dasharray:1,1;}
	.st3{fill:none;stroke:#231F20;stroke-miterlimit:10;stroke-dasharray:1;}
</style>
<rect x="3.5" y="17.5" class="st0" width="2" height="13"/>
<rect x="7.5" y="6.5" class="st1" width="2" height="24"/>
<rect x="11.5" y="12.5" class="st0" width="2" height="18"/>
<rect x="18.5" y="9.5" class="st0" width="2" height="21"/>
<rect x="22.5" y="20.5" class="st1" width="2" height="10"/>
<rect x="26.5" y="14.5" class="st0" width="2" height="16"/>
<line class="st0" x1="4.5" y1="18" x2="4.5" y2="18.5"/>
<line class="st2" x1="4.5" y1="19.5" x2="4.5" y2="29"/>
<line class="st0" x1="4.5" y1="29.5" x2="4.5" y2="30"/>
<line class="st3" x1="19.5" y1="9" x2="19.5" y2="30"/>
<line class="st0" x1="3" y1="14.5" x2="6" y2="14.5"/>
<line class="st0" x1="4.5" y1="17" x2="4.5" y2="14"/>
<line class="st0" x1="7" y1="3.5" x2="10" y2="3.5"/>
<line class="st0" x1="8.5" y1="6" x2="8.5" y2="3"/>
<line class="st0" x1="11" y1="9.5" x2="14" y2="9.5"/>
<line class="st0" x1="12.5" y1="12" x2="12.5" y2="9"/>
<line class="st0" x1="18" y1="6.5" x2="21" y2="6.5"/>
<line class="st0" x1="19.5" y1="9" x2="19.5" y2="6"/>
<line class="st0" x1="22" y1="17.5" x2="25" y2="17.5"/>
<line class="st0" x1="23.5" y1="20" x2="23.5" y2="17"/>
<line class="st0" x1="26" y1="11.5" x2="29" y2="11.5"/>
<line class="st0" x1="27.5" y1="14" x2="27.5" y2="11"/>
<polygon class="st0" points="1.5,1.5 1.5,4.5 0.5,4.5 0.5,4.5 1.5,4.5 1.5,8.5 0.5,8.5 0.5,8.5 1.5,8.5 1.5,12.5 0.5,12.5 0.5,12.5 
	1.5,12.5 1.5,16.5 0.5,16.5 0.5,16.5 1.5,16.5 1.5,20.5 0.5,20.5 0.5,20.5 1.5,20.5 1.5,24.5 0.5,24.5 0.5,24.5 1.5,24.5 1.5,28.5 
	0.5,28.5 0.5,28.5 1.5,28.5 1.5,30.5 3.5,30.5 3.5,31.5 3.5,31.5 3.5,30.5 7.5,30.5 7.5,31.5 7.5,31.5 7.5,30.5 11.5,30.5 
	11.5,31.5 11.5,31.5 11.5,30.5 15.5,30.5 15.5,31.5 15.5,31.5 15.5,30.5 19.5,30.5 19.5,31.5 19.5,31.5 19.5,30.5 23.5,30.5 
	23.5,31.5 23.5,31.5 23.5,30.5 27.5,30.5 27.5,31.5 27.5,31.5 27.5,30.5 30.5,30.5 30.5,1.5 "/>
</svg>
