<?xml version="1.0" encoding="utf-8"?>
<!-- Generator: Adobe Illustrator 26.0.3, SVG Export Plug-In . SVG Version: 6.00 Build 0)  -->
<svg version="1.1" id="Layer_1" xmlns="http://www.w3.org/2000/svg" xmlns:xlink="http://www.w3.org/1999/xlink" x="0px" y="0px"
	 viewBox="0 0 32 32" style="enable-background:new 0 0 32 32;" xml:space="preserve">
<style type="text/css">
	.st0{fill:none;stroke:#231F20;stroke-miterlimit:10;}
</style>
<polyline class="st0" points="1.5,28.5 1.5,30.5 3.5,30.5 3.5,30.5 "/>
<polyline class="st0" points="1.5,24.5 1.5,28.5 1.5,28.5 "/>
<polyline class="st0" points="1.5,20.5 1.5,24.5 1.5,24.5 "/>
<polyline class="st0" points="1.5,16.5 1.5,20.5 1.5,20.5 "/>
<polyline class="st0" points="1.5,12.5 1.5,16.5 1.5,16.5 "/>
<polyline class="st0" points="1.5,8.5 1.5,12.5 1.5,12.5 "/>
<polyline class="st0" points="1.5,4.5 1.5,8.5 1.5,8.5 "/>
<polyline class="st0" points="27.5,30.5 30.5,30.5 30.5,1.5 1.5,1.5 1.5,4.5 1.5,4.5 "/>
<polyline class="st0" points="23.5,30.5 27.5,30.5 27.5,30.5 "/>
<polyline class="st0" points="19.5,30.5 23.5,30.5 23.5,30.5 "/>
<polyline class="st0" points="15.5,30.5 19.5,30.5 19.5,30.5 "/>
<polyline class="st0" points="11.5,30.5 15.5,30.5 15.5,30.5 "/>
<polyline class="st0" points="7.5,30.5 11.5,30.5 11.5,30.5 "/>
<polyline class="st0" points="3.5,30.5 7.5,30.5 7.5,30.5 "/>
<line class="st0" x1="0.4" y1="7.5" x2="1.5" y2="7.5"/>
<line class="st0" x1="0.4" y1="3.5" x2="1.5" y2="3.5"/>
<line class="st0" x1="0.4" y1="11.5" x2="1.5" y2="11.5"/>
<line class="st0" x1="0.4" y1="15.5" x2="1.5" y2="15.5"/>
<line class="st0" x1="0.4" y1="19.5" x2="1.5" y2="19.5"/>
<line class="st0" x1="0.4" y1="23.5" x2="1.5" y2="23.5"/>
<line class="st0" x1="0.4" y1="27.5" x2="1.5" y2="27.5"/>
<line class="st0" x1="5.2" y1="31.7" x2="5.2" y2="30.5"/>
<line class="st0" x1="9.2" y1="31.7" x2="9.2" y2="30.5"/>
<line class="st0" x1="13.2" y1="31.7" x2="13.2" y2="30.5"/>
<line class="st0" x1="17.2" y1="31.7" x2="17.2" y2="30.5"/>
<line class="st0" x1="21.2" y1="31.7" x2="21.2" y2="30.5"/>
<line class="st0" x1="25.2" y1="31.7" x2="25.2" y2="30.5"/>
<g>
	<circle class="st0" cx="5.2" cy="11.5" r="1"/>
	<circle class="st0" cx="5.2" cy="15.5" r="1"/>
	<circle class="st0" cx="5.2" cy="19.5" r="1"/>
	<circle class="st0" cx="5.2" cy="23.5" r="1"/>
	<circle class="st0" cx="5.2" cy="27.5" r="1"/>
	<circle class="st0" cx="5.2" cy="7.5" r="1"/>
</g>
<circle class="st0" cx="9.3" cy="15.5" r="1"/>
<circle class="st0" cx="9.3" cy="19.5" r="1"/>
<circle class="st0" cx="9.3" cy="23.5" r="1"/>
<circle class="st0" cx="9.3" cy="27.5" r="1"/>
<circle class="st0" cx="13.3" cy="19.5" r="1"/>
<circle class="st0" cx="13.3" cy="23.5" r="1"/>
<circle class="st0" cx="13.3" cy="27.5" r="1"/>
<circle class="st0" cx="17.4" cy="23.5" r="1"/>
<circle class="st0" cx="17.4" cy="27.5" r="1"/>
<circle class="st0" cx="21.4" cy="27.5" r="1"/>
<circle class="st0" cx="25.5" cy="27.5" r="1"/>
</svg>
