<?xml version="1.0" encoding="utf-8"?>
<!-- Generator: Adobe Illustrator 26.0.3, SVG Export Plug-In . SVG Version: 6.00 Build 0)  -->
<svg version="1.1" id="Layer_1" xmlns="http://www.w3.org/2000/svg" xmlns:xlink="http://www.w3.org/1999/xlink" x="0px" y="0px"
	 viewBox="0 0 32 32" style="enable-background:new 0 0 32 32;" xml:space="preserve">
<style type="text/css">
	.st0{fill:none;stroke:#231F20;stroke-miterlimit:10;}
	.st1{fill:none;stroke:#231F20;stroke-miterlimit:10;stroke-dasharray:1;}
</style>
<polyline class="st0" points="27.5,30.5 30.5,30.5 30.5,1.5 1.5,1.5 1.5,4.5 0.5,4.5 0.5,4.5 1.5,4.5 1.5,8.5 0.5,8.5 0.5,8.5 
	1.5,8.5 1.5,12.5 0.5,12.5 0.5,12.5 1.5,12.5 1.5,16.5 0.5,16.5 0.5,16.5 1.5,16.5 1.5,20.5 0.5,20.5 0.5,20.5 1.5,20.5 1.5,24.5 
	0.5,24.5 0.5,24.5 1.5,24.5 1.5,28.5 0.5,28.5 0.5,28.5 1.5,28.5 1.5,30.5 3.5,30.5 "/>
<polyline class="st0" points="19.5,30.5 23.5,30.5 23.5,31.5 23.5,31.5 23.5,30.5 27.5,30.5 "/>
<line class="st0" x1="15.5" y1="30.5" x2="19.5" y2="30.5"/>
<line class="st0" x1="11.5" y1="30.5" x2="15.5" y2="30.5"/>
<polyline class="st0" points="3.5,30.5 7.5,30.5 7.5,31.5 7.5,31.5 7.5,30.5 11.5,30.5 "/>
<line class="st0" x1="7.5" y1="22.2" x2="22.6" y2="4.2"/>
<line class="st1" x1="23.5" y1="25.7" x2="4.6" y2="9.4"/>
</svg>
