<svg id="Layer_1" data-name="Layer 1" xmlns="http://www.w3.org/2000/svg" viewBox="0 0 32 32"><defs><style>.cls-1{fill:none;stroke:#231f20;stroke-miterlimit:10;}</style></defs><polygon class="cls-1" points="1.5 1.5 1.5 4.5 0.5 4.5 0.5 4.5 1.5 4.5 1.5 8.5 0.5 8.5 0.5 8.5 1.5 8.5 1.5 12.5 0.5 12.5 0.5 12.5 1.5 12.5 1.5 16.5 0.5 16.5 0.5 16.5 1.5 16.5 1.5 20.5 0.5 20.5 0.5 20.5 1.5 20.5 1.5 24.5 0.5 24.5 0.5 24.5 1.5 24.5 1.5 28.5 0.5 28.5 0.5 28.5 1.5 28.5 1.5 30.5 3.5 30.5 3.5 31.5 3.5 31.5 3.5 30.5 7.5 30.5 7.5 31.5 7.5 31.5 7.5 30.5 11.5 30.5 11.5 31.5 11.5 31.5 11.5 30.5 15.5 30.5 15.5 31.5 15.5 31.5 15.5 30.5 19.5 30.5 19.5 31.5 19.5 31.5 19.5 30.5 23.5 30.5 23.5 31.5 23.5 31.5 23.5 30.5 27.5 30.5 27.5 31.5 27.5 31.5 27.5 30.5 30.5 30.5 30.5 1.5 1.5 1.5"/><circle class="cls-1" cx="4.42" cy="27.5" r="1"/><circle class="cls-1" cx="18.18" cy="10.15" r="1"/><circle class="cls-1" cx="23.7" cy="15.38" r="1"/><circle class="cls-1" cx="27.29" cy="5.07" r="1"/><circle class="cls-1" cx="7.76" cy="18.74" r="1"/><circle class="cls-1" cx="13.46" cy="23.56" r="1"/><line class="cls-1" x1="4.75" y1="26.56" x2="7.38" y2="19.62"/><line class="cls-1" x1="8.68" y1="19.3" x2="12.7" y2="23.06"/><line class="cls-1" x1="13.94" y1="22.67" x2="17.83" y2="11.06"/><line class="cls-1" x1="18.99" y1="10.8" x2="23.02" y2="14.76"/><line class="cls-1" x1="24.18" y1="14.5" x2="26.97" y2="5.87"/></svg>