<?xml version="1.0" encoding="utf-8"?>
<!-- Generator: Adobe Illustrator 26.0.3, SVG Export Plug-In . SVG Version: 6.00 Build 0)  -->
<svg version="1.1" id="Layer_1" xmlns="http://www.w3.org/2000/svg" xmlns:xlink="http://www.w3.org/1999/xlink" x="0px" y="0px"
	 viewBox="0 0 32 32" style="enable-background:new 0 0 32 32;" xml:space="preserve">
<style type="text/css">
	.st0{fill:none;stroke:#231F20;stroke-miterlimit:10;}
</style>
<rect x="1.5" y="1.5" class="st0" width="13" height="13"/>
<rect x="17.5" y="1.5" class="st0" width="13" height="13"/>
<rect x="1.5" y="17.5" class="st0" width="13" height="13"/>
<line class="st0" x1="3.9" y1="4.2" x2="11.9" y2="10.5"/>
<polyline class="st0" points="19,11.3 21.7,6.8 24.8,10.9 28.4,4.2 "/>
<line class="st0" x1="4.2" y1="28.1" x2="9.4" y2="19.8"/>
<line class="st0" x1="3.5" y1="16" x2="3.5" y2="15"/>
<line class="st0" x1="11.5" y1="16" x2="11.5" y2="15"/>
<line class="st0" x1="19.5" y1="16" x2="19.5" y2="15"/>
<line class="st0" x1="22.5" y1="16" x2="22.5" y2="15"/>
<line class="st0" x1="25.5" y1="16" x2="25.5" y2="15"/>
<line class="st0" x1="28.5" y1="16" x2="28.5" y2="15"/>
<line class="st0" x1="3.5" y1="32" x2="3.5" y2="31"/>
<line class="st0" x1="12.5" y1="32" x2="12.5" y2="31"/>
</svg>
