<?xml version="1.0" encoding="utf-8"?>
<!-- Generator: Adobe Illustrator 26.0.2, SVG Export Plug-In . SVG Version: 6.00 Build 0)  -->
<svg version="1.1" id="Layer_1" xmlns="http://www.w3.org/2000/svg" xmlns:xlink="http://www.w3.org/1999/xlink" x="0px" y="0px"
	 viewBox="0 0 32 32" style="enable-background:new 0 0 32 32;" xml:space="preserve">
<style type="text/css">
	.st0{fill:none;stroke:#231F20;stroke-miterlimit:10;}
</style>
<polygon class="st0" points="1.5,1.5 1.5,4.5 0.5,4.5 0.5,4.5 1.5,4.5 1.5,8.5 0.5,8.5 0.5,8.5 1.5,8.5 1.5,12.5 0.5,12.5 0.5,12.5 
	1.5,12.5 1.5,16.5 0.5,16.5 0.5,16.5 1.5,16.5 1.5,20.5 0.5,20.5 0.5,20.5 1.5,20.5 1.5,24.5 0.5,24.5 0.5,24.5 1.5,24.5 1.5,28.5 
	0.5,28.5 0.5,28.5 1.5,28.5 1.5,30.5 3.5,30.5 3.5,31.5 3.5,31.5 3.5,30.5 7.5,30.5 7.5,31.5 7.5,31.5 7.5,30.5 11.5,30.5 
	11.5,31.5 11.5,31.5 11.5,30.5 15.5,30.5 15.5,31.5 15.5,31.5 15.5,30.5 19.5,30.5 19.5,31.5 19.5,31.5 19.5,30.5 23.5,30.5 
	23.5,31.5 23.5,31.5 23.5,30.5 27.5,30.5 27.5,31.5 27.5,31.5 27.5,30.5 30.5,30.5 30.5,1.5 "/>
<circle class="st0" cx="9.5" cy="20.5" r="1"/>
<circle class="st0" cx="27.5" cy="20.5" r="1"/>
<circle class="st0" cx="27.5" cy="16.5" r="1"/>
<circle class="st0" cx="27.5" cy="27.5" r="1"/>
<circle class="st0" cx="27.5" cy="5.5" r="1"/>
<circle class="st0" cx="9.5" cy="15.5" r="1"/>
<circle class="st0" cx="9.5" cy="8.5" r="1"/>
<circle class="st0" cx="9.5" cy="4.5" r="1"/>
<circle class="st0" cx="9.5" cy="26.5" r="1"/>
<circle class="st0" cx="19.5" cy="21.5" r="1"/>
<circle class="st0" cx="19.5" cy="14.5" r="1"/>
<circle class="st0" cx="19.5" cy="5.5" r="1"/>
<circle class="st0" cx="19.5" cy="10.5" r="1"/>
<g>
	<line class="st0" x1="4.5" y1="8" x2="4.5" y2="10"/>
	<line class="st0" x1="4.5" y1="11" x2="4.5" y2="14"/>
	<g>
		<rect x="3.5" y="9.5" class="st0" width="2" height="2"/>
		<line class="st0" x1="3" y1="7.5" x2="6" y2="7.5"/>
		<line class="st0" x1="3" y1="13.5" x2="6" y2="13.5"/>
	</g>
</g>
<g>
	<line class="st0" x1="14.5" y1="16.8" x2="14.5" y2="18.8"/>
	<line class="st0" x1="14.5" y1="19.8" x2="14.5" y2="22.8"/>
	<g>
		<rect x="13.5" y="18.2" class="st0" width="2" height="2"/>
		<line class="st0" x1="13" y1="16.2" x2="16" y2="16.2"/>
		<line class="st0" x1="13" y1="22.2" x2="16" y2="22.2"/>
	</g>
</g>
<g>
	<line class="st0" x1="24.5" y1="8.8" x2="24.5" y2="10.8"/>
	<line class="st0" x1="24.5" y1="11.8" x2="24.5" y2="14.8"/>
	<g>
		<rect x="23.5" y="10.2" class="st0" width="2" height="2"/>
		<line class="st0" x1="23" y1="8.2" x2="26" y2="8.2"/>
		<line class="st0" x1="23" y1="14.2" x2="26" y2="14.2"/>
	</g>
</g>
</svg>
