<svg id="Layer_1" data-name="Layer 1" xmlns="http://www.w3.org/2000/svg" viewBox="0 0 32 32"><defs><style>.cls-1{fill:none;stroke:#231f20;stroke-miterlimit:10;}</style></defs><polygon class="cls-1" points="1.5 1.5 1.5 4.5 0.5 4.5 0.5 4.5 1.5 4.5 1.5 8.5 0.5 8.5 0.5 8.5 1.5 8.5 1.5 12.5 0.5 12.5 0.5 12.5 1.5 12.5 1.5 16.5 0.5 16.5 0.5 16.5 1.5 16.5 1.5 20.5 0.5 20.5 0.5 20.5 1.5 20.5 1.5 24.5 0.5 24.5 0.5 24.5 1.5 24.5 1.5 28.5 0.5 28.5 0.5 28.5 1.5 28.5 1.5 30.5 3.5 30.5 3.5 31.5 3.5 31.5 3.5 30.5 7.5 30.5 7.5 31.5 7.5 31.5 7.5 30.5 11.5 30.5 11.5 31.5 11.5 31.5 11.5 30.5 15.5 30.5 15.5 31.5 15.5 31.5 15.5 30.5 19.5 30.5 19.5 31.5 19.5 31.5 19.5 30.5 23.5 30.5 23.5 31.5 23.5 31.5 23.5 30.5 27.5 30.5 27.5 31.5 27.5 31.5 27.5 30.5 30.5 30.5 30.5 1.5 1.5 1.5"/><rect class="cls-1" x="6.5" y="19.5" width="2" height="2"/><line class="cls-1" x1="7.5" y1="18" x2="7.5" y2="20"/><line class="cls-1" x1="7.5" y1="21" x2="7.5" y2="26"/><line class="cls-1" x1="6" y1="17.5" x2="9" y2="17.5"/><line class="cls-1" x1="6" y1="25.5" x2="9" y2="25.5"/><rect class="cls-1" x="17.5" y="6.5" width="2" height="2"/><line class="cls-1" x1="18.5" y1="5" x2="18.5" y2="7"/><line class="cls-1" x1="18.5" y1="8" x2="18.5" y2="12"/><line class="cls-1" x1="17" y1="4.5" x2="20" y2="4.5"/><line class="cls-1" x1="17" y1="11.5" x2="20" y2="11.5"/><rect class="cls-1" x="8.5" y="10.5" width="2" height="2"/><line class="cls-1" x1="9.5" y1="6" x2="9.5" y2="11"/><line class="cls-1" x1="9.5" y1="12" x2="9.5" y2="15"/><line class="cls-1" x1="8" y1="6.5" x2="11" y2="6.5"/><line class="cls-1" x1="8" y1="14.5" x2="11" y2="14.5"/><rect class="cls-1" x="24.5" y="13.5" width="2" height="2"/><line class="cls-1" x1="25.5" y1="20" x2="25.5" y2="15"/><line class="cls-1" x1="25.5" y1="14" x2="25.5" y2="11"/><line class="cls-1" x1="24" y1="19.5" x2="27" y2="19.5"/><line class="cls-1" x1="24" y1="11.5" x2="27" y2="11.5"/><rect class="cls-1" x="14.5" y="22.51" width="2" height="2"/><line class="cls-1" x1="15.5" y1="21.01" x2="15.5" y2="23.01"/><line class="cls-1" x1="15.5" y1="24.01" x2="15.5" y2="28.01"/><line class="cls-1" x1="14" y1="20.51" x2="17" y2="20.51"/><line class="cls-1" x1="14" y1="27.51" x2="17" y2="27.51"/></svg>