<svg id="Layer_1" data-name="Layer 1" xmlns="http://www.w3.org/2000/svg" viewBox="0 0 32 32"><defs><style>.cls-1{fill:none;}.cls-1,.cls-2{stroke:#231f20;stroke-linejoin:round;}.cls-2{fill:#fff;}</style></defs><polygon class="cls-1" points="14.53 3.56 3.53 6.57 3.53 22.57 17.31 28.9 28.53 22.57 28.53 6.57 14.53 3.56"/><polygon class="cls-2" points="6.49 15.36 9.51 16.1 9.44 23.06 6.44 22 6.49 15.36"/><polygon class="cls-2" points="9.51 16.1 11.22 15.36 8.38 14.63 6.49 15.36 9.51 16.1"/><polygon class="cls-2" points="11.22 15.36 11.19 22.22 9.44 23.06 9.51 16.1 11.22 15.36"/><polygon class="cls-2" points="13.49 13.36 16.51 14.3 16.47 22.73 13.44 21.8 13.49 13.36"/><polygon class="cls-2" points="16.51 14.3 18.22 13.36 15.4 12.49 13.49 13.36 16.51 14.3"/><polygon class="cls-2" points="18.22 13.36 18.12 21.7 16.47 22.73 16.51 14.3 18.22 13.36"/><polygon class="cls-2" points="20.49 10.47 23.58 11.38 23.47 22.73 20.44 21.51 20.49 10.47"/><polygon class="cls-2" points="23.51 11.51 25.22 10.47 22.28 9.5 20.49 10.47 23.51 11.51"/><polygon class="cls-2" points="25.22 10.47 25.14 21.5 23.47 22.73 23.51 11.51 25.22 10.47"/><line class="cls-2" x1="14.53" y1="3.56" x2="14.56" y2="12.75"/><line class="cls-2" x1="3.53" y1="22.56" x2="6.39" y2="21.57"/><line class="cls-2" x1="10.93" y1="20.08" x2="13.13" y2="19.17"/><line class="cls-2" x1="18.26" y1="19.43" x2="20.27" y2="20.2"/><line class="cls-2" x1="25.2" y1="21.37" x2="28.53" y2="22.56"/></svg>