<svg id="Layer_1" data-name="Layer 1" xmlns="http://www.w3.org/2000/svg" viewBox="0 0 32 32"><defs><style>.cls-1{fill:none;}.cls-1,.cls-2{stroke:#231f20;stroke-linejoin:round;}.cls-2{fill:#fff;}</style></defs><polygon class="cls-1" points="14.53 3.56 3.53 6.57 3.53 22.57 17.31 28.9 28.53 22.57 28.53 6.57 14.53 3.56"/><line class="cls-1" x1="14.53" y1="3.56" x2="14.53" y2="12.03"/><line class="cls-1" x1="3.53" y1="22.56" x2="8.83" y2="20.27"/><line class="cls-1" x1="28.53" y1="22.56" x2="24.27" y2="21.63"/><path class="cls-2" d="M3.64,21.57S11.72,13.09,14.78,12c2.24-.79,5.54-5.46,7.83-4.85,2.59.69,5.81,11.54,5.81,11.54Z"/><path class="cls-2" d="M4.16,22.35s7.56-6.79,10.62-7.79c2.24-.73,5.54-5.08,7.83-4.51,2.59.64,5.88,10.54,5.88,10.54Z"/><path class="cls-2" d="M5,23s6.71-4.52,9.77-5.52c2.24-.73,5.54-5.08,7.83-4.51,2.59.64,5.49,9.52,5.49,9.52Z"/><path class="cls-2" d="M6.5,24a84.2,84.2,0,0,1,8.28-3.59c2.24-.73,5.54-5.08,7.83-4.51,2.59.64,4,7.32,4,7.32Z"/><path class="cls-2" d="M8.83,24.75S13.51,23,16.57,22c2.24-.73,3.75-3.8,6-3.23,2.59.64,2.31,5.58,2.31,5.58Z"/></svg>