<svg id="Layer_1" data-name="Layer 1" xmlns="http://www.w3.org/2000/svg" viewBox="0 0 32 32"><defs><style>.cls-1{fill:none;stroke:#231f20;stroke-miterlimit:10;}</style></defs><polygon class="cls-1" points="1.5 1.5 1.5 4.5 0.5 4.5 0.5 4.5 1.5 4.5 1.5 8.5 0.5 8.5 0.5 8.5 1.5 8.5 1.5 12.5 0.5 12.5 0.5 12.5 1.5 12.5 1.5 16.5 0.5 16.5 0.5 16.5 1.5 16.5 1.5 20.5 0.5 20.5 0.5 20.5 1.5 20.5 1.5 24.5 0.5 24.5 0.5 24.5 1.5 24.5 1.5 28.5 0.5 28.5 0.5 28.5 1.5 28.5 1.5 30.5 3.5 30.5 3.5 31.5 3.5 31.5 3.5 30.5 7.5 30.5 7.5 31.5 7.5 31.5 7.5 30.5 11.5 30.5 11.5 31.5 11.5 31.5 11.5 30.5 15.5 30.5 15.5 31.5 15.5 31.5 15.5 30.5 19.5 30.5 19.5 31.5 19.5 31.5 19.5 30.5 23.5 30.5 23.5 31.5 23.5 31.5 23.5 30.5 27.5 30.5 27.5 31.5 27.5 31.5 27.5 30.5 30.5 30.5 30.5 1.5 1.5 1.5"/><polygon class="cls-1" points="1.5 30.5 4.74 30.5 26.74 26.51 10.68 24.18 21.19 20.48 6.88 16.29 23.52 11.23 14.47 8.21 16.61 5.68 4.25 1.5 1.5 1.49 1.5 30.5"/></svg>