<svg id="Layer_1" data-name="Layer 1" xmlns="http://www.w3.org/2000/svg" viewBox="0 0 32 32"><defs><style>.cls-1{fill:none;}.cls-1,.cls-2{stroke:#231f20;stroke-miterlimit:10;}.cls-2{fill:#231f20;}</style></defs><polygon class="cls-1" points="1.5 1.5 1.5 4.5 0.5 4.5 0.5 4.5 1.5 4.5 1.5 8.5 0.5 8.5 0.5 8.5 1.5 8.5 1.5 12.5 0.5 12.5 0.5 12.5 1.5 12.5 1.5 16.5 0.5 16.5 0.5 16.5 1.5 16.5 1.5 20.5 0.5 20.5 0.5 20.5 1.5 20.5 1.5 24.5 0.5 24.5 0.5 24.5 1.5 24.5 1.5 28.5 0.5 28.5 0.5 28.5 1.5 28.5 1.5 30.5 3.5 30.5 3.5 31.5 3.5 31.5 3.5 30.5 7.5 30.5 7.5 31.5 7.5 31.5 7.5 30.5 11.5 30.5 11.5 31.5 11.5 31.5 11.5 30.5 15.5 30.5 15.5 31.5 15.5 31.5 15.5 30.5 19.5 30.5 19.5 31.5 19.5 31.5 19.5 30.5 23.5 30.5 23.5 31.5 23.5 31.5 23.5 30.5 27.5 30.5 27.5 31.5 27.5 31.5 27.5 30.5 30.5 30.5 30.5 1.5 1.5 1.5"/><line class="cls-1" x1="21.5" y1="22" x2="21.5" y2="27"/><line class="cls-1" x1="18" y1="24.5" x2="22" y2="24.5"/><line class="cls-1" x1="27.5" y1="14" x2="27.5" y2="19"/><line class="cls-1" x1="24" y1="16.5" x2="28" y2="16.5"/><line class="cls-1" x1="17.5" y1="6" x2="17.5" y2="11"/><line class="cls-1" x1="14" y1="8.5" x2="18" y2="8.5"/><rect class="cls-2" x="1.5" y="6.5" width="12" height="4.01"/><rect class="cls-2" x="1.5" y="14.49" width="22" height="4.01"/><rect class="cls-2" x="1.5" y="22.49" width="16" height="4.01"/></svg>