<svg id="Layer_1" data-name="Layer 1" xmlns="http://www.w3.org/2000/svg" viewBox="0 0 32 32"><defs><style>.cls-1,.cls-3,.cls-4{fill:none;}.cls-1,.cls-2,.cls-3,.cls-4{stroke:#231f20;stroke-miterlimit:10;}.cls-2{fill:#231f20;}.cls-3{stroke-dasharray:1 1;}.cls-4{stroke-dasharray:1;}</style></defs><polygon class="cls-1" points="1.5 1.44 1.5 4.44 0.5 4.44 0.5 4.44 1.5 4.44 1.5 8.44 0.5 8.44 0.5 8.44 1.5 8.44 1.5 12.44 0.5 12.44 0.5 12.44 1.5 12.44 1.5 16.44 0.5 16.44 0.5 16.44 1.5 16.44 1.5 20.44 0.5 20.44 0.5 20.44 1.5 20.44 1.5 24.44 0.5 24.44 0.5 24.44 1.5 24.44 1.5 28.44 0.5 28.44 0.5 28.44 1.5 28.44 1.5 30.44 3.5 30.44 3.5 31.44 3.5 31.44 3.5 30.44 7.5 30.44 7.5 31.44 7.5 31.44 7.5 30.44 11.5 30.44 11.5 31.44 11.5 31.44 11.5 30.44 15.5 30.44 15.5 31.44 15.5 31.44 15.5 30.44 19.5 30.44 19.5 31.44 19.5 31.44 19.5 30.44 23.5 30.44 23.5 31.44 23.5 31.44 23.5 30.44 27.5 30.44 27.5 31.44 27.5 31.44 27.5 30.44 30.5 30.44 30.5 1.44 1.5 1.44"/><rect class="cls-1" x="1.5" y="3.5" width="13" height="2"/><rect class="cls-2" x="1.5" y="7.5" width="19.96" height="2"/><rect class="cls-1" x="1.5" y="11.5" width="18" height="2"/><rect class="cls-1" x="1.5" y="18.5" width="15.09" height="2"/><rect class="cls-2" x="1.5" y="22.5" width="22" height="2"/><rect class="cls-1" x="1.5" y="26.5" width="16" height="2"/><line class="cls-1" x1="14" y1="4.5" x2="13.5" y2="4.5"/><line class="cls-3" x1="12.5" y1="4.5" x2="3" y2="4.5"/><line class="cls-1" x1="2.5" y1="4.5" x2="2" y2="4.5"/><line class="cls-4" x1="17" y1="19.5" x2="2" y2="19.5"/></svg>