<svg id="Layer_1" data-name="Layer 1" xmlns="http://www.w3.org/2000/svg" viewBox="0 0 32 32"><defs><style>.cls-1,.cls-3,.cls-4{fill:none;}.cls-1,.cls-2,.cls-3,.cls-4{stroke:#231f20;stroke-miterlimit:10;}.cls-2{fill:#231f20;}.cls-3{stroke-dasharray:1 1;}.cls-4{stroke-dasharray:1;}</style></defs><polygon class="cls-1" points="1.5 1.5 1.5 4.5 0.5 4.5 0.5 4.5 1.5 4.5 1.5 8.5 0.5 8.5 0.5 8.5 1.5 8.5 1.5 12.5 0.5 12.5 0.5 12.5 1.5 12.5 1.5 16.5 0.5 16.5 0.5 16.5 1.5 16.5 1.5 20.5 0.5 20.5 0.5 20.5 1.5 20.5 1.5 24.5 0.5 24.5 0.5 24.5 1.5 24.5 1.5 28.5 0.5 28.5 0.5 28.5 1.5 28.5 1.5 30.5 3.5 30.5 3.5 31.5 3.5 31.5 3.5 30.5 7.5 30.5 7.5 31.5 7.5 31.5 7.5 30.5 11.5 30.5 11.5 31.5 11.5 31.5 11.5 30.5 15.5 30.5 15.5 31.5 15.5 31.5 15.5 30.5 19.5 30.5 19.5 31.5 19.5 31.5 19.5 30.5 23.5 30.5 23.5 31.5 23.5 31.5 23.5 30.5 27.5 30.5 27.5 31.5 27.5 31.5 27.5 30.5 30.5 30.5 30.5 1.5 1.5 1.5"/><rect class="cls-1" x="1.5" y="3.5" width="13" height="2"/><rect class="cls-2" x="1.5" y="7.5" width="20" height="2"/><rect class="cls-1" x="1.5" y="11.5" width="18" height="2"/><rect class="cls-1" x="1.5" y="18.5" width="15" height="2"/><rect class="cls-2" x="1.5" y="22.5" width="22" height="2"/><rect class="cls-1" x="1.5" y="26.5" width="16" height="2"/><line class="cls-1" x1="14" y1="4.5" x2="13.5" y2="4.5"/><line class="cls-3" x1="12.5" y1="4.5" x2="3" y2="4.5"/><line class="cls-1" x1="2.5" y1="4.5" x2="2" y2="4.5"/><line class="cls-4" x1="17" y1="19.5" x2="2" y2="19.5"/><line class="cls-1" x1="17.5" y1="3" x2="17.5" y2="6"/><line class="cls-1" x1="15" y1="4.5" x2="18" y2="4.5"/><line class="cls-1" x1="24.5" y1="7" x2="24.5" y2="10"/><line class="cls-1" x1="22" y1="8.5" x2="25" y2="8.5"/><line class="cls-1" x1="22.5" y1="11" x2="22.5" y2="14"/><line class="cls-1" x1="20" y1="12.5" x2="23" y2="12.5"/><line class="cls-1" x1="19.5" y1="18" x2="19.5" y2="21"/><line class="cls-1" x1="17" y1="19.5" x2="20" y2="19.5"/><line class="cls-1" x1="26.5" y1="22" x2="26.5" y2="25"/><line class="cls-1" x1="24" y1="23.5" x2="27" y2="23.5"/><line class="cls-1" x1="20.5" y1="26" x2="20.5" y2="29"/><line class="cls-1" x1="18" y1="27.5" x2="21" y2="27.5"/></svg>