<svg id="Layer_1" data-name="Layer 1" xmlns="http://www.w3.org/2000/svg" viewBox="0 0 32 32"><defs><style>.cls-1{fill:none;stroke:#231f20;stroke-miterlimit:10;}</style></defs><polygon class="cls-1" points="1.5 1.5 1.5 4.5 0.5 4.5 0.5 4.5 1.5 4.5 1.5 8.5 0.5 8.5 0.5 8.5 1.5 8.5 1.5 12.5 0.5 12.5 0.5 12.5 1.5 12.5 1.5 16.5 0.5 16.5 0.5 16.5 1.5 16.5 1.5 20.5 0.5 20.5 0.5 20.5 1.5 20.5 1.5 24.5 0.5 24.5 0.5 24.5 1.5 24.5 1.5 28.5 0.5 28.5 0.5 28.5 1.5 28.5 1.5 30.5 3.5 30.5 3.5 31.5 3.5 31.5 3.5 30.5 7.5 30.5 7.5 31.5 7.5 31.5 7.5 30.5 11.5 30.5 11.5 31.5 11.5 31.5 11.5 30.5 15.5 30.5 15.5 31.5 15.5 31.5 15.5 30.5 19.5 30.5 19.5 31.5 19.5 31.5 19.5 30.5 23.5 30.5 23.5 31.5 23.5 31.5 23.5 30.5 27.5 30.5 27.5 31.5 27.5 31.5 27.5 30.5 30.5 30.5 30.5 1.5 1.5 1.5"/><polygon class="cls-1" points="23.5 9.5 23.5 5.5 20.43 5.5 15.5 5.5 15.5 9.5 23.5 9.5"/><rect class="cls-1" x="11.5" y="11.5" width="4" height="8" transform="translate(29 2) rotate(90)"/><rect class="cls-1" x="15.5" y="20.5" width="4" height="8" transform="translate(42 7) rotate(90)"/><line class="cls-1" x1="19.5" y1="9" x2="19.5" y2="6"/><line class="cls-1" x1="12.5" y1="9" x2="12.5" y2="6"/><line class="cls-1" x1="26.5" y1="9" x2="26.5" y2="6"/><line class="cls-1" x1="20.5" y1="17" x2="20.5" y2="14"/><line class="cls-1" x1="6.5" y1="17" x2="6.5" y2="14"/><line class="cls-1" x1="10.5" y1="26" x2="10.5" y2="23"/><line class="cls-1" x1="24.5" y1="26" x2="24.5" y2="23"/><line class="cls-1" x1="12.5" y1="14" x2="12.5" y2="17"/><line class="cls-1" x1="18.5" y1="23" x2="18.5" y2="26"/><line class="cls-1" x1="13" y1="7.5" x2="16" y2="7.5"/><line class="cls-1" x1="23" y1="7.5" x2="26" y2="7.5"/><line class="cls-1" x1="17" y1="15.5" x2="20" y2="15.5"/><line class="cls-1" x1="7" y1="15.5" x2="10" y2="15.5"/><line class="cls-1" x1="11" y1="24.5" x2="14" y2="24.5"/><line class="cls-1" x1="21" y1="24.5" x2="24" y2="24.5"/></svg>