<svg id="Layer_1" data-name="Layer 1" xmlns="http://www.w3.org/2000/svg" viewBox="0 0 32 32"><defs><style>.cls-1,.cls-2{fill:none;}.cls-1,.cls-3{stroke:#231f20;stroke-miterlimit:10;}.cls-3{fill:#231f20;}</style></defs><polygon class="cls-1" points="1.5 1.5 1.5 4.5 0.5 4.5 0.5 4.5 1.5 4.5 1.5 8.5 0.5 8.5 0.5 8.5 1.5 8.5 1.5 12.5 0.5 12.5 0.5 12.5 1.5 12.5 1.5 16.5 0.5 16.5 0.5 16.5 1.5 16.5 1.5 20.5 0.5 20.5 0.5 20.5 1.5 20.5 1.5 24.5 0.5 24.5 0.5 24.5 1.5 24.5 1.5 28.5 0.5 28.5 0.5 28.5 1.5 28.5 1.5 30.5 3.5 30.5 3.5 31.5 3.5 31.5 3.5 30.5 7.5 30.5 7.5 31.5 7.5 31.5 7.5 30.5 11.5 30.5 11.5 31.5 11.5 31.5 11.5 30.5 15.5 30.5 15.5 31.5 15.5 31.5 15.5 30.5 19.5 30.5 19.5 31.5 19.5 31.5 19.5 30.5 23.5 30.5 23.5 31.5 23.5 31.5 23.5 30.5 27.5 30.5 27.5 31.5 27.5 31.5 27.5 30.5 30.5 30.5 30.5 1.5 1.5 1.5"/><path class="cls-2" d="M4.79,19.4c3.6,2.8,4.32-1.24,8.77,1.56,4.13,2.59,4.24,8.54,7.36,9.54h1.73c2.74-.7,6.16-4.28,7.85-7.83V13.93c-2.1-4.32-6.62-7.5-7.86-8.36A20.91,20.91,0,0,0,7.9,2.22c-2.37.4-4.84.83-6.4,2.95v9.35A11.63,11.63,0,0,0,4.79,19.4ZM3.42,6.3C4.73,4.58,6.88,4.27,8.94,4A19.45,19.45,0,0,1,21.7,6.84c1.54,1,9,5.9,7.74,11.74-.83,3.88-5.84,9-8.81,8.2-2.81-.73-2.93-5.61-6.57-7.76-3.88-2.29-4.45.93-7.59-1.35C3.51,15.53,1.25,9.13,3.42,6.3Z"/><path class="cls-2" d="M21.05,30.55l-.13-.05H17.79c1.17,2.92,2,5.72,4.06,6.29,2.34.66,5.83-2.37,8.49-6.29H22.65A3.24,3.24,0,0,1,21.05,30.55Z"/><path class="cls-2" d="M31.4,20.13a11.76,11.76,0,0,1-.9,2.54v7.59a22.7,22.7,0,0,0,3.37-7.52c1-5-.94-9.38-3.37-12.7v3.89A9.51,9.51,0,0,1,31.4,20.13Z"/><path class="cls-2" d="M9.16,16.51c2.42,1.75,2.85-.72,5.83,1,2.81,1.65,2.9,5.4,5.06,6s6.14-3.32,6.78-6.3c1-4.49-4.77-8.26-6-9A15,15,0,0,0,11.06,6c-1.58.22-3.24.46-4.25,1.78C5.14,9.94,6.88,14.86,9.16,16.51Zm.36-7.68c.75-1,2-1.15,3.15-1.32A11.15,11.15,0,0,1,20,9.14c.88.58,5.13,3.37,4.42,6.7-.47,2.22-3,4.11-4.71,3.67s-1.22-2.62-3.31-3.85-4,.42-5.77-.89S8.28,10.45,9.52,8.83Z"/><path class="cls-2" d="M13.5,12.62c1,.71,2.41.05,3.64.77s1.51,2.5,2.4,2.73,1.4-.93,1.66-2.15c.39-1.84-1.95-3.38-2.44-3.7a8.41,8.41,0,0,0-4.61-1c-.65.09-1.6-.09-2,.45C11.46,10.65,12.57,11.94,13.5,12.62Z"/><path class="cls-2" d="M30.5,30.5v-.24l-.16.24Z"/><path class="cls-2" d="M8.1.1A17.53,17.53,0,0,0,3.77,1.5H20.49A19.16,19.16,0,0,0,8.1.1Z"/><path class="cls-2" d="M3.77,1.5H1.5V3.25A7.78,7.78,0,0,1,3.77,1.5Z"/><path class="cls-2" d="M1.46,5.22l0,0V3.25a8.19,8.19,0,0,0-.76,1C-1.53,7.88-.66,14.65,1.5,19.2V14.52C.22,11.27-.12,7.42,1.46,5.22Z"/><path class="cls-2" d="M24.55,4A32.57,32.57,0,0,1,30.5,10V5A41.12,41.12,0,0,0,27.13,1.5H20.49A19.91,19.91,0,0,1,24.55,4Z"/><path class="cls-2" d="M13.78,24.48C8.87,21,7.92,26.3,4,22.76A11.33,11.33,0,0,1,1.5,19.2v6.58A9.56,9.56,0,0,0,2.43,27c4.46,4.57,5.73-2.54,11.29,1.95a8.81,8.81,0,0,1,1.51,1.6h2.56C16.89,28.24,15.79,25.91,13.78,24.48Z"/><path class="cls-3" d="M13.72,28.9C8.16,24.41,6.89,31.52,2.43,27a9.56,9.56,0,0,1-.93-1.17V30.5H15.23A8.81,8.81,0,0,0,13.72,28.9Z"/><path class="cls-3" d="M30.5,5.55v-4l-4.8,0A10.08,10.08,0,0,1,30.5,5.55Z"/><path class="cls-3" d="M12.46,21.76C8,19,8.39,22.2,4.79,19.4A11.63,11.63,0,0,1,1.5,14.52V19.2A11.33,11.33,0,0,0,4,22.76c4,3.54,4.9-1.79,9.81,1.72,2,1.43,3.11,3.76,4,6h3.13C17.8,29.5,16.59,24.35,12.46,21.76Z"/><path class="cls-3" d="M22.65,30.5h7.69l.16-.24V22.67C28.81,26.22,25.39,29.8,22.65,30.5Z"/><path class="cls-3" d="M24.55,4A19.91,19.91,0,0,0,20.49,1.5H3.77A7.78,7.78,0,0,0,1.5,3.25V5.17C3.06,3.05,5,2.51,7.41,2.11A26.23,26.23,0,0,1,23.1,4.64c1.23.86,5.29,3.78,7.4,8.11V10A32.57,32.57,0,0,0,24.55,4Z"/><path class="cls-3" d="M6.47,17.67C9.61,20,10.18,16.73,14.06,19c3.64,2.15,3.76,7,6.57,7.76,3,.77,8-4.32,8.81-8.2,1.25-5.84-6.2-10.73-7.74-11.74A19.45,19.45,0,0,0,8.94,4c-2.06.29-4.21.6-5.52,2.32C1.25,9.13,3.51,15.53,6.47,17.67Zm.34-9.91C7.82,6.44,9.48,6.2,11.06,6a15,15,0,0,1,9.81,2.19c1.19.78,6.92,4.55,6,9-.64,3-4.5,6.89-6.78,6.3s-2.25-4.31-5.06-6c-3-1.76-3.41.71-5.83-1S5.14,9.94,6.81,7.76Z"/><path class="cls-3" d="M11.09,14.23c1.61,1.16,3.18-.37,5.16.79s1.51,3.07,2.95,3.44,3.78-1.3,4.21-3.27c.63-3-3.77-5.32-4.55-5.84A9.69,9.69,0,0,0,12.6,8.19a3.32,3.32,0,0,0-2.37,1.45A3.25,3.25,0,0,0,11.09,14.23Zm1.57-4a3.66,3.66,0,0,1,2.08-1,5.47,5.47,0,0,1,3.66,1c.43.29,3.36,2.54,3,4.18-.23,1.09-1.48,1.26-2.31,1S18,13.09,17,12.49s-2.27.14-3.31-.19C12.21,11.84,12.27,10.93,12.66,10.28Z"/></svg>