<svg id="Layer_1" data-name="Layer 1" xmlns="http://www.w3.org/2000/svg" viewBox="0 0 32 32"><defs><style>.cls-1{fill:none;stroke:#231f20;stroke-miterlimit:10;}</style></defs><polygon class="cls-1" points="1.5 1.5 1.5 4.5 0.5 4.5 1.5 4.5 1.5 8.5 0.5 8.5 1.5 8.5 1.5 12.5 0.5 12.5 1.5 12.5 1.5 16.5 0.5 16.5 1.5 16.5 1.5 20.5 0.5 20.5 1.5 20.5 1.5 24.5 0.5 24.5 1.5 24.5 1.5 28.5 0.5 28.5 1.5 28.5 1.5 30.5 3.5 30.5 3.5 31.5 3.5 30.5 7.5 30.5 7.5 31.5 7.5 30.5 11.5 30.5 11.5 31.5 11.5 30.5 15.5 30.5 15.5 31.5 15.5 30.5 19.5 30.5 19.5 31.5 19.5 30.5 23.5 30.5 23.5 31.5 23.5 30.5 27.5 30.5 27.5 31.5 27.5 30.5 30.5 30.5 30.5 1.5 1.5 1.5"/><path class="cls-1" d="M9.52,8.83c-1.24,1.62-.63,4.72,1.06,5.94s3.56-.42,5.77.89,1.7,3.44,3.31,3.85,4.24-1.45,4.71-3.67c.71-3.33-3.54-6.12-4.42-6.7a11.15,11.15,0,0,0-7.28-1.63C11.49,7.68,10.27,7.85,9.52,8.83Z"/><path class="cls-1" d="M11.15,1.65A7.53,7.53,0,0,1,7.45,5,7.63,7.63,0,0,1,1.68,5"/><path class="cls-1" d="M15.62,1.59a16.26,16.26,0,0,0,7.07,4,16.33,16.33,0,0,0,7.59.2"/><path class="cls-1" d="M1.42,15.21C3.1,15,5.29,15,6,16.12s-.83,3,0,4.15,2.38.12,6,.91a12.6,12.6,0,0,1,4.09,1.55,12.93,12.93,0,0,1,3.11,2.79,18,18,0,0,1,2.92,4.8"/><path class="cls-1" d="M1.61,22.93c1,.07,9.35.82,11.16,5.84a5.82,5.82,0,0,1,.32,1.55"/><path class="cls-1" d="M30.37,17.06a16.9,16.9,0,0,0-5.91,13.2"/></svg>