<svg id="Layer_1" data-name="Layer 1" xmlns="http://www.w3.org/2000/svg" viewBox="0 0 32 32"><defs><style>.cls-1{fill:none;stroke:#231f20;stroke-miterlimit:10;}</style></defs><polygon class="cls-1" points="1.5 1.47 1.5 4.47 0.5 4.47 0.5 4.47 1.5 4.47 1.5 8.47 0.5 8.47 0.5 8.47 1.5 8.47 1.5 12.47 0.5 12.47 0.5 12.47 1.5 12.47 1.5 16.47 0.5 16.47 0.5 16.47 1.5 16.47 1.5 20.47 0.5 20.47 0.5 20.47 1.5 20.47 1.5 24.47 0.5 24.47 0.5 24.47 1.5 24.47 1.5 28.47 0.5 28.47 0.5 28.47 1.5 28.47 1.5 30.47 3.5 30.47 3.5 31.47 3.5 31.47 3.5 30.47 7.5 30.47 7.5 31.47 7.5 31.47 7.5 30.47 11.5 30.47 11.5 31.47 11.5 31.47 11.5 30.47 15.5 30.47 15.5 31.47 15.5 31.47 15.5 30.47 19.5 30.47 19.5 31.47 19.5 31.47 19.5 30.47 23.5 30.47 23.5 31.47 23.5 31.47 23.5 30.47 27.5 30.47 27.5 31.47 27.5 31.47 27.5 30.47 30.5 30.47 30.5 1.47 1.5 1.47"/><polyline class="cls-1" points="4.25 21.05 7.69 14.95 11.84 16.83 13.13 9.76 20.59 11.38 24.23 5.48"/><path class="cls-1" d="M4.25,27.28l8.24-5.58L20,25.46l3.37-9.93,4.41,1.24"/></svg>