<svg id="Layer_1" data-name="Layer 1" xmlns="http://www.w3.org/2000/svg" viewBox="0 0 32 32"><defs><style>.cls-1,.cls-2{fill:none;stroke:#231f20;}.cls-1{stroke-miterlimit:10;}.cls-2{stroke-linejoin:bevel;}</style></defs><polygon class="cls-1" points="1.5 1.5 1.5 4.5 0.5 4.5 0.5 4.5 1.5 4.5 1.5 8.5 0.5 8.5 0.5 8.5 1.5 8.5 1.5 12.5 0.5 12.5 0.5 12.5 1.5 12.5 1.5 16.5 0.5 16.5 0.5 16.5 1.5 16.5 1.5 20.5 0.5 20.5 0.5 20.5 1.5 20.5 1.5 24.5 0.5 24.5 0.5 24.5 1.5 24.5 1.5 28.5 0.5 28.5 0.5 28.5 1.5 28.5 1.5 30.5 3.5 30.5 3.5 31.5 3.5 31.5 3.5 30.5 7.5 30.5 7.5 31.5 7.5 31.5 7.5 30.5 11.5 30.5 11.5 31.5 11.5 31.5 11.5 30.5 15.5 30.5 15.5 31.5 15.5 31.5 15.5 30.5 19.5 30.5 19.5 31.5 19.5 31.5 19.5 30.5 23.5 30.5 23.5 31.5 23.5 31.5 23.5 30.5 27.5 30.5 27.5 31.5 27.5 31.5 27.5 30.5 30.5 30.5 30.5 1.5 1.5 1.5"/><line class="cls-1" x1="19.5" y1="28" x2="19.5" y2="25"/><line class="cls-1" x1="19.5" y1="24" x2="19.5" y2="21"/><line class="cls-1" x1="21" y1="27.5" x2="18" y2="27.5"/><line class="cls-1" x1="21" y1="21.5" x2="18" y2="21.5"/><line class="cls-1" x1="25.5" y1="18" x2="25.5" y2="15"/><line class="cls-1" x1="25.5" y1="14" x2="25.5" y2="11"/><line class="cls-1" x1="27" y1="17.5" x2="24" y2="17.5"/><line class="cls-1" x1="27" y1="11.5" x2="24" y2="11.5"/><line class="cls-1" x1="7.5" y1="23" x2="7.5" y2="20"/><line class="cls-1" x1="7.5" y1="19" x2="7.5" y2="16"/><line class="cls-1" x1="9" y1="22.5" x2="6" y2="22.5"/><line class="cls-1" x1="9" y1="16.5" x2="6" y2="16.5"/><rect class="cls-1" x="6.5" y="18.5" width="2" height="2"/><line class="cls-1" x1="5" y1="19.5" x2="7" y2="19.5"/><line class="cls-1" x1="8" y1="19.5" x2="11" y2="19.5"/><line class="cls-1" x1="4.5" y1="21" x2="4.5" y2="18"/><line class="cls-1" x1="10.5" y1="21" x2="10.5" y2="18"/><line class="cls-1" x1="13.5" y1="12" x2="13.5" y2="9"/><line class="cls-1" x1="13.5" y1="8" x2="13.5" y2="5"/><line class="cls-1" x1="15" y1="11.5" x2="12" y2="11.5"/><line class="cls-1" x1="15" y1="5.5" x2="12" y2="5.5"/><rect class="cls-1" x="12.5" y="7.5" width="2" height="2"/><line class="cls-1" x1="11" y1="8.5" x2="13" y2="8.5"/><line class="cls-1" x1="14" y1="8.5" x2="17" y2="8.5"/><line class="cls-1" x1="10.5" y1="10" x2="10.5" y2="7"/><line class="cls-1" x1="16.5" y1="10" x2="16.5" y2="7"/><rect class="cls-1" x="24.5" y="13.5" width="2" height="2"/><line class="cls-1" x1="23" y1="14.5" x2="25" y2="14.5"/><line class="cls-1" x1="26" y1="14.5" x2="29" y2="14.5"/><line class="cls-1" x1="22.5" y1="16" x2="22.5" y2="13"/><line class="cls-1" x1="28.5" y1="16" x2="28.5" y2="13"/><rect class="cls-1" x="18.5" y="23.5" width="2" height="2"/><line class="cls-1" x1="17" y1="24.5" x2="19" y2="24.5"/><line class="cls-1" x1="20" y1="24.5" x2="23" y2="24.5"/><line class="cls-1" x1="16.5" y1="26" x2="16.5" y2="23"/><line class="cls-1" x1="22.5" y1="26" x2="22.5" y2="23"/><line class="cls-2" x1="8.38" y1="18.65" x2="12.66" y2="8.98"/><line class="cls-2" x1="18.76" y1="23.77" x2="14.54" y2="9.11"/><line class="cls-2" x1="24.79" y1="15.21" x2="20.38" y2="23.58"/></svg>