<svg id="Layer_1" data-name="Layer 1" xmlns="http://www.w3.org/2000/svg" viewBox="0 0 32 32"><defs><style>.cls-1{fill:none;stroke:#231f20;stroke-miterlimit:10;}</style></defs><circle class="cls-1" cx="15.5" cy="15.5" r="13"/><line class="cls-1" x1="15.5" y1="2.5" x2="15.5" y2="28.5"/><line class="cls-1" x1="28.5" y1="15.5" x2="2.5" y2="15.5"/><circle class="cls-1" cx="15.5" cy="15.5" r="3"/><circle class="cls-1" cx="22.27" cy="9.39" r="1"/><circle class="cls-1" cx="10.95" cy="7.37" r="1"/><circle class="cls-1" cx="18.37" cy="20.18" r="1"/><circle class="cls-1" cx="22.41" cy="21.71" r="1"/><circle class="cls-1" cx="24.49" cy="13.28" r="1"/><circle class="cls-1" cx="17.82" cy="10.82" r="1"/><circle class="cls-1" cx="7.5" cy="17.5" r="1"/><circle class="cls-1" cx="12.5" cy="23.5" r="1"/><line class="cls-1" x1="24.49" y1="14.28" x2="22.41" y2="20.71"/><line class="cls-1" x1="21.41" y1="21.71" x2="19.37" y2="20.18"/><line class="cls-1" x1="17.37" y1="20.18" x2="13.5" y2="23.5"/><line class="cls-1" x1="11.5" y1="23.5" x2="7.5" y2="18.5"/><line class="cls-1" x1="7.5" y1="16.5" x2="10.95" y2="8.37"/><line class="cls-1" x1="11.95" y1="7.37" x2="16.82" y2="10.82"/><line class="cls-1" x1="18.82" y1="10.82" x2="21.27" y2="9.39"/></svg>