<svg id="Layer_1" data-name="Layer 1" xmlns="http://www.w3.org/2000/svg" viewBox="0 0 32 32"><defs><style>.cls-1,.cls-2,.cls-3,.cls-4,.cls-6{fill:none;}.cls-1,.cls-2,.cls-3,.cls-4,.cls-5,.cls-6{stroke:#231f20;stroke-miterlimit:10;}.cls-2{stroke-dasharray:0.96 0.96;}.cls-3{stroke-dasharray:0.95 0.95;}.cls-4{stroke-dasharray:0.95 0.95;}.cls-5{fill:#231f20;stroke-linecap:square;}.cls-6{stroke-dasharray:1.03 1.03;}</style></defs><polygon class="cls-1" points="6.61 6.55 2.71 15.96 6.61 25.38 16.02 29.28 25.44 25.39 29.34 15.97 25.45 6.55 16.03 2.65 6.61 6.55"/><line class="cls-1" x1="2.71" y1="15.96" x2="3.21" y2="15.96"/><line class="cls-2" x1="4.17" y1="15.96" x2="15.18" y2="15.95"/><line class="cls-1" x1="15.66" y1="15.95" x2="16.16" y2="15.95"/><line class="cls-1" x1="25.45" y1="6.55" x2="25.1" y2="6.91"/><line class="cls-3" x1="24.43" y1="7.59" x2="16.79" y2="15.4"/><line class="cls-1" x1="16.46" y1="15.74" x2="16.11" y2="16.1"/><line class="cls-1" x1="25.55" y1="25.58" x2="25.2" y2="25.23"/><line class="cls-4" x1="24.52" y1="24.56" x2="16.75" y2="16.83"/><line class="cls-1" x1="16.41" y1="16.5" x2="16.06" y2="16.15"/><polygon class="cls-5" points="8.24 8.19 9.01 11.05 11.11 8.96 8.24 8.19"/><polygon class="cls-5" points="9.7 22.4 10.47 19.54 12.56 21.64 9.7 22.4"/><polygon class="cls-5" points="24.43 15.9 21.87 17.38 21.87 14.42 24.43 15.9"/><polyline class="cls-1" points="22.77 15.95 16.16 15.95 11.46 20.65"/><line class="cls-1" x1="9.39" y1="9.19" x2="16.16" y2="15.95"/><line class="cls-1" x1="16.03" y1="2.75" x2="16.03" y2="3.25"/><line class="cls-6" x1="16.03" y1="4.27" x2="16.03" y2="28.41"/><line class="cls-1" x1="16.03" y1="28.93" x2="16.03" y2="29.43"/></svg>