<svg id="Layer_1" data-name="Layer 1" xmlns="http://www.w3.org/2000/svg" viewBox="0 0 32 32"><defs><style>.cls-1{fill:none;stroke:#231f20;stroke-miterlimit:10;}</style></defs><polygon class="cls-1" points="1.5 1.5 1.5 4.5 0.5 4.5 0.5 4.5 1.5 4.5 1.5 8.5 0.5 8.5 0.5 8.5 1.5 8.5 1.5 12.5 0.5 12.5 0.5 12.5 1.5 12.5 1.5 16.5 0.5 16.5 0.5 16.5 1.5 16.5 1.5 20.5 0.5 20.5 0.5 20.5 1.5 20.5 1.5 24.5 0.5 24.5 0.5 24.5 1.5 24.5 1.5 28.5 0.5 28.5 0.5 28.5 1.5 28.5 1.5 30.5 3.5 30.5 3.5 31.5 3.5 31.5 3.5 30.5 7.5 30.5 7.5 31.5 7.5 31.5 7.5 30.5 11.5 30.5 11.5 31.5 11.5 31.5 11.5 30.5 15.5 30.5 15.5 31.5 15.5 31.5 15.5 30.5 19.5 30.5 19.5 31.5 19.5 31.5 19.5 30.5 23.5 30.5 23.5 31.5 23.5 31.5 23.5 30.5 27.5 30.5 27.5 31.5 27.5 31.5 27.5 30.5 30.5 30.5 30.5 1.5 1.5 1.5"/><polygon class="cls-1" points="6.01 22.5 7.42 20.07 8.82 22.5 6.01 22.5"/><polygon class="cls-1" points="6.01 13.5 7.42 11.07 8.82 13.5 6.01 13.5"/><rect class="cls-1" x="9.5" y="25.5" width="2" height="2"/><polygon class="cls-1" points="12.01 6.5 13.42 4.07 14.82 6.5 12.01 6.5"/><rect class="cls-1" x="13.5" y="17.5" width="2" height="2"/><polygon class="cls-1" points="14.5 13.93 15.9 11.5 17.31 13.93 14.5 13.93"/><rect class="cls-1" x="17.5" y="23.5" width="2" height="2"/><rect class="cls-1" x="20.5" y="11.5" width="2" height="2"/><polygon class="cls-1" points="23.01 6.5 24.42 4.07 25.82 6.5 23.01 6.5"/><rect class="cls-1" x="24.5" y="20.5" width="2" height="2"/></svg>