<svg id="Layer_1" data-name="Layer 1" xmlns="http://www.w3.org/2000/svg" viewBox="0 0 32 32"><defs><style>.cls-1,.cls-2{fill:none;stroke:#231f20;stroke-miterlimit:10;}.cls-2{stroke-dasharray:2.05 2.05;}</style></defs><polygon class="cls-1" points="1.5 1.5 1.5 4.5 0.5 4.5 0.5 4.5 1.5 4.5 1.5 8.5 0.5 8.5 0.5 8.5 1.5 8.5 1.5 12.5 0.5 12.5 0.5 12.5 1.5 12.5 1.5 16.5 0.5 16.5 0.5 16.5 1.5 16.5 1.5 20.5 0.5 20.5 0.5 20.5 1.5 20.5 1.5 24.5 0.5 24.5 0.5 24.5 1.5 24.5 1.5 28.5 0.5 28.5 0.5 28.5 1.5 28.5 1.5 30.5 3.5 30.5 3.5 31.5 3.5 31.5 3.5 30.5 7.5 30.5 7.5 31.5 7.5 31.5 7.5 30.5 11.5 30.5 11.5 31.5 11.5 31.5 11.5 30.5 15.5 30.5 15.5 31.5 15.5 31.5 15.5 30.5 19.5 30.5 19.5 31.5 19.5 31.5 19.5 30.5 23.5 30.5 23.5 31.5 23.5 31.5 23.5 30.5 27.5 30.5 27.5 31.5 27.5 31.5 27.5 30.5 30.5 30.5 30.5 1.5 1.5 1.5"/><rect class="cls-1" x="5.5" y="19.5" width="2" height="2"/><rect class="cls-1" x="8.5" y="10.5" width="2" height="2"/><rect class="cls-1" x="9.5" y="25.5" width="2" height="2"/><rect class="cls-1" x="14.5" y="22.5" width="2" height="2"/><rect class="cls-1" x="16.5" y="8.5" width="2" height="2"/><rect class="cls-1" x="20.5" y="4.5" width="2" height="2"/><rect class="cls-1" x="22.5" y="19.5" width="2" height="2"/><rect class="cls-1" x="24.5" y="13.5" width="2" height="2"/><line class="cls-1" x1="1.5" y1="30.5" x2="2.21" y2="29.79"/><line class="cls-2" x1="3.66" y1="28.34" x2="29.07" y2="2.93"/><line class="cls-1" x1="29.79" y1="2.21" x2="30.5" y2="1.5"/></svg>