<svg id="Layer_1" data-name="Layer 1" xmlns="http://www.w3.org/2000/svg" viewBox="0 0 32 32"><defs><style>.cls-1{fill:none;stroke:#231f20;stroke-miterlimit:10;}</style></defs><circle class="cls-1" cx="4.54" cy="27.63" r="1"/><circle class="cls-1" cx="18.04" cy="10.28" r="1"/><circle class="cls-1" cx="23.82" cy="15.51" r="1"/><circle class="cls-1" cx="27.41" cy="5.2" r="1"/><circle class="cls-1" cx="7.97" cy="18.86" r="1"/><circle class="cls-1" cx="13.58" cy="23.69" r="1"/><path class="cls-1" d="M4.55,26.69S4.88,19.3,7.15,19"/><path class="cls-1" d="M8.77,19c1.81.13,1.55,4.86,4,4.73"/><path class="cls-1" d="M14.28,23C16,22,15,10.61,17.46,10.48"/><path class="cls-1" d="M19,10.15c1.43-.39,1.69,4.67,3.76,5.19"/><path class="cls-1" d="M24.66,14.82c2.3-1,2.66-8.69,2.66-8.69"/><polygon class="cls-1" points="1.49 1.53 1.49 4.53 0.49 4.53 0.49 4.53 1.49 4.53 1.49 8.53 0.49 8.53 0.49 8.53 1.49 8.53 1.49 12.53 0.49 12.53 0.49 12.53 1.49 12.53 1.49 16.53 0.49 16.53 0.49 16.53 1.49 16.53 1.49 20.53 0.49 20.53 0.49 20.53 1.49 20.53 1.49 24.53 0.49 24.53 0.49 24.53 1.49 24.53 1.49 28.53 0.49 28.53 0.49 28.53 1.49 28.53 1.49 30.53 3.49 30.53 3.49 31.53 3.49 31.53 3.49 30.53 7.49 30.53 7.49 31.53 7.49 31.53 7.49 30.53 11.49 30.53 11.49 31.53 11.49 31.53 11.49 30.53 15.49 30.53 15.49 31.53 15.49 31.53 15.49 30.53 19.49 30.53 19.49 31.53 19.49 31.53 19.49 30.53 23.49 30.53 23.49 31.53 23.49 31.53 23.49 30.53 27.49 30.53 27.49 31.53 27.49 31.53 27.49 30.53 30.49 30.53 30.49 1.53 1.49 1.53"/></svg>