<svg id="Layer_1" data-name="Layer 1" xmlns="http://www.w3.org/2000/svg" viewBox="0 0 32 32"><defs><style>.cls-1{fill:none;stroke:#231f20;stroke-miterlimit:10;}</style></defs><polygon class="cls-1" points="1.5 1.5 1.5 4.5 0.5 4.5 0.5 4.5 1.5 4.5 1.5 8.5 0.5 8.5 0.5 8.5 1.5 8.5 1.5 12.5 0.5 12.5 0.5 12.5 1.5 12.5 1.5 16.5 0.5 16.5 0.5 16.5 1.5 16.5 1.5 20.5 0.5 20.5 0.5 20.5 1.5 20.5 1.5 24.5 0.5 24.5 0.5 24.5 1.5 24.5 1.5 28.5 0.5 28.5 0.5 28.5 1.5 28.5 1.5 30.5 3.5 30.5 3.5 31.5 3.5 31.5 3.5 30.5 7.5 30.5 7.5 31.5 7.5 31.5 7.5 30.5 11.5 30.5 11.5 31.5 11.5 31.5 11.5 30.5 15.5 30.5 15.5 31.5 15.5 31.5 15.5 30.5 19.5 30.5 19.5 31.5 19.5 31.5 19.5 30.5 23.5 30.5 23.5 31.5 23.5 31.5 23.5 30.5 27.5 30.5 27.5 31.5 27.5 31.5 27.5 30.5 30.5 30.5 30.5 1.5 1.5 1.5"/><polyline class="cls-1" points="4.5 27 4.5 21.5 8.5 21.5 8.5 12.5 11.5 12.5 11.5 5.5 11.5 9.5 15.5 9.5 15.5 17.5 19.5 17.5 19.5 22.23 19.5 16.5 19.5 13.5 23.5 13.5 23.5 4.9 23.5 17.5 27.5 17.5 27.5 27"/><circle class="cls-1" cx="4.5" cy="26.5" r="1"/><circle class="cls-1" cx="8.5" cy="17.5" r="1"/><circle class="cls-1" cx="11.5" cy="6.5" r="1"/><circle class="cls-1" cx="15.5" cy="13.5" r="1"/><circle class="cls-1" cx="19.5" cy="21.5" r="1"/><circle class="cls-1" cx="23.5" cy="5.5" r="1"/><circle class="cls-1" cx="27.5" cy="26.5" r="1"/></svg>