<svg id="Layer_1" data-name="Layer 1" xmlns="http://www.w3.org/2000/svg" viewBox="0 0 32 32"><defs><style>.cls-1{fill:none;}.cls-1,.cls-2{stroke:#231f20;stroke-miterlimit:10;}.cls-2{fill:#231f20;stroke-linecap:square;}</style></defs><polygon class="cls-1" points="1.5 1.5 1.5 4.5 0.5 4.5 0.5 4.5 1.5 4.5 1.5 8.5 0.5 8.5 0.5 8.5 1.5 8.5 1.5 12.5 0.5 12.5 0.5 12.5 1.5 12.5 1.5 16.5 0.5 16.5 0.5 16.5 1.5 16.5 1.5 20.5 0.5 20.5 0.5 20.5 1.5 20.5 1.5 24.5 0.5 24.5 0.5 24.5 1.5 24.5 1.5 28.5 0.5 28.5 0.5 28.5 1.5 28.5 1.5 30.5 3.5 30.5 3.5 31.5 3.5 31.5 3.5 30.5 7.5 30.5 7.5 31.5 7.5 31.5 7.5 30.5 11.5 30.5 11.5 31.5 11.5 31.5 11.5 30.5 15.5 30.5 15.5 31.5 15.5 31.5 15.5 30.5 19.5 30.5 19.5 31.5 19.5 31.5 19.5 30.5 23.5 30.5 23.5 31.5 23.5 31.5 23.5 30.5 27.5 30.5 27.5 31.5 27.5 31.5 27.5 30.5 30.5 30.5 30.5 1.5 1.5 1.5"/><polygon class="cls-2" points="11.84 15.29 9.42 17 9.14 14.05 11.84 15.29"/><line class="cls-1" x1="10.31" y1="15.32" x2="3.78" y2="15.93"/><polygon class="cls-2" points="13.13 22.19 11.81 24.85 10.17 22.38 13.13 22.19"/><line class="cls-1" x1="11.8" y1="22.94" x2="5.98" y2="26.82"/><polygon class="cls-2" points="24.05 17.48 24.28 20.44 21.61 19.16 24.05 17.48"/><line class="cls-1" x1="23.3" y1="18.81" x2="20.06" y2="25.56"/><polygon class="cls-2" points="26.99 6.45 26.22 9.31 24.13 7.22 26.99 6.45"/><line class="cls-1" x1="25.84" y1="7.45" x2="19.08" y2="14.21"/><polygon class="cls-2" points="18.51 8.52 16.55 10.75 15.6 7.94 18.51 8.52"/><line class="cls-1" x1="17.03" y1="8.91" x2="11.63" y2="10.74"/></svg>